SplineFontDB: 3.2
FontName: Gontserrat-Black
FullName: Gontserrat Black
FamilyName: Gontserrat
Weight: Black
Copyright: Gontserrat is a derivative work of Montserrat under the Open Font License, version 1.1. Copyright 2020 Gabriel Classon (gabeclasson.com). Montserrat copyright 2011 The Montserrat Project Authors (https://github.com/JulietaUla/Montserrat). 
Version: 7.222
ItalicAngle: 0
UnderlinePosition: -100
UnderlineWidth: 50
Ascent: 800
Descent: 200
InvalidEm: 0
sfntRevision: 0x00010000
LayerCount: 2
Layer: 0 1 "Back" 1
Layer: 1 1 "Fore" 0
XUID: [1021 930 -1503615855 5084]
StyleMap: 0x0040
FSType: 0
OS2Version: 4
OS2_WeightWidthSlopeOnly: 0
OS2_UseTypoMetrics: 1
CreationTime: 1485852831
ModificationTime: 1642922347
PfmFamily: 81
TTFWeight: 900
TTFWidth: 5
LineGap: 0
VLineGap: 0
Panose: 0 0 10 0 0 0 0 0 0 0
OS2TypoAscent: 968
OS2TypoAOffset: 0
OS2TypoDescent: -251
OS2TypoDOffset: 0
OS2TypoLinegap: 0
OS2WinAscent: 1177
OS2WinAOffset: 0
OS2WinDescent: 496
OS2WinDOffset: 0
HheadAscent: 968
HheadAOffset: 0
HheadDescent: -251
HheadDOffset: 0
OS2SubXSize: 650
OS2SubYSize: 600
OS2SubXOff: 0
OS2SubYOff: 75
OS2SupXSize: 650
OS2SupYSize: 600
OS2SupXOff: 0
OS2SupYOff: 350
OS2StrikeYSize: 50
OS2StrikeYPos: 328
OS2CapHeight: 701
OS2XHeight: 547
OS2Vendor: 'ULA '
OS2CodePages: 20000193.00000000
OS2UnicodeRanges: 20000007.00000001.00000000.00000000
Lookup: 1 0 0 "'rtla' Right to Left Alternates in Latin lookup 0" { "'rtla' Right to Left Alternates in Latin lookup 0 subtable"  } ['rtla' ('DFLT' <'dflt' > 'latn' <'dflt' > ) ]
Lookup: 1 0 0 "<10,2> Inferiors lookup 1" { "<10,2> Inferiors lookup 1 subtable" ("inferior") } [<10,2> ('DFLT' <'dflt' > ) 'subs' ('DFLT' <'dflt' > ) ]
Lookup: 1 0 0 "<10,1> Superiors lookup 2" { "<10,1> Superiors lookup 2 subtable" ("superior") } [<10,1> ('DFLT' <'dflt' > ) 'sups' ('DFLT' <'dflt' > ) ]

StartChar: .notdef
Encoding: 65536 -1 0
Width: 587
Flags: W
LayerCount: 2
Fore
SplineSet
40 0 m 1,0,-1
 40 700 l 1,1,-1
 547 700 l 1,2,-1
 547 0 l 1,3,-1
 40 0 l 1,0,-1
120 70 m 1,4,-1
 467 70 l 1,5,-1
 467 630 l 1,6,-1
 120 630 l 1,7,-1
 120 70 l 1,4,-1
EndSplineSet
EndChar

StartChar: exclam
Encoding: 33 33 5
Width: 294
Flags: W
LayerCount: 2
Fore
SplineSet
40 701 m 1,0,-1
 254 701 l 1,1,-1
 254 517 l 1,2,-1
 214 258 l 1,3,-1
 80 258 l 1,4,-1
 40 517 l 1,5,-1
 40 701 l 1,0,-1
216.5 168.5 m 128,-1,7
 245 140 245 140 245 95 c 0,8,9
 245 49 245 49 216.5 20.5 c 128,-1,10
 188 -8 188 -8 142 -8 c 0,11,12
 97 -8 97 -8 68.5 20.5 c 128,-1,13
 40 49 40 49 40 95 c 0,14,15
 40 140 40 140 68.5 168.5 c 128,-1,16
 97 197 97 197 142 197 c 0,17,6
 188 197 188 197 216.5 168.5 c 128,-1,7
EndSplineSet
Substitution2: "<3,3> Small Caps in Latin lookup 11 subtable" exclam.sc
EndChar

StartChar: numbersign
Encoding: 35 35 7
Width: 745
Flags: W
LayerCount: 2
Fore
SplineSet
723 401 m 1,0,-1
 592 401 l 1,1,-1
 578 291 l 1,2,-1
 708 291 l 1,3,-1
 689 138 l 1,4,-1
 559 138 l 1,5,-1
 542 0 l 1,6,-1
 382 0 l 1,7,-1
 399 138 l 1,8,-1
 294 138 l 1,9,-1
 277 0 l 1,10,-1
 117 0 l 1,11,-1
 134 138 l 1,12,-1
 4 138 l 1,13,-1
 23 291 l 1,14,-1
 153 291 l 1,15,-1
 167 401 l 1,16,-1
 38 401 l 1,17,-1
 56 554 l 1,18,-1
 186 554 l 1,19,-1
 204 701 l 1,20,-1
 364 701 l 1,21,-1
 346 554 l 1,22,-1
 451 554 l 1,23,-1
 469 701 l 1,24,-1
 629 701 l 1,25,-1
 611 554 l 1,26,-1
 741 554 l 1,27,-1
 723 401 l 1,0,-1
418 291 m 1,28,-1
 432 401 l 1,29,-1
 327 401 l 1,30,-1
 313 291 l 1,31,-1
 418 291 l 1,28,-1
EndSplineSet
EndChar

StartChar: dollar
Encoding: 36 36 8
Width: 664
Flags: W
LayerCount: 2
Fore
SplineSet
318.5 473 m 128,-1,1
 346 460 346 460 406 444 c 0,2,3
 481 423 481 423 530.5 402 c 128,-1,4
 580 381 580 381 617 335.5 c 128,-1,5
 654 290 654 290 654 216 c 0,6,7
 654 120 654 120 592 63.5 c 128,-1,8
 530 7 530 7 429 -8 c 1,9,-1
 429 -165 l 1,10,-1
 263 -165 l 1,11,-1
 263 -5 l 1,12,13
 192 7 192 7 125.5 34.5 c 128,-1,14
 59 62 59 62 8 101 c 1,15,-1
 94 276 l 1,16,17
 147 230 147 230 227 197.5 c 128,-1,18
 307 165 307 165 361 165 c 0,19,20
 387 165 387 165 402 174.5 c 128,-1,21
 417 184 417 184 417 204 c 0,22,23
 417 228 417 228 388.5 241.5 c 128,-1,24
 360 255 360 255 299 270 c 0,25,26
 225 289 225 289 175.5 309.5 c 128,-1,27
 126 330 126 330 90 373 c 128,-1,28
 54 416 54 416 54 488 c 0,29,30
 54 575 54 575 109.5 633.5 c 128,-1,31
 165 692 165 692 263 711 c 1,32,-1
 263 864 l 1,33,-1
 429 864 l 1,34,-1
 429 714 l 1,35,36
 493 706 493 706 553 685 c 128,-1,37
 613 664 613 664 659 635 c 1,38,-1
 575 458 l 1,39,40
 518 491 518 491 448 516 c 128,-1,41
 378 541 378 541 334 541 c 0,42,43
 291 541 291 541 291 510 c 0,44,0
 291 486 291 486 318.5 473 c 128,-1,1
EndSplineSet
EndChar

StartChar: ampersand
Encoding: 38 38 10
Width: 706
Flags: W
LayerCount: 2
Fore
SplineSet
586 -40 m 1,0,-1
 495 47 l 1,1,2
 409 -10 409 -10 308 -10 c 0,3,4
 235 -10 235 -10 177 17 c 128,-1,5
 119 44 119 44 86 91.5 c 128,-1,6
 53 139 53 139 53 200 c 0,7,8
 53 262 53 262 87 304.5 c 128,-1,9
 121 347 121 347 181 382 c 1,10,11
 153 424 153 424 141.5 459 c 128,-1,12
 130 494 130 494 130 532 c 0,13,14
 130 615 130 615 188 663 c 128,-1,15
 246 711 246 711 346 711 c 0,16,17
 410 711 410 711 460 689.5 c 128,-1,18
 510 668 510 668 538.5 630 c 128,-1,19
 567 592 567 592 567 544 c 0,20,21
 567 477 567 477 524.5 433.5 c 128,-1,22
 482 390 482 390 408 352 c 1,23,24
 439 318 439 318 483 274 c 1,25,26
 506 319 506 319 518 372 c 1,27,-1
 659 271 l 1,28,29
 639 211 639 211 603 158 c 1,30,-1
 653 112 l 1,31,-1
 699 69 l 1,32,-1
 586 -40 l 1,0,-1
327 457 m 1,34,35
 358 476 358 476 375 496.5 c 128,-1,36
 392 517 392 517 392 542 c 0,37,38
 392 562 392 562 380 574.5 c 128,-1,39
 368 587 368 587 348 587 c 0,40,41
 327 587 327 587 315.5 572 c 128,-1,42
 304 557 304 557 304 533 c 0,43,33
 304 496 304 496 327 457 c 1,34,35
379 160 m 1,45,46
 330 209 330 209 268 275 c 1,47,48
 236 248 236 248 236 217 c 0,49,50
 236 184 236 184 258.5 164.5 c 128,-1,51
 281 145 281 145 317 145 c 0,52,44
 349 145 349 145 379 160 c 1,45,46
EndSplineSet
Substitution2: "<3,3> Small Caps in Latin lookup 11 subtable" ampersand.sc
EndChar

StartChar: quotesingle
Encoding: 39 39 11
Width: 288
Flags: W
LayerCount: 2
Fore
SplineSet
60 701 m 1,0,-1
 228 701 l 1,1,-1
 228 399 l 1,2,-1
 60 399 l 1,3,-1
 60 701 l 1,0,-1
EndSplineSet
Substitution2: "<3,3> Small Caps in Latin lookup 11 subtable" quotesingle.sc
EndChar

StartChar: parenleft
Encoding: 40 40 12
Width: 370
Flags: W
LayerCount: 2
Fore
SplineSet
291 536.5 m 128,-1,1
 258 425 258 425 258 309 c 256,2,3
 258 193 258 193 291 81.5 c 128,-1,4
 324 -30 324 -30 381 -124 c 1,5,-1
 180 -124 l 1,6,7
 115 -34 115 -34 81 77.5 c 128,-1,8
 47 189 47 189 47 309 c 256,9,10
 47 429 47 429 81 540.5 c 128,-1,11
 115 652 115 652 180 742 c 1,12,-1
 381 742 l 1,13,0
 324 648 324 648 291 536.5 c 128,-1,1
EndSplineSet
Substitution2: "'rtla' Right to Left Alternates in Latin lookup 0 subtable" parenright
EndChar

StartChar: parenright
Encoding: 41 41 13
Width: 370
Flags: W
LayerCount: 2
Fore
SplineSet
190 742 m 1,0,1
 255 652 255 652 289 540.5 c 128,-1,2
 323 429 323 429 323 309 c 256,3,4
 323 189 323 189 289 77.5 c 128,-1,5
 255 -34 255 -34 190 -124 c 1,6,-1
 -11 -124 l 1,7,8
 46 -30 46 -30 79 81.5 c 128,-1,9
 112 193 112 193 112 309 c 256,10,11
 112 425 112 425 79 536.5 c 128,-1,12
 46 648 46 648 -11 742 c 1,13,-1
 190 742 l 1,0,1
EndSplineSet
Substitution2: "'rtla' Right to Left Alternates in Latin lookup 0 subtable" parenleft
EndChar

StartChar: asterisk
Encoding: 42 42 14
Width: 406
Flags: W
LayerCount: 2
Fore
SplineSet
148 718 m 1,0,-1
 258 718 l 1,1,-1
 256 630 l 1,2,-1
 331 675 l 1,3,-1
 386 580 l 1,4,-1
 307 539 l 1,5,-1
 386 496 l 1,6,-1
 331 400 l 1,7,-1
 255 447 l 1,8,-1
 258 359 l 1,9,-1
 148 359 l 1,10,-1
 151 448 l 1,11,-1
 75 402 l 1,12,-1
 20 496 l 1,13,-1
 98 539 l 1,14,-1
 20 580 l 1,15,-1
 75 677 l 1,16,-1
 150 630 l 1,17,-1
 148 718 l 1,0,-1
EndSplineSet
EndChar

StartChar: plus
Encoding: 43 43 15
Width: 520
Flags: W
LayerCount: 2
Fore
SplineSet
490 399 m 1,0,-1
 490 259 l 1,1,-1
 330 259 l 1,2,-1
 330 99 l 1,3,-1
 190 99 l 1,4,-1
 190 259 l 1,5,-1
 30 259 l 1,6,-1
 30 399 l 1,7,-1
 190 399 l 1,8,-1
 190 559 l 1,9,-1
 330 559 l 1,10,-1
 330 399 l 1,11,-1
 490 399 l 1,0,-1
EndSplineSet
EndChar

StartChar: comma
Encoding: 44 44 16
Width: 265
Flags: W
LayerCount: 2
Fore
SplineSet
206.5 170 m 128,-1,1
 236 143 236 143 236 96 c 0,2,3
 236 57 236 57 209 16 c 2,4,-1
 112 -130 l 1,5,-1
 8 -130 l 1,6,-1
 69 17 l 1,7,8
 31 45 31 45 31 95 c 0,9,10
 31 140 31 140 60 168.5 c 128,-1,11
 89 197 89 197 134 197 c 0,12,0
 177 197 177 197 206.5 170 c 128,-1,1
EndSplineSet
EndChar

StartChar: hyphen
Encoding: 45 45 17
Width: 380
Flags: W
LayerCount: 2
Fore
SplineSet
50 379 m 1,0,-1
 330 379 l 1,1,-1
 330 239 l 1,2,-1
 50 239 l 1,3,-1
 50 379 l 1,0,-1
EndSplineSet
EndChar

StartChar: period
Encoding: 46 46 18
Width: 265
Flags: W
LayerCount: 2
Fore
SplineSet
206.5 168.5 m 128,-1,1
 235 140 235 140 235 95 c 0,2,3
 235 49 235 49 206.5 20.5 c 128,-1,4
 178 -8 178 -8 132 -8 c 0,5,6
 87 -8 87 -8 58.5 20.5 c 128,-1,7
 30 49 30 49 30 95 c 0,8,9
 30 140 30 140 58.5 168.5 c 128,-1,10
 87 197 87 197 132 197 c 0,11,0
 178 197 178 197 206.5 168.5 c 128,-1,1
EndSplineSet
Substitution2: "<3,3> Small Caps in Latin lookup 11 subtable" period.sc
EndChar

StartChar: slash
Encoding: 47 47 19
Width: 373
Flags: W
LayerCount: 2
Fore
SplineSet
279 806 m 1,0,-1
 467 806 l 1,1,-1
 138 -104 l 1,2,-1
 -50 -104 l 1,3,-1
 279 806 l 1,0,-1
EndSplineSet
Substitution2: "<11,2> Diagonal Fractions lookup 3 subtable" fraction
EndChar

StartChar: zero
Encoding: 48 48 20
Width: 700
Flags: W
LayerCount: 2
Fore
SplineSet
589 615.5 m 128,-1,1
 672 523 672 523 672 351 c 256,2,3
 672 179 672 179 589 86 c 128,-1,4
 506 -7 506 -7 351 -7 c 0,5,6
 195 -7 195 -7 112 85.5 c 128,-1,7
 29 178 29 178 29 351 c 256,8,9
 29 524 29 524 112 616 c 128,-1,10
 195 708 195 708 351 708 c 0,11,0
 506 708 506 708 589 615.5 c 128,-1,1
301 522 m 128,-1,13
 283 504 283 504 275 463.5 c 128,-1,14
 267 423 267 423 267 351 c 256,15,16
 267 279 267 279 275 238 c 128,-1,17
 283 197 283 197 301 179 c 128,-1,18
 319 161 319 161 351 161 c 0,19,20
 382 161 382 161 400 179 c 128,-1,21
 418 197 418 197 426 238 c 128,-1,22
 434 279 434 279 434 351 c 256,23,24
 434 423 434 423 426 463.5 c 128,-1,25
 418 504 418 504 400.5 522 c 128,-1,26
 383 540 383 540 351 540 c 256,27,12
 319 540 319 540 301 522 c 128,-1,13
EndSplineSet
Substitution2: "<21,0> Lower Case Numbers lookup 10 subtable" zero.osf
Substitution2: "<6,0> Monospaced Numbers lookup 9 subtable" zero.tf
Substitution2: "<11,2> Diagonal Fractions lookup 4 subtable" zero.numr
Substitution2: "<10,1> Superiors lookup 2 subtable" uni2070
Substitution2: "<10,2> Inferiors lookup 1 subtable" uni2080
EndChar

StartChar: one
Encoding: 49 49 21
Width: 426
Flags: W
LayerCount: 2
Fore
SplineSet
-30 701 m 1,0,-1
 324 701 l 1,1,-1
 324 0 l 1,2,-1
 92 0 l 1,3,-1
 92 518 l 1,4,-1
 -30 518 l 1,5,-1
 -30 701 l 1,0,-1
EndSplineSet
Substitution2: "<21,0> Lower Case Numbers lookup 10 subtable" one.osf
Substitution2: "<6,0> Monospaced Numbers lookup 9 subtable" one.tf
Substitution2: "<11,2> Diagonal Fractions lookup 4 subtable" one.numr
Substitution2: "<10,1> Superiors lookup 2 subtable" uni00B9
Substitution2: "<10,2> Inferiors lookup 1 subtable" uni2081
EndChar

StartChar: two
Encoding: 50 50 22
Width: 620
Flags: W
LayerCount: 2
Fore
SplineSet
588 178 m 1,0,-1
 588 0 l 1,1,-1
 38 0 l 1,2,-1
 37 146 l 1,3,-1
 282 399 l 2,4,5
 305 423 305 423 320 447 c 128,-1,6
 335 471 335 471 335 488 c 0,7,8
 335 506 335 506 322.5 515.5 c 128,-1,9
 310 525 310 525 287 525 c 0,10,11
 248 525 248 525 198 501 c 128,-1,12
 148 477 148 477 96 435 c 1,13,-1
 10 602 l 1,14,15
 170 711 170 711 323 711 c 0,16,17
 395 711 395 711 453 687 c 128,-1,18
 511 663 511 663 544.5 620 c 128,-1,19
 578 577 578 577 578 522 c 0,20,21
 578 465 578 465 542 407.5 c 128,-1,22
 506 350 506 350 440 285 c 2,23,-1
 332 178 l 1,24,-1
 588 178 l 1,0,-1
EndSplineSet
Substitution2: "<21,0> Lower Case Numbers lookup 10 subtable" two.osf
Substitution2: "<6,0> Monospaced Numbers lookup 9 subtable" two.tf
Substitution2: "<11,2> Diagonal Fractions lookup 4 subtable" two.numr
Substitution2: "<10,1> Superiors lookup 2 subtable" uni00B2
Substitution2: "<10,2> Inferiors lookup 1 subtable" uni2082
EndChar

StartChar: three
Encoding: 51 51 23
Width: 614
Flags: W
LayerCount: 2
Fore
SplineSet
547.5 351.5 m 128,-1,1
 593 300 593 300 593 223 c 0,2,3
 593 155 593 155 557 102 c 128,-1,4
 521 49 521 49 455 19.5 c 128,-1,5
 389 -10 389 -10 301 -10 c 0,6,7
 220 -10 220 -10 141 15.5 c 128,-1,8
 62 41 62 41 8 83 c 1,9,-1
 90 239 l 1,10,11
 183 161 183 161 282 161 c 0,12,13
 366 161 366 161 366 223 c 0,14,15
 366 253 366 253 345 269.5 c 128,-1,16
 324 286 324 286 282 286 c 2,17,-1
 151 286 l 1,18,-1
 151 406 l 1,19,-1
 287 535 l 1,20,-1
 46 535 l 1,21,-1
 46 702 l 1,22,-1
 559 702 l 1,23,-1
 559 571 l 1,24,-1
 394 426 l 1,25,-1
 427 419 l 2,26,0
 502 403 502 403 547.5 351.5 c 128,-1,1
EndSplineSet
Substitution2: "<21,0> Lower Case Numbers lookup 10 subtable" three.osf
Substitution2: "<6,0> Monospaced Numbers lookup 9 subtable" three.tf
Substitution2: "<11,2> Diagonal Fractions lookup 4 subtable" three.numr
Substitution2: "<10,1> Superiors lookup 2 subtable" uni00B3
Substitution2: "<10,2> Inferiors lookup 1 subtable" uni2083
EndChar

StartChar: four
Encoding: 52 52 24
Width: 615
Flags: W
LayerCount: 2
Fore
SplineSet
580 301 m 1,0,-1
 580 135 l 1,1,-1
 500 135 l 1,2,-1
 500 0 l 1,3,-1
 289 0 l 1,4,-1
 289 135 l 1,5,-1
 -10 135 l 1,6,-1
 -10 286 l 1,7,-1
 160 701 l 1,8,-1
 378 701 l 1,9,-1
 219 301 l 1,10,-1
 289 301 l 1,11,-1
 289 435 l 1,12,-1
 500 435 l 1,13,-1
 500 301 l 1,14,-1
 580 301 l 1,0,-1
EndSplineSet
Substitution2: "<21,0> Lower Case Numbers lookup 10 subtable" four.osf
Substitution2: "<6,0> Monospaced Numbers lookup 9 subtable" four.tf
Substitution2: "<11,2> Diagonal Fractions lookup 4 subtable" four.numr
Substitution2: "<10,1> Superiors lookup 2 subtable" uni2074
Substitution2: "<10,2> Inferiors lookup 1 subtable" uni2084
EndChar

StartChar: five
Encoding: 53 53 25
Width: 631
Flags: W
LayerCount: 2
Fore
SplineSet
470.5 423 m 128,-1,1
 534 397 534 397 568.5 349 c 128,-1,2
 603 301 603 301 603 238 c 0,3,4
 603 164 603 164 566.5 107.5 c 128,-1,5
 530 51 530 51 462.5 20.5 c 128,-1,6
 395 -10 395 -10 305 -10 c 0,7,8
 231 -10 231 -10 152 15 c 128,-1,9
 73 40 73 40 14 82 c 1,10,-1
 97 241 l 1,11,12
 194 160 194 160 278 160 c 0,13,14
 315 160 315 160 334 175.5 c 128,-1,15
 353 191 353 191 353 221 c 0,16,17
 353 280 353 280 277 280 c 2,18,-1
 79 280 l 1,19,-1
 79 701 l 1,20,-1
 570 701 l 1,21,-1
 570 523 l 1,22,-1
 291 523 l 1,23,-1
 291 449 l 1,24,-1
 323 449 l 2,25,0
 407 449 407 449 470.5 423 c 128,-1,1
EndSplineSet
Substitution2: "<21,0> Lower Case Numbers lookup 10 subtable" five.osf
Substitution2: "<6,0> Monospaced Numbers lookup 9 subtable" five.tf
Substitution2: "<11,2> Diagonal Fractions lookup 4 subtable" five.numr
Substitution2: "<10,1> Superiors lookup 2 subtable" uni2075
Substitution2: "<10,2> Inferiors lookup 1 subtable" uni2085
EndChar

StartChar: six
Encoding: 54 54 26
Width: 627
Flags: W
LayerCount: 2
Fore
SplineSet
347 542 m 0,1,2
 281 542 281 542 247 508.5 c 128,-1,3
 213 475 213 475 213 410 c 1,4,5
 265 467 265 467 356 467 c 0,6,7
 422 467 422 467 472 438 c 128,-1,8
 522 409 522 409 549.5 356.5 c 128,-1,9
 577 304 577 304 577 236 c 0,10,11
 577 162 577 162 544 106.5 c 128,-1,12
 511 51 511 51 450.5 20.5 c 128,-1,13
 390 -10 390 -10 311 -10 c 0,14,15
 216 -10 216 -10 146.5 33 c 128,-1,16
 77 76 77 76 40 155.5 c 128,-1,17
 3 235 3 235 3 342 c 0,18,19
 3 453 3 453 44 536.5 c 128,-1,20
 85 620 85 620 160 665.5 c 128,-1,21
 235 711 235 711 334 711 c 0,22,23
 398 711 398 711 461 694.5 c 128,-1,24
 524 678 524 678 568 650 c 1,25,-1
 484 496 l 1,26,0
 427 542 427 542 347 542 c 0,1,2
251 288.5 m 128,-1,28
 233 270 233 270 233 236 c 256,29,30
 233 202 233 202 250.5 184 c 128,-1,31
 268 166 268 166 303 166 c 0,32,33
 372 166 372 166 372 237 c 0,34,35
 372 271 372 271 355 289 c 128,-1,36
 338 307 338 307 304 307 c 0,37,27
 269 307 269 307 251 288.5 c 128,-1,28
EndSplineSet
Substitution2: "<21,0> Lower Case Numbers lookup 10 subtable" six.osf
Substitution2: "<6,0> Monospaced Numbers lookup 9 subtable" six.tf
Substitution2: "<11,2> Diagonal Fractions lookup 4 subtable" six.numr
Substitution2: "<10,1> Superiors lookup 2 subtable" uni2076
Substitution2: "<10,2> Inferiors lookup 1 subtable" uni2086
EndChar

StartChar: seven
Encoding: 55 55 27
Width: 602
Flags: W
LayerCount: 2
Fore
SplineSet
16 701 m 1,0,-1
 595 701 l 1,1,-1
 595 547 l 1,2,-1
 354 0 l 1,3,-1
 109 0 l 1,4,-1
 340 523 l 1,5,-1
 220 523 l 1,6,-1
 220 425 l 1,7,-1
 16 425 l 1,8,-1
 16 701 l 1,0,-1
EndSplineSet
Substitution2: "<21,0> Lower Case Numbers lookup 10 subtable" seven.osf
Substitution2: "<6,0> Monospaced Numbers lookup 9 subtable" seven.tf
Substitution2: "<11,2> Diagonal Fractions lookup 4 subtable" seven.numr
Substitution2: "<10,1> Superiors lookup 2 subtable" uni2077
Substitution2: "<10,2> Inferiors lookup 1 subtable" uni2087
EndChar

StartChar: eight
Encoding: 56 56 28
Width: 629
Flags: W
LayerCount: 2
Fore
SplineSet
426.5 687 m 128,-1,1
 485 663 485 663 516.5 618.5 c 128,-1,2
 548 574 548 574 548 515 c 0,3,4
 548 475 548 475 529 437 c 128,-1,5
 510 399 510 399 478 375 c 1,6,7
 527 349 527 349 556 301 c 128,-1,8
 585 253 585 253 585 198 c 0,9,10
 585 136 585 136 548.5 88.5 c 128,-1,11
 512 41 512 41 445.5 15.5 c 128,-1,12
 379 -10 379 -10 291 -10 c 256,13,14
 203 -10 203 -10 137 15.5 c 128,-1,15
 71 41 71 41 34.5 87 c 128,-1,16
 -2 133 -2 133 -2 194 c 0,17,18
 -2 250 -2 250 30.5 299.5 c 128,-1,19
 63 349 63 349 116 375 c 1,20,21
 79 402 79 402 57 442 c 128,-1,22
 35 482 35 482 35 522 c 0,23,24
 35 579 35 579 66.5 621.5 c 128,-1,25
 98 664 98 664 156 687.5 c 128,-1,26
 214 711 214 711 290 711 c 0,27,0
 368 711 368 711 426.5 687 c 128,-1,1
227 503 m 0,29,30
 227 449 227 449 291 449 c 0,31,32
 356 449 356 449 356 503 c 0,33,34
 356 561 356 561 291 561 c 0,35,28
 227 561 227 561 227 503 c 0,29,30
215 218 m 0,37,38
 215 187 215 187 234.5 171 c 128,-1,39
 254 155 254 155 291 155 c 0,40,41
 329 155 329 155 349 171 c 128,-1,42
 369 187 369 187 369 218 c 0,43,44
 369 250 369 250 349.5 267 c 128,-1,45
 330 284 330 284 292 284 c 0,46,36
 215 284 215 284 215 218 c 0,37,38
EndSplineSet
Substitution2: "<21,0> Lower Case Numbers lookup 10 subtable" eight.osf
Substitution2: "<6,0> Monospaced Numbers lookup 9 subtable" eight.tf
Substitution2: "<11,2> Diagonal Fractions lookup 4 subtable" eight.numr
Substitution2: "<10,1> Superiors lookup 2 subtable" uni2078
Substitution2: "<10,2> Inferiors lookup 1 subtable" uni2088
EndChar

StartChar: nine
Encoding: 57 57 29
Width: 626
Flags: W
LayerCount: 2
Fore
SplineSet
234 160 m 0,1,2
 301 160 301 160 335 193.5 c 128,-1,3
 369 227 369 227 369 292 c 1,4,5
 316 234 316 234 226 234 c 0,6,7
 160 234 160 234 110.5 263 c 128,-1,8
 61 292 61 292 33.5 345 c 128,-1,9
 6 398 6 398 6 466 c 0,10,11
 6 540 6 540 39 595.5 c 128,-1,12
 72 651 72 651 132.5 681 c 128,-1,13
 193 711 193 711 272 711 c 0,14,15
 367 711 367 711 436 668 c 128,-1,16
 505 625 505 625 542 546 c 128,-1,17
 579 467 579 467 579 360 c 0,18,19
 579 249 579 249 538 165 c 128,-1,20
 497 81 497 81 422 35.5 c 128,-1,21
 347 -10 347 -10 247 -10 c 0,22,23
 185 -10 185 -10 122 7 c 128,-1,24
 59 24 59 24 14 52 c 1,25,-1
 98 206 l 1,26,0
 153 160 153 160 234 160 c 0,1,2
211 465 m 0,28,29
 211 395 211 395 278 395 c 0,30,31
 313 395 313 395 331 413.5 c 128,-1,32
 349 432 349 432 349 466 c 256,33,34
 349 500 349 500 331.5 518 c 128,-1,35
 314 536 314 536 279 536 c 0,36,27
 211 536 211 536 211 465 c 0,28,29
EndSplineSet
Substitution2: "<21,0> Lower Case Numbers lookup 10 subtable" nine.osf
Substitution2: "<6,0> Monospaced Numbers lookup 9 subtable" nine.tf
Substitution2: "<11,2> Diagonal Fractions lookup 4 subtable" nine.numr
Substitution2: "<10,1> Superiors lookup 2 subtable" uni2079
Substitution2: "<10,2> Inferiors lookup 1 subtable" uni2089
EndChar

StartChar: less
Encoding: 60 60 32
Width: 520
Flags: W
LayerCount: 2
Fore
SplineSet
490 597 m 1,0,-1
 490 441 l 1,1,-1
 174 323 l 1,2,-1
 490 205 l 1,3,-1
 490 49 l 1,4,-1
 30 234 l 1,5,-1
 30 412 l 1,6,-1
 490 597 l 1,0,-1
EndSplineSet
Substitution2: "'rtla' Right to Left Alternates in Latin lookup 0 subtable" greater
EndChar

StartChar: equal
Encoding: 61 61 33
Width: 520
Flags: W
LayerCount: 2
Fore
SplineSet
30 509 m 1,0,-1
 490 509 l 1,1,-1
 490 369 l 1,2,-1
 30 369 l 1,3,-1
 30 509 l 1,0,-1
30 289 m 1,4,-1
 490 289 l 1,5,-1
 490 149 l 1,6,-1
 30 149 l 1,7,-1
 30 289 l 1,4,-1
EndSplineSet
EndChar

StartChar: greater
Encoding: 62 62 34
Width: 520
Flags: W
LayerCount: 2
Fore
SplineSet
30 59 m 1,0,-1
 30 215 l 1,1,-1
 346 333 l 1,2,-1
 30 451 l 1,3,-1
 30 607 l 1,4,-1
 490 422 l 1,5,-1
 490 244 l 1,6,-1
 30 59 l 1,0,-1
EndSplineSet
Substitution2: "'rtla' Right to Left Alternates in Latin lookup 0 subtable" less
EndChar

StartChar: question
Encoding: 63 63 35
Width: 498
Flags: W
LayerCount: 2
Fore
SplineSet
86 643.5 m 128,-1,1
 151 711 151 711 268 711 c 0,2,3
 377 711 377 711 437.5 663 c 128,-1,4
 498 615 498 615 498 529 c 0,5,6
 498 477 498 477 473.5 441.5 c 128,-1,7
 449 406 449 406 403 365 c 0,8,9
 365 330 365 330 347 306 c 128,-1,10
 329 282 329 282 329 250 c 1,11,-1
 162 250 l 1,12,13
 162 290 162 290 173.5 320 c 128,-1,14
 185 350 185 350 200 369 c 128,-1,15
 215 388 215 388 240 413 c 0,16,17
 265 437 265 437 276.5 453.5 c 128,-1,18
 288 470 288 470 288 492 c 256,19,20
 288 514 288 514 278.5 524 c 128,-1,21
 269 534 269 534 247 534 c 0,22,23
 219 534 219 534 206 515 c 128,-1,24
 193 496 193 496 193 455 c 1,25,-1
 21 455 l 1,26,0
 21 576 21 576 86 643.5 c 128,-1,1
315.5 168.5 m 128,-1,28
 344 140 344 140 344 95 c 0,29,30
 344 49 344 49 315.5 20.5 c 128,-1,31
 287 -8 287 -8 241 -8 c 0,32,33
 196 -8 196 -8 167.5 20.5 c 128,-1,34
 139 49 139 49 139 95 c 0,35,36
 139 140 139 140 167.5 168.5 c 128,-1,37
 196 197 196 197 241 197 c 0,38,27
 287 197 287 197 315.5 168.5 c 128,-1,28
EndSplineSet
Substitution2: "<3,3> Small Caps in Latin lookup 11 subtable" question.sc
EndChar

StartChar: at
Encoding: 64 64 36
Width: 865
Flags: W
LayerCount: 2
Fore
SplineSet
648.5 132 m 128,-1,1
 656 122 656 122 671 122 c 0,2,3
 689 122 689 122 705.5 141.5 c 128,-1,4
 722 161 722 161 732.5 195.5 c 128,-1,5
 743 230 743 230 743 273 c 0,6,7
 743 365 743 365 707 439 c 128,-1,8
 671 513 671 513 602.5 556 c 128,-1,9
 534 599 534 599 439 599 c 0,10,11
 353 599 353 599 280.5 554.5 c 128,-1,12
 208 510 208 510 165.5 434 c 128,-1,13
 123 358 123 358 123 268 c 0,14,15
 123 180 123 180 163 108 c 128,-1,16
 203 36 203 36 272.5 -5 c 128,-1,17
 342 -46 342 -46 427 -46 c 0,18,19
 472 -46 472 -46 521.5 -30 c 128,-1,20
 571 -14 571 -14 611 17 c 1,21,-1
 662 -69 l 1,22,23
 620 -103 620 -103 553.5 -124 c 128,-1,24
 487 -145 487 -145 427 -145 c 0,25,26
 311 -145 311 -145 217 -91 c 128,-1,27
 123 -37 123 -37 69 57 c 128,-1,28
 15 151 15 151 15 268 c 0,29,30
 15 386 15 386 72 485 c 128,-1,31
 129 584 129 584 226 641 c 128,-1,32
 323 698 323 698 439 698 c 256,33,34
 555 698 555 698 648.5 643 c 128,-1,35
 742 588 742 588 796 492 c 128,-1,36
 850 396 850 396 850 276 c 0,37,38
 850 204 850 204 825.5 148.5 c 128,-1,39
 801 93 801 93 757 63 c 128,-1,40
 713 33 713 33 658 33 c 0,41,42
 561 33 561 33 540 107 c 2,43,-1
 538 114 l 1,44,45
 512 77 512 77 477.5 60 c 128,-1,46
 443 43 443 43 406 43 c 0,47,48
 353 43 353 43 305.5 71.5 c 128,-1,49
 258 100 258 100 228.5 152.5 c 128,-1,50
 199 205 199 205 199 271 c 0,51,52
 199 334 199 334 222.5 387 c 128,-1,53
 246 440 246 440 290 471.5 c 128,-1,54
 334 503 334 503 391 503 c 0,55,56
 423 503 423 503 448.5 491 c 128,-1,57
 474 479 474 479 490 465.5 c 128,-1,58
 506 452 506 452 506 450 c 1,59,-1
 506 491 l 1,60,-1
 641 491 l 1,61,-1
 641 166 l 2,62,0
 641 142 641 142 648.5 132 c 128,-1,1
367 349 m 128,-1,64
 347 319 347 319 347 276 c 0,65,66
 347 230 347 230 367 197 c 128,-1,67
 387 164 387 164 420 164 c 0,68,69
 456 164 456 164 476.5 196 c 128,-1,70
 497 228 497 228 497 275 c 0,71,72
 497 320 497 320 476 349.5 c 128,-1,73
 455 379 455 379 419 379 c 0,74,63
 387 379 387 379 367 349 c 128,-1,64
EndSplineSet
EndChar

StartChar: A
Encoding: 65 65 37
Width: 799
Flags: W
LayerCount: 2
Fore
SplineSet
562 0 m 1,0,-1
 527 99 l 1,1,-1
 264 99 l 1,2,-1
 228 0 l 1,3,-1
 -10 0 l 1,4,-1
 286 701 l 1,5,-1
 524 701 l 1,6,-1
 809 0 l 1,7,-1
 562 0 l 1,0,-1
324 265 m 1,8,-1
 470 265 l 1,9,-1
 398 470 l 1,10,-1
 324 265 l 1,8,-1
EndSplineSet
Substitution2: "<11,2> Diagonal Fractions lookup 7 nested-substitutions 0 subtable" ordfeminine
Substitution2: "<11,2> Diagonal Fractions lookup 5 nested-substitutions 0 subtable" ordfeminine
EndChar

StartChar: B
Encoding: 66 66 38
Width: 724
Flags: W
LayerCount: 2
Fore
SplineSet
552 679 m 128,-1,1
 615 657 615 657 649 617 c 128,-1,2
 683 577 683 577 683 524 c 0,3,4
 683 472 683 472 651 431 c 128,-1,5
 619 390 619 390 565 374 c 1,6,7
 628 360 628 360 666 311.5 c 128,-1,8
 704 263 704 263 704 197 c 0,9,10
 704 138 704 138 669 93 c 128,-1,11
 634 48 634 48 570.5 24 c 128,-1,12
 507 0 507 0 422 0 c 2,13,-1
 50 0 l 1,14,-1
 50 701 l 1,15,-1
 405 701 l 2,16,0
 489 701 489 701 552 679 c 128,-1,1
430.5 445 m 128,-1,18
 445 459 445 459 445 482 c 0,19,20
 445 504 445 504 430.5 517.5 c 128,-1,21
 416 531 416 531 392 531 c 2,22,-1
 281 531 l 1,23,-1
 281 431 l 1,24,-1
 392 431 l 2,25,17
 416 431 416 431 430.5 445 c 128,-1,18
443.5 185.5 m 128,-1,27
 463 201 463 201 463 226 c 0,28,29
 463 249 463 249 443.5 263 c 128,-1,30
 424 277 424 277 392 277 c 2,31,-1
 281 277 l 1,32,-1
 281 170 l 1,33,-1
 392 170 l 2,34,26
 424 170 424 170 443.5 185.5 c 128,-1,27
EndSplineSet
EndChar

StartChar: C
Encoding: 67 67 39
Width: 688
Flags: W
LayerCount: 2
Fore
SplineSet
482.5 496.5 m 128,-1,1
 439 523 439 523 398 523 c 256,2,3
 357 523 357 523 323.5 501.5 c 128,-1,4
 290 480 290 480 271.5 442 c 128,-1,5
 253 404 253 404 253 356 c 256,6,7
 253 308 253 308 271.5 269.5 c 128,-1,8
 290 231 290 231 323.5 209 c 128,-1,9
 357 187 357 187 398 187 c 0,10,11
 436 187 436 187 479.5 209.5 c 128,-1,12
 523 232 523 232 557 269 c 1,13,-1
 691 126 l 1,14,15
 632 61 632 61 549.5 22.5 c 128,-1,16
 467 -16 467 -16 386 -16 c 0,17,18
 280 -16 280 -16 195.5 31.5 c 128,-1,19
 111 79 111 79 63 163.5 c 128,-1,20
 15 248 15 248 15 353 c 0,21,22
 15 457 15 457 64 539.5 c 128,-1,23
 113 622 113 622 199.5 669 c 128,-1,24
 286 716 286 716 395 716 c 0,25,26
 475 716 475 716 556 680.5 c 128,-1,27
 637 645 637 645 691 586 c 1,28,-1
 557 427 l 1,29,0
 526 470 526 470 482.5 496.5 c 128,-1,1
EndSplineSet
EndChar

StartChar: D
Encoding: 68 68 40
Width: 759
Flags: W
LayerCount: 2
Fore
SplineSet
564 658 m 128,-1,1
 650 615 650 615 697 535.5 c 128,-1,2
 744 456 744 456 744 351 c 0,3,4
 744 245 744 245 696 166 c 128,-1,5
 648 87 648 87 559.5 43.5 c 128,-1,6
 471 0 471 0 354 0 c 2,7,-1
 50 0 l 1,8,-1
 50 701 l 1,9,-1
 363 701 l 2,10,0
 478 701 478 701 564 658 c 128,-1,1
469.5 226 m 128,-1,12
 507 272 507 272 507 349 c 0,13,14
 507 427 507 427 466.5 474 c 128,-1,15
 426 521 426 521 358 521 c 2,16,-1
 282 521 l 1,17,-1
 282 180 l 1,18,-1
 369 180 l 2,19,11
 432 180 432 180 469.5 226 c 128,-1,12
EndSplineSet
EndChar

StartChar: E
Encoding: 69 69 41
Width: 690
Flags: W
LayerCount: 2
Fore
SplineSet
50 701 m 1,0,-1
 643 701 l 1,1,-1
 643 525 l 1,2,-1
 282 525 l 1,3,-1
 282 439 l 1,4,-1
 610 439 l 1,5,-1
 610 263 l 1,6,-1
 282 263 l 1,7,-1
 282 176 l 1,8,-1
 652 176 l 1,9,-1
 652 0 l 1,10,-1
 50 0 l 1,11,-1
 50 701 l 1,0,-1
EndSplineSet
EndChar

StartChar: F
Encoding: 70 70 42
Width: 631
Flags: W
LayerCount: 2
Fore
SplineSet
50 701 m 1,0,-1
 614 701 l 1,1,-1
 614 525 l 1,2,-1
 282 525 l 1,3,-1
 282 404 l 1,4,-1
 593 404 l 1,5,-1
 593 228 l 1,6,-1
 282 228 l 1,7,-1
 282 0 l 1,8,-1
 50 0 l 1,9,-1
 50 701 l 1,0,-1
EndSplineSet
EndChar

StartChar: G
Encoding: 71 71 43
Width: 738
Flags: W
LayerCount: 2
Fore
SplineSet
409 404 m 1,0,-1
 713 404 l 1,1,-1
 713 76 l 1,2,3
 654 36 654 36 562 10 c 128,-1,4
 470 -16 470 -16 395 -16 c 0,5,6
 286 -16 286 -16 199.5 31.5 c 128,-1,7
 113 79 113 79 64 162.5 c 128,-1,8
 15 246 15 246 15 351 c 0,9,10
 15 455 15 455 66 538.5 c 128,-1,11
 117 622 117 622 207 669 c 128,-1,12
 297 716 297 716 410 716 c 0,13,14
 492 716 492 716 569 686 c 128,-1,15
 646 656 646 656 702 606 c 1,16,-1
 571 447 l 1,17,18
 536 482 536 482 494 502.5 c 128,-1,19
 452 523 452 523 409 523 c 0,20,21
 365 523 365 523 329 500.5 c 128,-1,22
 293 478 293 478 273 439 c 128,-1,23
 253 400 253 400 253 351 c 0,24,25
 253 301 253 301 273.5 261.5 c 128,-1,26
 294 222 294 222 330 199.5 c 128,-1,27
 366 177 366 177 411 177 c 0,28,29
 449 177 449 177 503 201 c 1,30,-1
 503 244 l 1,31,-1
 409 244 l 1,32,-1
 409 404 l 1,0,-1
EndSplineSet
EndChar

StartChar: H
Encoding: 72 72 44
Width: 781
Flags: W
LayerCount: 2
Fore
SplineSet
50 701 m 1,0,-1
 282 701 l 1,1,-1
 282 429 l 1,2,-1
 499 429 l 1,3,-1
 499 701 l 1,4,-1
 731 701 l 1,5,-1
 731 0 l 1,6,-1
 499 0 l 1,7,-1
 499 253 l 1,8,-1
 282 253 l 1,9,-1
 282 0 l 1,10,-1
 50 0 l 1,11,-1
 50 701 l 1,0,-1
EndSplineSet
EndChar

StartChar: I
Encoding: 73 73 45
Width: 332
Flags: W
LayerCount: 2
Fore
SplineSet
50 701 m 1,0,-1
 282 701 l 1,1,-1
 282 0 l 1,2,-1
 50 0 l 1,3,-1
 50 701 l 1,0,-1
EndSplineSet
EndChar

StartChar: J
Encoding: 74 74 46
Width: 569
Flags: W
LayerCount: 2
Fore
SplineSet
458 55 m 128,-1,1
 387 -10 387 -10 265 -10 c 0,2,3
 103 -10 103 -10 -8 112 c 1,4,-1
 97 262 l 1,5,6
 136 223 136 223 175.5 203 c 128,-1,7
 215 183 215 183 243 183 c 0,8,9
 268 183 268 183 282 198 c 128,-1,10
 296 213 296 213 296 242 c 2,11,-1
 296 518 l 1,12,-1
 58 518 l 1,13,-1
 58 701 l 1,14,-1
 529 701 l 1,15,-1
 529 237 l 2,16,0
 529 120 529 120 458 55 c 128,-1,1
EndSplineSet
EndChar

StartChar: K
Encoding: 75 75 47
Width: 773
Flags: W
LayerCount: 2
Fore
SplineSet
773 0 m 1,0,-1
 496 0 l 1,1,-1
 348 244 l 1,2,-1
 282 170 l 1,3,-1
 282 0 l 1,4,-1
 50 0 l 1,5,-1
 50 701 l 1,6,-1
 282 701 l 1,7,-1
 282 445 l 1,8,-1
 491 701 l 1,9,-1
 758 701 l 1,10,-1
 507 421 l 1,11,-1
 773 0 l 1,0,-1
EndSplineSet
EndChar

StartChar: L
Encoding: 76 76 48
Width: 584
Flags: W
LayerCount: 2
Fore
SplineSet
50 701 m 1,0,-1
 282 701 l 1,1,-1
 282 193 l 1,2,-1
 574 193 l 1,3,-1
 574 0 l 1,4,-1
 50 0 l 1,5,-1
 50 701 l 1,0,-1
EndSplineSet
EndChar

StartChar: M
Encoding: 77 77 49
Width: 939
Flags: W
LayerCount: 2
Fore
SplineSet
50 701 m 1,0,-1
 296 701 l 1,1,-1
 470 335 l 1,2,-1
 643 701 l 1,3,-1
 889 701 l 1,4,-1
 889 0 l 1,5,-1
 686 0 l 1,6,-1
 686 384 l 1,7,-1
 545 68 l 1,8,-1
 394 68 l 1,9,-1
 253 384 l 1,10,-1
 253 0 l 1,11,-1
 50 0 l 1,12,-1
 50 701 l 1,0,-1
EndSplineSet
EndChar

StartChar: N
Encoding: 78 78 50
Width: 781
Flags: W
LayerCount: 2
Fore
SplineSet
521 701 m 1,0,-1
 731 701 l 1,1,-1
 731 0 l 1,2,-1
 537 0 l 1,3,-1
 261 358 l 1,4,-1
 261 0 l 1,5,-1
 50 0 l 1,6,-1
 50 701 l 1,7,-1
 244 701 l 1,8,-1
 521 341 l 1,9,-1
 521 701 l 1,0,-1
EndSplineSet
EndChar

StartChar: O
Encoding: 79 79 51
Width: 800
Flags: W
LayerCount: 2
Fore
SplineSet
598 669 m 128,-1,1
 686 622 686 622 735.5 539 c 128,-1,2
 785 456 785 456 785 352 c 0,3,4
 785 247 785 247 735.5 163 c 128,-1,5
 686 79 686 79 598 31.5 c 128,-1,6
 510 -16 510 -16 400 -16 c 256,7,8
 290 -16 290 -16 202 31.5 c 128,-1,9
 114 79 114 79 64.5 163 c 128,-1,10
 15 247 15 247 15 352 c 256,11,12
 15 457 15 457 64.5 540 c 128,-1,13
 114 623 114 623 202 669.5 c 128,-1,14
 290 716 290 716 400 716 c 256,15,0
 510 716 510 716 598 669 c 128,-1,1
328.5 500.5 m 128,-1,17
 294 478 294 478 273.5 439 c 128,-1,18
 253 400 253 400 253 351 c 256,19,20
 253 302 253 302 273.5 262.5 c 128,-1,21
 294 223 294 223 328.5 200 c 128,-1,22
 363 177 363 177 403 177 c 256,23,24
 443 177 443 177 476 199.5 c 128,-1,25
 509 222 509 222 528 262 c 128,-1,26
 547 302 547 302 547 351 c 256,27,28
 547 400 547 400 528 439.5 c 128,-1,29
 509 479 509 479 476 501 c 128,-1,30
 443 523 443 523 403 523 c 256,31,16
 363 523 363 523 328.5 500.5 c 128,-1,17
EndSplineSet
Substitution2: "<11,2> Diagonal Fractions lookup 7 nested-substitutions 0 subtable" ordmasculine
Substitution2: "<11,2> Diagonal Fractions lookup 5 nested-substitutions 0 subtable" ordmasculine
EndChar

StartChar: P
Encoding: 80 80 52
Width: 686
Flags: W
LayerCount: 2
Fore
SplineSet
591 635.5 m 128,-1,1
 666 570 666 570 666 450 c 0,2,3
 666 323 666 323 591 252.5 c 128,-1,4
 516 182 516 182 379 182 c 2,5,-1
 282 182 l 1,6,-1
 282 0 l 1,7,-1
 50 0 l 1,8,-1
 50 701 l 1,9,-1
 379 701 l 2,10,0
 516 701 516 701 591 635.5 c 128,-1,1
425.5 380.5 m 128,-1,12
 446 403 446 403 446 443 c 0,13,14
 446 482 446 482 425.5 503.5 c 128,-1,15
 405 525 405 525 367 525 c 2,16,-1
 282 525 l 1,17,-1
 282 358 l 1,18,-1
 367 358 l 2,19,11
 405 358 405 358 425.5 380.5 c 128,-1,12
EndSplineSet
EndChar

StartChar: Q
Encoding: 81 81 53
Width: 801
Flags: W
LayerCount: 2
Fore
SplineSet
815 -99 m 1,0,1
 775 -134 775 -134 715.5 -155.5 c 128,-1,2
 656 -177 656 -177 601 -177 c 0,3,4
 524 -177 524 -177 464 -133.5 c 128,-1,5
 404 -90 404 -90 375 -15 c 1,6,7
 271 -10 271 -10 189 39 c 128,-1,8
 107 88 107 88 61 169.5 c 128,-1,9
 15 251 15 251 15 352 c 0,10,11
 15 457 15 457 64.5 540 c 128,-1,12
 114 623 114 623 202 669.5 c 128,-1,13
 290 716 290 716 400 716 c 256,14,15
 510 716 510 716 598 669 c 128,-1,16
 686 622 686 622 735.5 539 c 128,-1,17
 785 456 785 456 785 352 c 0,18,19
 785 239 785 239 727.5 150.5 c 128,-1,20
 670 62 670 62 571 19 c 1,21,22
 595 -10 595 -10 626 -10 c 0,23,24
 647 -10 647 -10 677.5 3 c 128,-1,25
 708 16 708 16 738 38 c 1,26,-1
 815 -99 l 1,0,1
273.5 262.5 m 128,-1,28
 294 223 294 223 328.5 200 c 128,-1,29
 363 177 363 177 403 177 c 256,30,31
 443 177 443 177 476 199.5 c 128,-1,32
 509 222 509 222 528 262 c 128,-1,33
 547 302 547 302 547 351 c 256,34,35
 547 400 547 400 528 439.5 c 128,-1,36
 509 479 509 479 476 501 c 128,-1,37
 443 523 443 523 403 523 c 256,38,39
 363 523 363 523 328.5 500.5 c 128,-1,40
 294 478 294 478 273.5 439 c 128,-1,41
 253 400 253 400 253 351 c 256,42,27
 253 302 253 302 273.5 262.5 c 128,-1,28
EndSplineSet
EndChar

StartChar: R
Encoding: 82 82 54
Width: 725
Flags: W
LayerCount: 2
Fore
SplineSet
453 0 m 1,0,-1
 369 182 l 1,1,-1
 282 182 l 1,2,-1
 282 0 l 1,3,-1
 50 0 l 1,4,-1
 50 701 l 1,5,-1
 389 701 l 2,6,7
 532 701 532 701 610 635.5 c 128,-1,8
 688 570 688 570 688 450 c 0,9,10
 688 374 688 374 659.5 317.5 c 128,-1,11
 631 261 631 261 577 228 c 1,12,-1
 715 0 l 1,13,-1
 453 0 l 1,0,-1
282 358 m 1,14,-1
 389 358 l 2,15,16
 427 358 427 358 447.5 380.5 c 128,-1,17
 468 403 468 403 468 443 c 0,18,19
 468 482 468 482 447.5 503.5 c 128,-1,20
 427 525 427 525 389 525 c 2,21,-1
 282 525 l 1,22,-1
 282 358 l 1,14,-1
EndSplineSet
EndChar

StartChar: S
Encoding: 83 83 55
Width: 664
Flags: W
LayerCount: 2
Fore
SplineSet
448 516 m 128,-1,1
 378 541 378 541 334 541 c 0,2,3
 291 541 291 541 291 510 c 0,4,5
 291 486 291 486 318.5 473 c 128,-1,6
 346 460 346 460 406 444 c 0,7,8
 481 423 481 423 530.5 402 c 128,-1,9
 580 381 580 381 617 335.5 c 128,-1,10
 654 290 654 290 654 216 c 0,11,12
 654 140 654 140 614.5 88.5 c 128,-1,13
 575 37 575 37 508 12 c 128,-1,14
 441 -13 441 -13 359 -13 c 0,15,16
 266 -13 266 -13 171.5 17.5 c 128,-1,17
 77 48 77 48 8 101 c 1,18,-1
 94 276 l 1,19,20
 147 230 147 230 227 197.5 c 128,-1,21
 307 165 307 165 361 165 c 0,22,23
 387 165 387 165 402 174.5 c 128,-1,24
 417 184 417 184 417 204 c 0,25,26
 417 228 417 228 388.5 241.5 c 128,-1,27
 360 255 360 255 299 270 c 0,28,29
 225 289 225 289 175.5 309.5 c 128,-1,30
 126 330 126 330 90 373 c 128,-1,31
 54 416 54 416 54 488 c 0,32,33
 54 558 54 558 91 610.5 c 128,-1,34
 128 663 128 663 196 691 c 128,-1,35
 264 719 264 719 354 719 c 0,36,37
 436 719 436 719 517.5 696 c 128,-1,38
 599 673 599 673 659 635 c 1,39,-1
 575 458 l 1,40,0
 518 491 518 491 448 516 c 128,-1,1
EndSplineSet
EndChar

StartChar: T
Encoding: 84 84 56
Width: 641
Flags: W
LayerCount: 2
Fore
SplineSet
5 701 m 1,0,-1
 636 701 l 1,1,-1
 636 518 l 1,2,-1
 436 518 l 1,3,-1
 436 0 l 1,4,-1
 204 0 l 1,5,-1
 204 518 l 1,6,-1
 5 518 l 1,7,-1
 5 701 l 1,0,-1
EndSplineSet
EndChar

StartChar: U
Encoding: 85 85 57
Width: 741
Flags: W
LayerCount: 2
Fore
SplineSet
302 209 m 128,-1,1
 332 177 332 177 374 177 c 0,2,3
 415 177 415 177 442 208.5 c 128,-1,4
 469 240 469 240 469 291 c 2,5,-1
 469 701 l 1,6,-1
 701 701 l 1,7,-1
 701 291 l 2,8,9
 701 199 701 199 660.5 129.5 c 128,-1,10
 620 60 620 60 546 22 c 128,-1,11
 472 -16 472 -16 373 -16 c 256,12,13
 274 -16 274 -16 198.5 22 c 128,-1,14
 123 60 123 60 81.5 129.5 c 128,-1,15
 40 199 40 199 40 291 c 2,16,-1
 40 701 l 1,17,-1
 272 701 l 1,18,-1
 272 291 l 2,19,0
 272 241 272 241 302 209 c 128,-1,1
EndSplineSet
EndChar

StartChar: V
Encoding: 86 86 58
Width: 764
Flags: W
LayerCount: 2
Fore
SplineSet
-5 701 m 1,0,-1
 243 701 l 1,1,-1
 388 241 l 1,2,-1
 532 701 l 1,3,-1
 769 701 l 1,4,-1
 501 0 l 1,5,-1
 261 0 l 1,6,-1
 -5 701 l 1,0,-1
EndSplineSet
EndChar

StartChar: W
Encoding: 87 87 59
Width: 1151
Flags: W
LayerCount: 2
Fore
SplineSet
919 701 m 1,0,-1
 1156 701 l 1,1,-1
 919 0 l 1,2,-1
 681 0 l 1,3,-1
 576 419 l 1,4,-1
 468 0 l 1,5,-1
 230 0 l 1,6,-1
 -5 701 l 1,7,-1
 243 701 l 1,8,-1
 356 241 l 1,9,-1
 468 701 l 1,10,-1
 694 701 l 1,11,-1
 808 241 l 1,12,-1
 919 701 l 1,0,-1
EndSplineSet
EndChar

StartChar: X
Encoding: 88 88 60
Width: 773
Flags: W
LayerCount: 2
Fore
SplineSet
10 701 m 1,0,-1
 280 701 l 1,1,-1
 382 536 l 1,2,-1
 484 701 l 1,3,-1
 757 701 l 1,4,-1
 530 367 l 1,5,-1
 778 0 l 1,6,-1
 500 0 l 1,7,-1
 382 181 l 1,8,-1
 266 0 l 1,9,-1
 -5 0 l 1,10,-1
 241 356 l 1,11,-1
 10 701 l 1,0,-1
EndSplineSet
EndChar

StartChar: Y
Encoding: 89 89 61
Width: 719
Flags: W
LayerCount: 2
Fore
SplineSet
729 701 m 1,0,-1
 478 218 l 1,1,-1
 478 0 l 1,2,-1
 246 0 l 1,3,-1
 246 213 l 1,4,-1
 -10 701 l 1,5,-1
 221 701 l 1,6,-1
 362 431 l 1,7,-1
 498 701 l 1,8,-1
 729 701 l 1,0,-1
EndSplineSet
EndChar

StartChar: Z
Encoding: 90 90 62
Width: 683
Flags: W
LayerCount: 2
Fore
SplineSet
32 701 m 1,0,-1
 656 701 l 1,1,-1
 656 556 l 1,2,-1
 329 178 l 1,3,-1
 663 178 l 1,4,-1
 663 0 l 1,5,-1
 20 0 l 1,6,-1
 20 145 l 1,7,-1
 347 523 l 1,8,-1
 32 523 l 1,9,-1
 32 701 l 1,0,-1
EndSplineSet
EndChar

StartChar: bracketleft
Encoding: 91 91 63
Width: 381
Flags: W
LayerCount: 2
Fore
SplineSet
54 742 m 1,0,-1
 371 742 l 1,1,-1
 371 576 l 1,2,-1
 254 576 l 1,3,-1
 254 42 l 1,4,-1
 371 42 l 1,5,-1
 371 -124 l 1,6,-1
 54 -124 l 1,7,-1
 54 742 l 1,0,-1
EndSplineSet
Substitution2: "'rtla' Right to Left Alternates in Latin lookup 0 subtable" bracketright
EndChar

StartChar: backslash
Encoding: 92 92 64
Width: 373
Flags: W
LayerCount: 2
Fore
SplineSet
94 806 m 1,0,-1
 423 -104 l 1,1,-1
 235 -104 l 1,2,-1
 -94 806 l 1,3,-1
 94 806 l 1,0,-1
EndSplineSet
EndChar

StartChar: bracketright
Encoding: 93 93 65
Width: 381
Flags: W
LayerCount: 2
Fore
SplineSet
327 742 m 1,0,-1
 327 -124 l 1,1,-1
 10 -124 l 1,2,-1
 10 42 l 1,3,-1
 127 42 l 1,4,-1
 127 576 l 1,5,-1
 10 576 l 1,6,-1
 10 742 l 1,7,-1
 327 742 l 1,0,-1
EndSplineSet
Substitution2: "'rtla' Right to Left Alternates in Latin lookup 0 subtable" bracketleft
EndChar

StartChar: asciicircum
Encoding: 94 94 66
Width: 608
Flags: W
LayerCount: 2
Fore
SplineSet
578 143 m 1,0,-1
 422 143 l 1,1,-1
 304 404 l 1,2,-1
 186 143 l 1,3,-1
 30 143 l 1,4,-1
 215 523 l 1,5,-1
 393 523 l 1,6,-1
 578 143 l 1,0,-1
EndSplineSet
EndChar

StartChar: underscore
Encoding: 95 95 67
Width: 599
Flags: W
LayerCount: 2
Fore
SplineSet
0 -84 m 1,0,-1
 599 -84 l 1,1,-1
 599 -204 l 1,2,-1
 0 -204 l 1,3,-1
 0 -84 l 1,0,-1
EndSplineSet
EndChar

StartChar: a
Encoding: 97 97 69
Width: 613
Flags: W
LayerCount: 2
Fore
SplineSet
506.5 503.5 m 128,-1,1
 573 450 573 450 573 354 c 2,2,-1
 573 0 l 1,3,-1
 352 0 l 1,4,-1
 352 59 l 1,5,6
 302 -10 302 -10 198 -10 c 0,7,8
 112 -10 112 -10 63.5 36.5 c 128,-1,9
 15 83 15 83 15 162 c 0,10,11
 15 243 15 243 69 285 c 128,-1,12
 123 327 123 327 227 329 c 2,13,-1
 352 329 l 1,14,15
 351 358 351 358 329.5 373.5 c 128,-1,16
 308 389 308 389 267 389 c 0,17,18
 235 389 235 389 190.5 380 c 128,-1,19
 146 371 146 371 101 354 c 1,20,-1
 51 504 l 1,21,22
 121 530 121 530 190.5 543.5 c 128,-1,23
 260 557 260 557 321 557 c 0,24,0
 440 557 440 557 506.5 503.5 c 128,-1,1
318.5 144 m 128,-1,26
 339 155 339 155 352 175 c 1,27,-1
 352 225 l 1,28,-1
 274 225 l 2,29,30
 226 225 226 225 226 181 c 0,31,32
 226 158 226 158 239 145.5 c 128,-1,33
 252 133 252 133 276 133 c 0,34,25
 298 133 298 133 318.5 144 c 128,-1,26
EndSplineSet
Substitution2: "<3,3> Small Caps in Latin lookup 11 subtable" a.sc
Substitution2: "<11,2> Diagonal Fractions lookup 7 nested-substitutions 0 subtable" ordfeminine
Substitution2: "<11,2> Diagonal Fractions lookup 5 nested-substitutions 0 subtable" ordfeminine
EndChar

StartChar: b
Encoding: 98 98 70
Width: 690
Flags: W
LayerCount: 2
Fore
SplineSet
556 520 m 128,-1,1
 613 485 613 485 644 420.5 c 128,-1,2
 675 356 675 356 675 270 c 0,3,4
 675 186 675 186 645 123 c 128,-1,5
 615 60 615 60 559.5 26 c 128,-1,6
 504 -8 504 -8 430 -8 c 0,7,8
 386 -8 386 -8 349 8.5 c 128,-1,9
 312 25 312 25 285 56 c 1,10,-1
 285 0 l 1,11,-1
 60 0 l 1,12,-1
 60 742 l 1,13,-1
 285 742 l 1,14,-1
 285 492 l 1,15,16
 339 555 339 555 424 555 c 0,17,0
 499 555 499 555 556 520 c 128,-1,1
425.5 199 m 128,-1,19
 448 228 448 228 448 276 c 256,20,21
 448 324 448 324 425.5 353 c 128,-1,22
 403 382 403 382 366 382 c 256,23,24
 329 382 329 382 307 353 c 128,-1,25
 285 324 285 324 285 276 c 256,26,27
 285 228 285 228 307 199 c 128,-1,28
 329 170 329 170 366 170 c 256,29,18
 403 170 403 170 425.5 199 c 128,-1,19
EndSplineSet
Substitution2: "<3,3> Small Caps in Latin lookup 11 subtable" b.sc
EndChar

StartChar: c
Encoding: 99 99 71
Width: 561
Flags: W
LayerCount: 2
Fore
SplineSet
314 373 m 0,1,2
 281 373 281 373 261.5 345.5 c 128,-1,3
 242 318 242 318 242 272 c 0,4,5
 242 225 242 225 261.5 197.5 c 128,-1,6
 281 170 281 170 314 170 c 0,7,8
 364 170 364 170 381 229 c 1,9,-1
 563 145 l 1,10,11
 533 72 533 72 464.5 32 c 128,-1,12
 396 -8 396 -8 302 -8 c 0,13,14
 216 -8 216 -8 151 26.5 c 128,-1,15
 86 61 86 61 50.5 124 c 128,-1,16
 15 187 15 187 15 271 c 0,17,18
 15 356 15 356 50.5 420.5 c 128,-1,19
 86 485 86 485 151.5 520 c 128,-1,20
 217 555 217 555 304 555 c 0,21,22
 393 555 393 555 461 513.5 c 128,-1,23
 529 472 529 472 563 397 c 1,24,-1
 384 321 l 1,25,0
 362 373 362 373 314 373 c 0,1,2
EndSplineSet
Substitution2: "<3,3> Small Caps in Latin lookup 11 subtable" c.sc
EndChar

StartChar: d
Encoding: 100 100 72
Width: 690
Flags: W
LayerCount: 2
Fore
SplineSet
630 742 m 1,0,-1
 630 0 l 1,1,-1
 405 0 l 1,2,-1
 405 55 l 1,3,4
 351 -8 351 -8 266 -8 c 0,5,6
 191 -8 191 -8 134 27 c 128,-1,7
 77 62 77 62 46 126.5 c 128,-1,8
 15 191 15 191 15 277 c 0,9,10
 15 361 15 361 45 424 c 128,-1,11
 75 487 75 487 130.5 521 c 128,-1,12
 186 555 186 555 260 555 c 0,13,14
 304 555 304 555 341 538.5 c 128,-1,15
 378 522 378 522 405 491 c 1,16,-1
 405 742 l 1,17,-1
 630 742 l 1,0,-1
383 194 m 128,-1,19
 405 223 405 223 405 271 c 256,20,21
 405 319 405 319 383 348 c 128,-1,22
 361 377 361 377 324 377 c 256,23,24
 287 377 287 377 264.5 348 c 128,-1,25
 242 319 242 319 242 271 c 256,26,27
 242 223 242 223 264.5 194 c 128,-1,28
 287 165 287 165 324 165 c 256,29,18
 361 165 361 165 383 194 c 128,-1,19
EndSplineSet
Substitution2: "<3,3> Small Caps in Latin lookup 11 subtable" d.sc
EndChar

StartChar: e
Encoding: 101 101 73
Width: 614
Flags: W
LayerCount: 2
Fore
SplineSet
463 518 m 128,-1,1
 529 481 529 481 564 412.5 c 128,-1,2
 599 344 599 344 599 252 c 0,3,4
 599 233 599 233 598 223 c 1,5,-1
 242 223 l 1,6,7
 253 191 253 191 276.5 174.5 c 128,-1,8
 300 158 300 158 333 158 c 0,9,10
 392 158 392 158 444 207 c 1,11,-1
 561 92 l 1,12,13
 517 43 517 43 454.5 17.5 c 128,-1,14
 392 -8 392 -8 313 -8 c 0,15,16
 221 -8 221 -8 153.5 26.5 c 128,-1,17
 86 61 86 61 50.5 124 c 128,-1,18
 15 187 15 187 15 271 c 0,19,20
 15 357 15 357 51 421 c 128,-1,21
 87 485 87 485 153.5 520 c 128,-1,22
 220 555 220 555 307 555 c 0,23,0
 397 555 397 555 463 518 c 128,-1,1
356.5 383 m 128,-1,25
 338 405 338 405 309 405 c 0,26,27
 281 405 281 405 262.5 384 c 128,-1,28
 244 363 244 363 237 327 c 1,29,-1
 373 327 l 1,30,24
 375 361 375 361 356.5 383 c 128,-1,25
EndSplineSet
Substitution2: "<3,3> Small Caps in Latin lookup 11 subtable" e.sc
EndChar

StartChar: f
Encoding: 102 102 74
Width: 426
Flags: W
LayerCount: 2
Fore
SplineSet
332.5 565.5 m 128,-1,1
 319 553 319 553 319 532 c 2,2,-1
 319 517 l 1,3,-1
 425 517 l 1,4,-1
 425 375 l 1,5,-1
 319 375 l 1,6,-1
 319 0 l 1,7,-1
 95 0 l 1,8,-1
 95 375 l 1,9,-1
 20 375 l 1,10,-1
 20 517 l 1,11,-1
 95 517 l 1,12,-1
 95 566 l 2,13,14
 95 651 95 651 156 701.5 c 128,-1,15
 217 752 217 752 319 752 c 0,16,17
 386 752 386 752 449 733 c 1,18,-1
 427 567 l 1,19,20
 387 578 387 578 368 578 c 0,21,0
 346 578 346 578 332.5 565.5 c 128,-1,1
EndSplineSet
Substitution2: "<3,3> Small Caps in Latin lookup 11 subtable" f.sc
EndChar

StartChar: g
Encoding: 103 103 75
Width: 654
Flags: W
LayerCount: 2
Fore
SplineSet
601 547 m 1,0,-1
 601 45 l 2,1,2
 601 -30 601 -30 562.5 -86.5 c 128,-1,3
 524 -143 524 -143 454.5 -173.5 c 128,-1,4
 385 -204 385 -204 295 -204 c 0,5,6
 220 -204 220 -204 151.5 -184 c 128,-1,7
 83 -164 83 -164 37 -133 c 1,8,-1
 108 18 l 1,9,10
 143 -4 143 -4 189 -17 c 128,-1,11
 235 -30 235 -30 275 -30 c 0,12,13
 324 -30 324 -30 350.5 -11.5 c 128,-1,14
 377 7 377 7 377 39 c 2,15,-1
 377 91 l 1,16,17
 325 33 325 33 240 33 c 0,18,19
 176 33 176 33 124.5 65.5 c 128,-1,20
 73 98 73 98 44 158 c 128,-1,21
 15 218 15 218 15 297 c 0,22,23
 15 374 15 374 43 432.5 c 128,-1,24
 71 491 71 491 121.5 523 c 128,-1,25
 172 555 172 555 236 555 c 0,26,27
 324 555 324 555 377 496 c 1,28,-1
 377 547 l 1,29,-1
 601 547 l 1,0,-1
356 220 m 128,-1,31
 377 247 377 247 377 291 c 0,32,33
 377 336 377 336 356.5 363 c 128,-1,34
 336 390 336 390 301 390 c 256,35,36
 266 390 266 390 245.5 363 c 128,-1,37
 225 336 225 336 225 291 c 0,38,39
 225 247 225 247 246 220 c 128,-1,40
 267 193 267 193 301 193 c 256,41,30
 335 193 335 193 356 220 c 128,-1,31
EndSplineSet
Substitution2: "<3,3> Small Caps in Latin lookup 11 subtable" g.sc
EndChar

StartChar: h
Encoding: 104 104 76
Width: 687
Flags: W
LayerCount: 2
Fore
SplineSet
552.5 531 m 128,-1,1
 597 505 597 505 622 458 c 128,-1,2
 647 411 647 411 647 349 c 2,3,-1
 647 0 l 1,4,-1
 422 0 l 1,5,-1
 422 284 l 2,6,7
 422 318 422 318 404 338.5 c 128,-1,8
 386 359 386 359 357 359 c 0,9,10
 324 359 324 359 304.5 335 c 128,-1,11
 285 311 285 311 285 271 c 2,12,-1
 285 0 l 1,13,-1
 60 0 l 1,14,-1
 60 742 l 1,15,-1
 285 742 l 1,16,-1
 285 469 l 1,17,18
 313 512 313 512 355.5 534.5 c 128,-1,19
 398 557 398 557 451 557 c 0,20,0
 508 557 508 557 552.5 531 c 128,-1,1
EndSplineSet
Substitution2: "<3,3> Small Caps in Latin lookup 11 subtable" h.sc
EndChar

StartChar: k
Encoding: 107 107 79
Width: 662
Flags: W
LayerCount: 2
Fore
SplineSet
666 547 m 1,0,-1
 467 336 l 1,1,-1
 663 0 l 1,2,-1
 396 0 l 1,3,-1
 312 172 l 1,4,-1
 285 144 l 1,5,-1
 285 0 l 1,6,-1
 60 0 l 1,7,-1
 60 742 l 1,8,-1
 285 742 l 1,9,-1
 285 405 l 1,10,-1
 412 547 l 1,11,-1
 666 547 l 1,0,-1
EndSplineSet
Substitution2: "<3,3> Small Caps in Latin lookup 11 subtable" k.sc
EndChar

StartChar: l
Encoding: 108 108 80
Width: 345
Flags: W
LayerCount: 2
Fore
SplineSet
60 742 m 1,0,-1
 285 742 l 1,1,-1
 285 0 l 1,2,-1
 60 0 l 1,3,-1
 60 742 l 1,0,-1
EndSplineSet
Substitution2: "<3,3> Small Caps in Latin lookup 11 subtable" l.sc
EndChar

StartChar: m
Encoding: 109 109 81
Width: 1032
Flags: W
LayerCount: 2
Fore
SplineSet
899 531 m 128,-1,1
 943 505 943 505 967.5 458 c 128,-1,2
 992 411 992 411 992 349 c 2,3,-1
 992 0 l 1,4,-1
 767 0 l 1,5,-1
 767 284 l 2,6,7
 767 318 767 318 750 338.5 c 128,-1,8
 733 359 733 359 705 359 c 0,9,10
 674 359 674 359 655 335 c 128,-1,11
 636 311 636 311 636 271 c 2,12,-1
 636 0 l 1,13,-1
 411 0 l 1,14,-1
 411 284 l 2,15,16
 411 318 411 318 394 338.5 c 128,-1,17
 377 359 377 359 349 359 c 0,18,19
 318 359 318 359 299 335 c 128,-1,20
 280 311 280 311 280 271 c 2,21,-1
 280 0 l 1,22,-1
 55 0 l 1,23,-1
 55 547 l 1,24,-1
 280 547 l 1,25,-1
 280 470 l 1,26,27
 308 512 308 512 349.5 534.5 c 128,-1,28
 391 557 391 557 443 557 c 0,29,30
 505 557 505 557 551.5 526 c 128,-1,31
 598 495 598 495 620 440 c 1,32,33
 647 496 647 496 692.5 526.5 c 128,-1,34
 738 557 738 557 799 557 c 0,35,0
 855 557 855 557 899 531 c 128,-1,1
EndSplineSet
Substitution2: "<3,3> Small Caps in Latin lookup 11 subtable" m.sc
EndChar

StartChar: n
Encoding: 110 110 82
Width: 682
Flags: W
LayerCount: 2
Fore
SplineSet
547.5 531 m 128,-1,1
 592 505 592 505 617 458 c 128,-1,2
 642 411 642 411 642 349 c 2,3,-1
 642 0 l 1,4,-1
 417 0 l 1,5,-1
 417 284 l 2,6,7
 417 318 417 318 399 338.5 c 128,-1,8
 381 359 381 359 352 359 c 0,9,10
 319 359 319 359 299.5 335 c 128,-1,11
 280 311 280 311 280 271 c 2,12,-1
 280 0 l 1,13,-1
 55 0 l 1,14,-1
 55 547 l 1,15,-1
 280 547 l 1,16,-1
 280 469 l 1,17,18
 308 512 308 512 350.5 534.5 c 128,-1,19
 393 557 393 557 446 557 c 0,20,0
 503 557 503 557 547.5 531 c 128,-1,1
EndSplineSet
Substitution2: "<3,3> Small Caps in Latin lookup 11 subtable" n.sc
EndChar

StartChar: o
Encoding: 111 111 83
Width: 648
Flags: W
LayerCount: 2
Fore
SplineSet
487 520.5 m 128,-1,1
 557 486 557 486 595 422.5 c 128,-1,2
 633 359 633 359 633 274 c 256,3,4
 633 189 633 189 595 125.5 c 128,-1,5
 557 62 557 62 487 27 c 128,-1,6
 417 -8 417 -8 324 -8 c 256,7,8
 231 -8 231 -8 161 27 c 128,-1,9
 91 62 91 62 53 125.5 c 128,-1,10
 15 189 15 189 15 274 c 256,11,12
 15 359 15 359 53 422.5 c 128,-1,13
 91 486 91 486 161 520.5 c 128,-1,14
 231 555 231 555 324 555 c 256,15,0
 417 555 417 555 487 520.5 c 128,-1,1
264.5 348 m 128,-1,17
 242 319 242 319 242 271 c 256,18,19
 242 223 242 223 264.5 194 c 128,-1,20
 287 165 287 165 324 165 c 256,21,22
 361 165 361 165 383.5 194 c 128,-1,23
 406 223 406 223 406 271 c 256,24,25
 406 319 406 319 383.5 348 c 128,-1,26
 361 377 361 377 324 377 c 256,27,16
 287 377 287 377 264.5 348 c 128,-1,17
EndSplineSet
Substitution2: "<3,3> Small Caps in Latin lookup 11 subtable" o.sc
Substitution2: "<11,2> Diagonal Fractions lookup 7 nested-substitutions 0 subtable" ordmasculine
Substitution2: "<11,2> Diagonal Fractions lookup 5 nested-substitutions 0 subtable" ordmasculine
EndChar

StartChar: p
Encoding: 112 112 84
Width: 690
Flags: W
LayerCount: 2
Fore
SplineSet
556 520 m 128,-1,1
 613 485 613 485 644 420.5 c 128,-1,2
 675 356 675 356 675 270 c 0,3,4
 675 186 675 186 645 123 c 128,-1,5
 615 60 615 60 559.5 26 c 128,-1,6
 504 -8 504 -8 430 -8 c 0,7,8
 386 -8 386 -8 349 8.5 c 128,-1,9
 312 25 312 25 285 56 c 1,10,-1
 285 -194 l 1,11,-1
 60 -194 l 1,12,-1
 60 547 l 1,13,-1
 285 547 l 1,14,-1
 285 492 l 1,15,16
 339 555 339 555 424 555 c 0,17,0
 499 555 499 555 556 520 c 128,-1,1
425.5 199 m 128,-1,19
 448 228 448 228 448 276 c 256,20,21
 448 324 448 324 425.5 353 c 128,-1,22
 403 382 403 382 366 382 c 256,23,24
 329 382 329 382 307 353 c 128,-1,25
 285 324 285 324 285 276 c 256,26,27
 285 228 285 228 307 199 c 128,-1,28
 329 170 329 170 366 170 c 256,29,18
 403 170 403 170 425.5 199 c 128,-1,19
EndSplineSet
Substitution2: "<3,3> Small Caps in Latin lookup 11 subtable" p.sc
EndChar

StartChar: q
Encoding: 113 113 85
Width: 690
Flags: W
LayerCount: 2
Fore
SplineSet
630 547 m 1,0,-1
 630 -194 l 1,1,-1
 405 -194 l 1,2,-1
 405 55 l 1,3,4
 351 -8 351 -8 266 -8 c 0,5,6
 191 -8 191 -8 134 27 c 128,-1,7
 77 62 77 62 46 126.5 c 128,-1,8
 15 191 15 191 15 277 c 0,9,10
 15 361 15 361 45 424 c 128,-1,11
 75 487 75 487 130.5 521 c 128,-1,12
 186 555 186 555 260 555 c 0,13,14
 304 555 304 555 341 538.5 c 128,-1,15
 378 522 378 522 405 491 c 1,16,-1
 405 547 l 1,17,-1
 630 547 l 1,0,-1
383 194 m 128,-1,19
 405 223 405 223 405 271 c 256,20,21
 405 319 405 319 383 348 c 128,-1,22
 361 377 361 377 324 377 c 256,23,24
 287 377 287 377 264.5 348 c 128,-1,25
 242 319 242 319 242 271 c 256,26,27
 242 223 242 223 264.5 194 c 128,-1,28
 287 165 287 165 324 165 c 256,29,18
 361 165 361 165 383 194 c 128,-1,19
EndSplineSet
Substitution2: "<3,3> Small Caps in Latin lookup 11 subtable" q.sc
EndChar

StartChar: r
Encoding: 114 114 86
Width: 457
Flags: W
LayerCount: 2
Fore
SplineSet
351.5 533.5 m 128,-1,1
 394 557 394 557 447 557 c 1,2,-1
 447 354 l 1,3,4
 425 357 425 357 404 357 c 0,5,6
 346 357 346 357 313 331.5 c 128,-1,7
 280 306 280 306 280 261 c 2,8,-1
 280 0 l 1,9,-1
 55 0 l 1,10,-1
 55 547 l 1,11,-1
 280 547 l 1,12,-1
 280 467 l 1,13,0
 309 510 309 510 351.5 533.5 c 128,-1,1
EndSplineSet
Substitution2: "<3,3> Small Caps in Latin lookup 11 subtable" r.sc
EndChar

StartChar: s
Encoding: 115 115 87
Width: 552
Flags: W
LayerCount: 2
Fore
SplineSet
274 409 m 0,1,2
 260 409 260 409 251.5 404 c 128,-1,3
 243 399 243 399 243 391 c 0,4,5
 243 379 243 379 261 371 c 128,-1,6
 279 363 279 363 321 352 c 0,7,8
 380 336 380 336 422 319 c 128,-1,9
 464 302 464 302 495.5 267 c 128,-1,10
 527 232 527 232 527 176 c 256,11,12
 527 120 527 120 496.5 78 c 128,-1,13
 466 36 466 36 410 13 c 128,-1,14
 354 -10 354 -10 279 -10 c 0,15,16
 126 -10 126 -10 12 68 c 1,17,-1
 80 208 l 1,18,19
 190 140 190 140 282 140 c 0,20,21
 298 140 298 140 307 144.5 c 128,-1,22
 316 149 316 149 316 156 c 0,23,24
 316 167 316 167 298.5 174.5 c 128,-1,25
 281 182 281 182 242 192 c 0,26,27
 183 207 183 207 142 224 c 128,-1,28
 101 241 101 241 69.5 276 c 128,-1,29
 38 311 38 311 38 368 c 256,30,31
 38 425 38 425 68 467.5 c 128,-1,32
 98 510 98 510 152.5 533.5 c 128,-1,33
 207 557 207 557 279 557 c 0,34,35
 410 557 410 557 533 488 c 1,36,-1
 459 349 l 1,37,0
 337 409 337 409 274 409 c 0,1,2
EndSplineSet
Substitution2: "<3,3> Small Caps in Latin lookup 11 subtable" s.sc
EndChar

StartChar: t
Encoding: 116 116 88
Width: 460
Flags: W
LayerCount: 2
Fore
SplineSet
445 24 m 1,0,1
 418 8 418 8 374.5 -1 c 128,-1,2
 331 -10 331 -10 286 -10 c 0,3,4
 194 -10 194 -10 138.5 40.5 c 128,-1,5
 83 91 83 91 83 176 c 2,6,-1
 83 375 l 1,7,-1
 8 375 l 1,8,-1
 8 517 l 1,9,-1
 83 517 l 1,10,-1
 83 670 l 1,11,-1
 307 670 l 1,12,-1
 307 517 l 1,13,-1
 435 517 l 1,14,-1
 435 375 l 1,15,-1
 307 375 l 1,16,-1
 307 210 l 2,17,18
 307 188 307 188 319 175.5 c 128,-1,19
 331 163 331 163 351 164 c 0,20,21
 370 164 370 164 407 178 c 1,22,-1
 445 24 l 1,0,1
EndSplineSet
Substitution2: "<3,3> Small Caps in Latin lookup 11 subtable" t.sc
EndChar

StartChar: u
Encoding: 117 117 89
Width: 672
Flags: W
LayerCount: 2
Fore
SplineSet
617 547 m 1,0,-1
 617 0 l 1,1,-1
 392 0 l 1,2,-1
 392 76 l 1,3,4
 365 34 365 34 324 12 c 128,-1,5
 283 -10 283 -10 231 -10 c 0,6,7
 175 -10 175 -10 132 16 c 128,-1,8
 89 42 89 42 64.5 89 c 128,-1,9
 40 136 40 136 40 198 c 2,10,-1
 40 547 l 1,11,-1
 265 547 l 1,12,-1
 265 263 l 2,13,14
 265 229 265 229 281.5 208.5 c 128,-1,15
 298 188 298 188 325 188 c 0,16,17
 356 188 356 188 374 212 c 128,-1,18
 392 236 392 236 392 276 c 2,19,-1
 392 547 l 1,20,-1
 617 547 l 1,0,-1
EndSplineSet
Substitution2: "<3,3> Small Caps in Latin lookup 11 subtable" u.sc
EndChar

StartChar: v
Encoding: 118 118 90
Width: 612
Flags: W
LayerCount: 2
Fore
SplineSet
-10 547 m 1,0,-1
 221 547 l 1,1,-1
 308 204 l 1,2,-1
 397 547 l 1,3,-1
 622 547 l 1,4,-1
 420 0 l 1,5,-1
 190 0 l 1,6,-1
 -10 547 l 1,0,-1
EndSplineSet
Substitution2: "<3,3> Small Caps in Latin lookup 11 subtable" v.sc
EndChar

StartChar: w
Encoding: 119 119 91
Width: 977
Flags: W
LayerCount: 2
Fore
SplineSet
-10 547 m 1,0,-1
 218 547 l 1,1,-1
 305 221 l 1,2,-1
 389 547 l 1,3,-1
 597 547 l 1,4,-1
 684 221 l 1,5,-1
 770 547 l 1,6,-1
 987 547 l 1,7,-1
 787 0 l 1,8,-1
 567 0 l 1,9,-1
 489 288 l 1,10,-1
 408 0 l 1,11,-1
 188 0 l 1,12,-1
 -10 547 l 1,0,-1
EndSplineSet
Substitution2: "<3,3> Small Caps in Latin lookup 11 subtable" w.sc
EndChar

StartChar: x
Encoding: 120 120 92
Width: 654
Flags: W
LayerCount: 2
Fore
SplineSet
6 547 m 1,0,-1
 264 547 l 1,1,-1
 327 419 l 1,2,-1
 401 547 l 1,3,-1
 647 547 l 1,4,-1
 477 281 l 1,5,-1
 659 0 l 1,6,-1
 400 0 l 1,7,-1
 327 142 l 1,8,-1
 242 0 l 1,9,-1
 -5 0 l 1,10,-1
 176 280 l 1,11,-1
 6 547 l 1,0,-1
EndSplineSet
Substitution2: "<3,3> Small Caps in Latin lookup 11 subtable" x.sc
EndChar

StartChar: y
Encoding: 121 121 93
Width: 624
Flags: W
LayerCount: 2
Fore
SplineSet
316 -163.5 m 128,-1,1
 257 -204 257 -204 169 -204 c 0,2,3
 115 -204 115 -204 69.5 -188.5 c 128,-1,4
 24 -173 24 -173 -20 -140 c 1,5,-1
 74 8 l 1,6,7
 109 -24 109 -24 147 -24 c 256,8,9
 185 -24 185 -24 201 4 c 2,10,-1
 209 17 l 1,11,-1
 -18 547 l 1,12,-1
 213 547 l 1,13,-1
 321 235 l 1,14,-1
 410 547 l 1,15,-1
 634 547 l 1,16,-1
 409 -38 l 2,17,0
 375 -123 375 -123 316 -163.5 c 128,-1,1
EndSplineSet
Substitution2: "<3,3> Small Caps in Latin lookup 11 subtable" y.sc
EndChar

StartChar: z
Encoding: 122 122 94
Width: 568
Flags: W
LayerCount: 2
Fore
SplineSet
35 547 m 1,0,-1
 537 547 l 1,1,-1
 537 416 l 1,2,-1
 309 168 l 1,3,-1
 547 168 l 1,4,-1
 547 0 l 1,5,-1
 25 0 l 1,6,-1
 25 131 l 1,7,-1
 253 379 l 1,8,-1
 35 379 l 1,9,-1
 35 547 l 1,0,-1
EndSplineSet
Substitution2: "<3,3> Small Caps in Latin lookup 11 subtable" z.sc
EndChar

StartChar: braceleft
Encoding: 123 123 95
Width: 377
Flags: W
LayerCount: 2
Fore
SplineSet
263.5 352.5 m 128,-1,1
 242 322 242 322 189 309 c 1,2,3
 242 296 242 296 263.5 265.5 c 128,-1,4
 285 235 285 235 285 175 c 2,5,-1
 285 98 l 2,6,7
 285 64 285 64 301 51.5 c 128,-1,8
 317 39 317 39 366 39 c 1,9,-1
 366 -126 l 1,10,-1
 278 -126 l 2,11,12
 204 -126 204 -126 162.5 -111.5 c 128,-1,13
 121 -97 121 -97 103 -64 c 128,-1,14
 85 -31 85 -31 85 27 c 2,15,-1
 85 190 l 2,16,17
 85 209 85 209 78 216.5 c 128,-1,18
 71 224 71 224 54 224 c 2,19,-1
 9 224 l 1,20,-1
 9 394 l 1,21,-1
 54 394 l 2,22,23
 71 394 71 394 78 401.5 c 128,-1,24
 85 409 85 409 85 428 c 2,25,-1
 85 591 l 2,26,27
 85 649 85 649 103 682 c 128,-1,28
 121 715 121 715 162.5 729.5 c 128,-1,29
 204 744 204 744 278 744 c 2,30,-1
 366 744 l 1,31,-1
 366 579 l 1,32,33
 317 579 317 579 301 566.5 c 128,-1,34
 285 554 285 554 285 520 c 2,35,-1
 285 443 l 2,36,0
 285 383 285 383 263.5 352.5 c 128,-1,1
EndSplineSet
Substitution2: "'rtla' Right to Left Alternates in Latin lookup 0 subtable" braceright
EndChar

StartChar: bar
Encoding: 124 124 96
Width: 326
Flags: W
LayerCount: 2
Fore
SplineSet
80 796 m 1,0,-1
 246 796 l 1,1,-1
 246 -103 l 1,2,-1
 80 -103 l 1,3,-1
 80 796 l 1,0,-1
EndSplineSet
EndChar

StartChar: braceright
Encoding: 125 125 97
Width: 377
Flags: W
LayerCount: 2
Fore
SplineSet
368 394 m 1,0,-1
 368 224 l 1,1,-1
 323 224 l 2,2,3
 306 224 306 224 299 216.5 c 128,-1,4
 292 209 292 209 292 190 c 2,5,-1
 292 27 l 2,6,7
 292 -31 292 -31 274 -64 c 128,-1,8
 256 -97 256 -97 214.5 -111.5 c 128,-1,9
 173 -126 173 -126 99 -126 c 2,10,-1
 11 -126 l 1,11,-1
 11 39 l 1,12,13
 60 39 60 39 76 51.5 c 128,-1,14
 92 64 92 64 92 98 c 2,15,-1
 92 175 l 2,16,17
 92 235 92 235 113.5 265.5 c 128,-1,18
 135 296 135 296 188 309 c 1,19,20
 135 322 135 322 113.5 352.5 c 128,-1,21
 92 383 92 383 92 443 c 2,22,-1
 92 520 l 2,23,24
 92 554 92 554 76 566.5 c 128,-1,25
 60 579 60 579 11 579 c 1,26,-1
 11 744 l 1,27,-1
 99 744 l 2,28,29
 173 744 173 744 214.5 729.5 c 128,-1,30
 256 715 256 715 274 682 c 128,-1,31
 292 649 292 649 292 591 c 2,32,-1
 292 428 l 2,33,34
 292 409 292 409 299 401.5 c 128,-1,35
 306 394 306 394 323 394 c 2,36,-1
 368 394 l 1,0,-1
EndSplineSet
Substitution2: "'rtla' Right to Left Alternates in Latin lookup 0 subtable" braceleft
EndChar

StartChar: asciitilde
Encoding: 126 126 98
Width: 520
Flags: W
LayerCount: 2
Fore
SplineSet
442 275 m 128,-1,1
 411 226 411 226 346 226 c 0,2,3
 318 226 318 226 298 234 c 128,-1,4
 278 242 278 242 255 256 c 256,5,6
 232 270 232 270 222 270 c 0,7,8
 196 270 196 270 196 229 c 1,9,-1
 47 229 l 1,10,11
 47 332 47 332 78.5 381 c 128,-1,12
 110 430 110 430 175 430 c 0,13,14
 203 430 203 430 223 422 c 128,-1,15
 243 414 243 414 266 400 c 256,16,17
 289 386 289 386 299 386 c 0,18,19
 325 386 325 386 325 427 c 1,20,-1
 473 427 l 1,21,0
 473 324 473 324 442 275 c 128,-1,1
EndSplineSet
EndChar

StartChar: exclamdown
Encoding: 161 161 100
Width: 294
Flags: W
LayerCount: 2
Fore
SplineSet
77.5 377.5 m 128,-1,1
 49 406 49 406 49 451 c 0,2,3
 49 497 49 497 77.5 525.5 c 128,-1,4
 106 554 106 554 152 554 c 0,5,6
 197 554 197 554 225.5 525.5 c 128,-1,7
 254 497 254 497 254 451 c 0,8,9
 254 406 254 406 225.5 377.5 c 128,-1,10
 197 349 197 349 152 349 c 0,11,0
 106 349 106 349 77.5 377.5 c 128,-1,1
254 -155 m 1,12,-1
 40 -155 l 1,13,-1
 40 29 l 1,14,-1
 80 288 l 1,15,-1
 214 288 l 1,16,-1
 254 29 l 1,17,-1
 254 -155 l 1,12,-1
EndSplineSet
Substitution2: "<3,3> Small Caps in Latin lookup 11 subtable" exclamdown.sc
EndChar

StartChar: cent
Encoding: 162 162 101
Width: 600
Flags: W
LayerCount: 2
Fore
SplineSet
381 229 m 1,1,-1
 563 145 l 1,2,3
 541 92 541 92 498 56 c 128,-1,4
 455 20 455 20 395 4 c 1,5,-1
 395 -165 l 1,6,-1
 229 -165 l 1,7,-1
 229 -1 l 1,8,9
 129 19 129 19 72 91.5 c 128,-1,10
 15 164 15 164 15 271 c 0,11,12
 15 380 15 380 72 453.5 c 128,-1,13
 129 527 129 527 229 548 c 1,14,-1
 229 714 l 1,15,-1
 395 714 l 1,16,-1
 395 543 l 1,17,18
 452 526 452 526 495 488.5 c 128,-1,19
 538 451 538 451 563 397 c 1,20,-1
 384 321 l 1,21,22
 362 373 362 373 314 373 c 0,23,24
 281 373 281 373 261.5 345.5 c 128,-1,25
 242 318 242 318 242 272 c 0,26,27
 242 225 242 225 261.5 197.5 c 128,-1,28
 281 170 281 170 314 170 c 0,29,0
 364 170 364 170 381 229 c 1,1,-1
EndSplineSet
EndChar

StartChar: sterling
Encoding: 163 163 102
Width: 576
Flags: W
LayerCount: 2
Fore
SplineSet
323 173 m 1,0,-1
 561 173 l 1,1,-1
 561 0 l 1,2,-1
 20 0 l 1,3,-1
 20 173 l 1,4,-1
 90 173 l 1,5,-1
 90 303 l 1,6,-1
 20 303 l 1,7,-1
 20 373 l 1,8,-1
 90 373 l 1,9,-1
 90 464 l 2,10,11
 90 582 90 582 158.5 646.5 c 128,-1,12
 227 711 227 711 351 711 c 0,13,14
 415 711 415 711 474 689.5 c 128,-1,15
 533 668 533 668 576 629 c 1,16,-1
 492 459 l 1,17,18
 427 518 427 518 376 518 c 0,19,20
 323 518 323 518 323 459 c 2,21,-1
 323 373 l 1,22,-1
 482 373 l 1,23,-1
 482 303 l 1,24,-1
 323 303 l 1,25,-1
 323 173 l 1,0,-1
EndSplineSet
EndChar

StartChar: currency
Encoding: 164 164 103
Width: 693
Flags: W
LayerCount: 2
Fore
SplineSet
575 214 m 1,1,-1
 678 111 l 1,2,-1
 553 -14 l 1,3,-1
 448 91 l 1,4,5
 399 69 399 69 346 69 c 0,6,7
 294 69 294 69 244 90 c 1,8,-1
 140 -14 l 1,9,-1
 15 111 l 1,10,-1
 117 213 l 1,11,12
 92 265 92 265 92 323 c 0,13,14
 92 376 92 376 114 425 c 1,15,-1
 15 524 l 1,16,-1
 140 649 l 1,17,-1
 237 552 l 1,18,19
 289 577 289 577 346 577 c 0,20,21
 404 577 404 577 456 552 c 1,22,-1
 553 649 l 1,23,-1
 678 524 l 1,24,-1
 579 425 l 1,25,26
 600 375 600 375 600 323 c 0,27,0
 600 266 600 266 575 214 c 1,1,-1
402.5 267 m 128,-1,29
 426 290 426 290 426 323 c 256,30,31
 426 356 426 356 402.5 379.5 c 128,-1,32
 379 403 379 403 346 403 c 256,33,34
 313 403 313 403 290 379.5 c 128,-1,35
 267 356 267 356 267 323 c 256,36,37
 267 290 267 290 290 267 c 128,-1,38
 313 244 313 244 346 244 c 256,39,28
 379 244 379 244 402.5 267 c 128,-1,29
EndSplineSet
EndChar

StartChar: yen
Encoding: 165 165 104
Width: 739
Flags: W
LayerCount: 2
Fore
SplineSet
739 701 m 1,0,-1
 554 345 l 1,1,-1
 669 345 l 1,2,-1
 669 275 l 1,3,-1
 518 275 l 1,4,-1
 494 230 l 1,5,-1
 669 230 l 1,6,-1
 669 160 l 1,7,-1
 488 160 l 1,8,-1
 488 0 l 1,9,-1
 256 0 l 1,10,-1
 256 160 l 1,11,-1
 71 160 l 1,12,-1
 71 230 l 1,13,-1
 247 230 l 1,14,-1
 223 275 l 1,15,-1
 71 275 l 1,16,-1
 71 345 l 1,17,-1
 187 345 l 1,18,-1
 0 701 l 1,19,-1
 231 701 l 1,20,-1
 372 431 l 1,21,-1
 508 701 l 1,22,-1
 739 701 l 1,0,-1
EndSplineSet
EndChar

StartChar: brokenbar
Encoding: 166 166 105
Width: 326
Flags: W
LayerCount: 2
Fore
SplineSet
80 796 m 1,0,-1
 246 796 l 1,1,-1
 246 457 l 1,2,-1
 80 457 l 1,3,-1
 80 796 l 1,0,-1
80 236 m 1,4,-1
 246 236 l 1,5,-1
 246 -103 l 1,6,-1
 80 -103 l 1,7,-1
 80 236 l 1,4,-1
EndSplineSet
EndChar

StartChar: section
Encoding: 167 167 106
Width: 586
Flags: W
LayerCount: 2
Fore
SplineSet
305 546 m 0,1,2
 289 546 289 546 280.5 541.5 c 128,-1,3
 272 537 272 537 272 530 c 0,4,5
 272 518 272 518 292.5 508.5 c 128,-1,6
 313 499 313 499 356 486 c 0,7,8
 419 467 419 467 461 448 c 128,-1,9
 503 429 503 429 535 394.5 c 128,-1,10
 567 360 567 360 567 308 c 0,11,12
 567 220 567 220 476 171 c 1,13,14
 501 150 501 150 511.5 132 c 128,-1,15
 522 114 522 114 522 82 c 0,16,17
 522 32 522 32 492.5 -7 c 128,-1,18
 463 -46 463 -46 408 -68 c 128,-1,19
 353 -90 353 -90 278 -90 c 0,20,21
 208 -90 208 -90 138.5 -70 c 128,-1,22
 69 -50 69 -50 12 -12 c 1,23,-1
 73 128 l 1,24,25
 128 95 128 95 180 77.5 c 128,-1,26
 232 60 232 60 273 60 c 0,27,28
 311 60 311 60 311 75 c 0,29,30
 311 86 311 86 291.5 94.5 c 128,-1,31
 272 103 272 103 232 115 c 0,32,33
 170 134 170 134 128 152.5 c 128,-1,34
 86 171 86 171 54 205.5 c 128,-1,35
 22 240 22 240 22 293 c 0,36,37
 22 382 22 382 113 431 c 1,38,39
 86 451 86 451 76.5 471 c 128,-1,40
 67 491 67 491 67 519 c 0,41,42
 67 570 67 570 95.5 609.5 c 128,-1,43
 124 649 124 649 177.5 671.5 c 128,-1,44
 231 694 231 694 303 694 c 0,45,46
 430 694 430 694 557 625 c 1,47,-1
 490 486 l 1,48,0
 366 546 366 546 305 546 c 0,1,2
226 308 m 0,50,51
 226 294 226 294 248 285.5 c 128,-1,52
 270 277 270 277 304 277 c 0,53,54
 330 277 330 277 343.5 282.5 c 128,-1,55
 357 288 357 288 357 297 c 0,56,57
 357 311 357 311 332 320 c 128,-1,58
 307 329 307 329 274 329 c 0,59,49
 226 329 226 329 226 308 c 0,50,51
EndSplineSet
EndChar

StartChar: copyright
Encoding: 169 169 108
Width: 707
Flags: W
LayerCount: 2
Fore
SplineSet
524.5 643.5 m 128,-1,1
 602 598 602 598 647 520 c 128,-1,2
 692 442 692 442 692 350 c 0,3,4
 692 259 692 259 647 180.5 c 128,-1,5
 602 102 602 102 524 55.5 c 128,-1,6
 446 9 446 9 352 9 c 0,7,8
 259 9 259 9 181.5 55 c 128,-1,9
 104 101 104 101 59.5 179 c 128,-1,10
 15 257 15 257 15 348 c 256,11,12
 15 439 15 439 60 517.5 c 128,-1,13
 105 596 105 596 182.5 642.5 c 128,-1,14
 260 689 260 689 354 689 c 0,15,0
 447 689 447 689 524.5 643.5 c 128,-1,1
233 556.5 m 128,-1,17
 178 524 178 524 146.5 468.5 c 128,-1,18
 115 413 115 413 115 348 c 256,19,20
 115 283 115 283 146.5 228.5 c 128,-1,21
 178 174 178 174 232 141.5 c 128,-1,22
 286 109 286 109 352 109 c 0,23,24
 419 109 419 109 474 141.5 c 128,-1,25
 529 174 529 174 560.5 229.5 c 128,-1,26
 592 285 592 285 592 350 c 256,27,28
 592 415 592 415 560.5 469.5 c 128,-1,29
 529 524 529 524 474.5 556.5 c 128,-1,30
 420 589 420 589 354 589 c 256,31,16
 288 589 288 589 233 556.5 c 128,-1,17
400.5 411.5 m 128,-1,33
 381 423 381 423 363 423 c 0,34,35
 334 423 334 423 315.5 402.5 c 128,-1,36
 297 382 297 382 297 351 c 0,37,38
 297 319 297 319 315.5 298.5 c 128,-1,39
 334 278 334 278 363 278 c 0,40,41
 380 278 380 278 399 288 c 128,-1,42
 418 298 418 298 434 314 c 1,43,-1
 494 250 l 1,44,45
 468 221 468 221 431 204 c 128,-1,46
 394 187 394 187 357 187 c 0,47,48
 309 187 309 187 271 208 c 128,-1,49
 233 229 233 229 211.5 266 c 128,-1,50
 190 303 190 303 190 349 c 256,51,52
 190 395 190 395 212 431.5 c 128,-1,53
 234 468 234 468 273 489 c 128,-1,54
 312 510 312 510 361 510 c 0,55,56
 397 510 397 510 433.5 494 c 128,-1,57
 470 478 470 478 494 452 c 1,58,-1
 434 380 l 1,59,32
 420 400 420 400 400.5 411.5 c 128,-1,33
EndSplineSet
EndChar

StartChar: ordfeminine
Encoding: 170 170 109
Width: 400
Flags: W
LayerCount: 2
Fore
SplineSet
330.5 762 m 128,-1,1
 374 730 374 730 373 671 c 2,2,-1
 373 458 l 1,3,-1
 224 458 l 1,4,-1
 224 491 l 1,5,6
 192 451 192 451 128 451 c 0,7,8
 73 451 73 451 42 479.5 c 128,-1,9
 11 508 11 508 11 556 c 0,10,11
 11 605 11 605 45.5 631 c 128,-1,12
 80 657 80 657 147 658 c 2,13,-1
 224 658 l 1,14,15
 219 686 219 686 173 686 c 0,16,17
 131 686 131 686 68 667 c 1,18,-1
 34 764 l 1,19,20
 130 794 130 794 209 794 c 0,21,0
 287 794 287 794 330.5 762 c 128,-1,1
224 564 m 1,23,-1
 224 591 l 1,24,-1
 179 591 l 2,25,26
 154 591 154 591 154 568 c 0,27,28
 154 544 154 544 181 544 c 0,29,22
 207 544 207 544 224 564 c 1,23,-1
EndSplineSet
EndChar

StartChar: logicalnot
Encoding: 172 172 111
Width: 595
Flags: W
LayerCount: 2
Fore
SplineSet
540 449 m 1,0,-1
 540 129 l 1,1,-1
 380 129 l 1,2,-1
 380 309 l 1,3,-1
 30 309 l 1,4,-1
 30 449 l 1,5,-1
 540 449 l 1,0,-1
EndSplineSet
EndChar

StartChar: uni00AD
Encoding: 173 173 112
Width: 380
Flags: W
LayerCount: 2
Fore
SplineSet
50 379 m 1,0,-1
 330 379 l 1,1,-1
 330 239 l 1,2,-1
 50 239 l 1,3,-1
 50 379 l 1,0,-1
EndSplineSet
EndChar

StartChar: registered
Encoding: 174 174 113
Width: 707
Flags: W
LayerCount: 2
Fore
SplineSet
524.5 643.5 m 128,-1,1
 602 598 602 598 647 520 c 128,-1,2
 692 442 692 442 692 350 c 0,3,4
 692 259 692 259 647 180.5 c 128,-1,5
 602 102 602 102 524 55.5 c 128,-1,6
 446 9 446 9 352 9 c 0,7,8
 259 9 259 9 181.5 55 c 128,-1,9
 104 101 104 101 59.5 179 c 128,-1,10
 15 257 15 257 15 348 c 256,11,12
 15 439 15 439 60 517.5 c 128,-1,13
 105 596 105 596 182.5 642.5 c 128,-1,14
 260 689 260 689 354 689 c 0,15,0
 447 689 447 689 524.5 643.5 c 128,-1,1
474 141.5 m 128,-1,17
 529 174 529 174 560.5 229.5 c 128,-1,18
 592 285 592 285 592 350 c 256,19,20
 592 415 592 415 560.5 469.5 c 128,-1,21
 529 524 529 524 474.5 556.5 c 128,-1,22
 420 589 420 589 354 589 c 256,23,24
 288 589 288 589 233 556.5 c 128,-1,25
 178 524 178 524 146.5 468.5 c 128,-1,26
 115 413 115 413 115 348 c 256,27,28
 115 283 115 283 146.5 228.5 c 128,-1,29
 178 174 178 174 232 141.5 c 128,-1,30
 286 109 286 109 352 109 c 0,31,16
 419 109 419 109 474 141.5 c 128,-1,17
446 309 m 1,33,-1
 506 211 l 1,34,-1
 393 211 l 1,35,-1
 357 289 l 1,36,-1
 324 289 l 1,37,-1
 324 211 l 1,38,-1
 224 211 l 1,39,-1
 224 512 l 1,40,-1
 365 512 l 2,41,42
 426 512 426 512 460 484 c 128,-1,43
 494 456 494 456 494 405 c 0,44,32
 494 338 494 338 446 309 c 1,33,-1
324 365 m 1,45,-1
 365 365 l 2,46,47
 381 365 381 365 390 374.5 c 128,-1,48
 399 384 399 384 399 401 c 256,49,50
 399 418 399 418 390 427.5 c 128,-1,51
 381 437 381 437 365 437 c 2,52,-1
 324 437 l 1,53,-1
 324 365 l 1,45,-1
EndSplineSet
EndChar

StartChar: degree
Encoding: 176 176 115
Width: 400
Flags: W
LayerCount: 2
Fore
SplineSet
292.5 788.5 m 128,-1,1
 328 753 328 753 328 703 c 256,2,3
 328 653 328 653 292.5 617.5 c 128,-1,4
 257 582 257 582 207 582 c 256,5,6
 157 582 157 582 121.5 617.5 c 128,-1,7
 86 653 86 653 86 703 c 256,8,9
 86 753 86 753 121.5 788.5 c 128,-1,10
 157 824 157 824 207 824 c 256,11,0
 257 824 257 824 292.5 788.5 c 128,-1,1
180 730 m 128,-1,13
 169 719 169 719 169 703 c 256,14,15
 169 687 169 687 180 676 c 128,-1,16
 191 665 191 665 207 665 c 256,17,18
 223 665 223 665 234 676 c 128,-1,19
 245 687 245 687 245 703 c 256,20,21
 245 719 245 719 234 730 c 128,-1,22
 223 741 223 741 207 741 c 256,23,12
 191 741 191 741 180 730 c 128,-1,13
EndSplineSet
EndChar

StartChar: plusminus
Encoding: 177 177 116
Width: 520
Flags: W
LayerCount: 2
Fore
SplineSet
330 478 m 1,0,-1
 490 478 l 1,1,-1
 490 345 l 1,2,-1
 330 345 l 1,3,-1
 330 193 l 1,4,-1
 190 193 l 1,5,-1
 190 345 l 1,6,-1
 30 345 l 1,7,-1
 30 478 l 1,8,-1
 190 478 l 1,9,-1
 190 630 l 1,10,-1
 330 630 l 1,11,-1
 330 478 l 1,0,-1
30 -16 m 1,12,-1
 30 124 l 1,13,-1
 490 124 l 1,14,-1
 490 -16 l 1,15,-1
 30 -16 l 1,12,-1
EndSplineSet
EndChar

StartChar: paragraph
Encoding: 182 182 121
Width: 682
Flags: W
LayerCount: 2
Fore
SplineSet
206 293 m 2,0,1
 126 293 126 293 78 328 c 128,-1,2
 30 363 30 363 10 413 c 128,-1,3
 -10 463 -10 463 -10 513 c 0,4,5
 -10 575 -10 575 16.5 626.5 c 128,-1,6
 43 678 43 678 101.5 710 c 128,-1,7
 160 742 160 742 249 742 c 2,8,-1
 632 742 l 1,9,-1
 632 -105 l 1,10,-1
 466 -105 l 1,11,-1
 466 618 l 1,12,-1
 394 618 l 1,13,-1
 394 -105 l 1,14,-1
 228 -105 l 1,15,-1
 228 293 l 1,16,-1
 206 293 l 2,0,1
EndSplineSet
EndChar

StartChar: ordmasculine
Encoding: 186 186 125
Width: 419
Flags: W
LayerCount: 2
Fore
SplineSet
353.5 747 m 128,-1,1
 407 701 407 701 407 623 c 0,2,3
 407 546 407 546 353.5 499.5 c 128,-1,4
 300 453 300 453 209 453 c 0,5,6
 119 453 119 453 65.5 499.5 c 128,-1,7
 12 546 12 546 12 623 c 0,8,9
 12 701 12 701 65.5 747 c 128,-1,10
 119 793 119 793 209 793 c 0,11,0
 300 793 300 793 353.5 747 c 128,-1,1
177 662.5 m 128,-1,13
 165 647 165 647 165 621 c 256,14,15
 165 595 165 595 177 580 c 128,-1,16
 189 565 189 565 209 565 c 256,17,18
 229 565 229 565 241 580 c 128,-1,19
 253 595 253 595 253 621 c 256,20,21
 253 647 253 647 241 662.5 c 128,-1,22
 229 678 229 678 209 678 c 256,23,12
 189 678 189 678 177 662.5 c 128,-1,13
EndSplineSet
EndChar

StartChar: questiondown
Encoding: 191 191 130
Width: 498
Flags: W
LayerCount: 2
Fore
SplineSet
182.5 378.5 m 128,-1,1
 154 407 154 407 154 452 c 0,2,3
 154 498 154 498 182.5 526.5 c 128,-1,4
 211 555 211 555 257 555 c 0,5,6
 302 555 302 555 330.5 526.5 c 128,-1,7
 359 498 359 498 359 452 c 0,8,9
 359 407 359 407 330.5 378.5 c 128,-1,10
 302 350 302 350 257 350 c 0,11,0
 211 350 211 350 182.5 378.5 c 128,-1,1
412 -96.5 m 128,-1,13
 347 -164 347 -164 230 -164 c 0,14,15
 121 -164 121 -164 60.5 -116 c 128,-1,16
 0 -68 0 -68 0 18 c 0,17,18
 0 70 0 70 24.5 105.5 c 128,-1,19
 49 141 49 141 95 182 c 0,20,21
 133 217 133 217 151 241 c 128,-1,22
 169 265 169 265 169 297 c 1,23,-1
 336 297 l 1,24,25
 336 257 336 257 324.5 227 c 128,-1,26
 313 197 313 197 298 178 c 128,-1,27
 283 159 283 159 258 134 c 0,28,29
 233 110 233 110 221.5 93.5 c 128,-1,30
 210 77 210 77 210 55 c 256,31,32
 210 33 210 33 219.5 23 c 128,-1,33
 229 13 229 13 251 13 c 0,34,35
 279 13 279 13 292 32 c 128,-1,36
 305 51 305 51 305 92 c 1,37,-1
 477 92 l 1,38,12
 477 -29 477 -29 412 -96.5 c 128,-1,13
EndSplineSet
Substitution2: "<3,3> Small Caps in Latin lookup 11 subtable" questiondown.sc
EndChar

StartChar: AE
Encoding: 198 198 137
Width: 1147
Flags: W
LayerCount: 2
Fore
SplineSet
739 176 m 1,0,-1
 1109 176 l 1,1,-1
 1109 0 l 1,2,-1
 507 0 l 1,3,-1
 507 122 l 1,4,-1
 290 122 l 1,5,-1
 230 0 l 1,6,-1
 -10 0 l 1,7,-1
 380 701 l 1,8,-1
 1100 701 l 1,9,-1
 1100 525 l 1,10,-1
 739 525 l 1,11,-1
 739 439 l 1,12,-1
 1067 439 l 1,13,-1
 1067 263 l 1,14,-1
 739 263 l 1,15,-1
 739 176 l 1,0,-1
373 288 m 1,16,-1
 507 288 l 1,17,-1
 507 525 l 1,18,-1
 490 525 l 1,19,-1
 373 288 l 1,16,-1
EndSplineSet
EndChar

StartChar: Ccedilla
Encoding: 199 199 138
Width: 688
Flags: W
LayerCount: 2
Fore
SplineSet
479.5 209.5 m 128,-1,1
 523 232 523 232 557 269 c 1,2,-1
 691 126 l 1,3,4
 640 70 640 70 569.5 32.5 c 128,-1,5
 499 -5 499 -5 427 -13 c 1,6,-1
 410 -59 l 1,7,8
 493 -81 493 -81 493 -142 c 0,9,10
 493 -194 493 -194 453 -219 c 128,-1,11
 413 -244 413 -244 356 -244 c 0,12,13
 294 -244 294 -244 237 -225 c 1,14,-1
 267 -135 l 1,15,16
 287 -142 287 -142 312 -142 c 0,17,18
 330 -142 330 -142 341 -137 c 128,-1,19
 352 -132 352 -132 352 -123 c 0,20,21
 352 -111 352 -111 335.5 -105.5 c 128,-1,22
 319 -100 319 -100 295 -100 c 2,23,-1
 278 -100 l 1,24,-1
 308 -9 l 1,25,26
 222 7 222 7 155.5 57.5 c 128,-1,27
 89 108 89 108 52 184.5 c 128,-1,28
 15 261 15 261 15 353 c 0,29,30
 15 457 15 457 64 539.5 c 128,-1,31
 113 622 113 622 199.5 669 c 128,-1,32
 286 716 286 716 395 716 c 0,33,34
 475 716 475 716 556 680.5 c 128,-1,35
 637 645 637 645 691 586 c 1,36,-1
 557 427 l 1,37,38
 526 470 526 470 482.5 496.5 c 128,-1,39
 439 523 439 523 398 523 c 256,40,41
 357 523 357 523 323.5 501.5 c 128,-1,42
 290 480 290 480 271.5 442 c 128,-1,43
 253 404 253 404 253 356 c 256,44,45
 253 308 253 308 271.5 269.5 c 128,-1,46
 290 231 290 231 323.5 209 c 128,-1,47
 357 187 357 187 398 187 c 0,48,0
 436 187 436 187 479.5 209.5 c 128,-1,1
EndSplineSet
EndChar

StartChar: multiply
Encoding: 215 215 154
Width: 520
Flags: W
LayerCount: 2
Fore
SplineSet
472 442 m 1,0,-1
 359 329 l 1,1,-1
 472 216 l 1,2,-1
 373 117 l 1,3,-1
 260 230 l 1,4,-1
 147 117 l 1,5,-1
 48 216 l 1,6,-1
 161 329 l 1,7,-1
 48 442 l 1,8,-1
 147 541 l 1,9,-1
 260 428 l 1,10,-1
 373 541 l 1,11,-1
 472 442 l 1,0,-1
EndSplineSet
EndChar

StartChar: Oslash
Encoding: 216 216 155
Width: 800
Flags: W
LayerCount: 2
Fore
SplineSet
744.5 514.5 m 128,-1,1
 785 439 785 439 785 347 c 0,2,3
 785 244 785 244 735.5 162 c 128,-1,4
 686 80 686 80 598 33 c 128,-1,5
 510 -14 510 -14 400 -14 c 0,6,7
 326 -14 326 -14 263 7 c 1,8,-1
 227 -55 l 1,9,-1
 100 -55 l 1,10,-1
 164 55 l 1,11,12
 94 104 94 104 54.5 179.5 c 128,-1,13
 15 255 15 255 15 347 c 0,14,15
 15 450 15 450 64.5 531 c 128,-1,16
 114 612 114 612 202 658 c 128,-1,17
 290 704 290 704 400 704 c 0,18,19
 467 704 467 704 532 685 c 1,20,-1
 573 755 l 1,21,-1
 700 755 l 1,22,-1
 632 638 l 1,23,0
 704 590 704 590 744.5 514.5 c 128,-1,1
279 252 m 1,25,-1
 429 508 l 1,26,27
 417 511 417 511 403 511 c 0,28,29
 363 511 363 511 328.5 489.5 c 128,-1,30
 294 468 294 468 273.5 430.5 c 128,-1,31
 253 393 253 393 253 346 c 0,32,24
 253 294 253 294 279 252 c 1,25,-1
476 201 m 128,-1,34
 509 223 509 223 528 261 c 128,-1,35
 547 299 547 299 547 346 c 0,36,37
 547 404 547 404 519 446 c 1,38,-1
 367 184 l 1,39,40
 385 179 385 179 403 179 c 0,41,33
 443 179 443 179 476 201 c 128,-1,34
EndSplineSet
EndChar

StartChar: Thorn
Encoding: 222 222 161
Width: 698
Flags: W
LayerCount: 2
Fore
SplineSet
538 584.5 m 128,-1,1
 605 554 605 554 641.5 498 c 128,-1,2
 678 442 678 442 678 367 c 0,3,4
 678 287 678 287 641.5 227 c 128,-1,5
 605 167 605 167 538 134.5 c 128,-1,6
 471 102 471 102 382 102 c 2,7,-1
 282 102 l 1,8,-1
 282 0 l 1,9,-1
 50 0 l 1,10,-1
 50 701 l 1,11,-1
 282 701 l 1,12,-1
 282 615 l 1,13,-1
 382 615 l 2,14,0
 471 615 471 615 538 584.5 c 128,-1,1
421.5 300.5 m 128,-1,16
 440 323 440 323 440 360 c 0,17,18
 440 396 440 396 421.5 417.5 c 128,-1,19
 403 439 403 439 372 439 c 2,20,-1
 282 439 l 1,21,-1
 282 278 l 1,22,-1
 372 278 l 2,23,15
 403 278 403 278 421.5 300.5 c 128,-1,16
EndSplineSet
EndChar

StartChar: germandbls
Encoding: 223 223 162
Width: 670
Flags: W
LayerCount: 2
Fore
SplineSet
75 631 m 128,-1,1
 110 689 110 689 174.5 720.5 c 128,-1,2
 239 752 239 752 325 752 c 0,3,4
 410 752 410 752 473.5 726.5 c 128,-1,5
 537 701 537 701 571.5 654.5 c 128,-1,6
 606 608 606 608 606 547 c 0,7,8
 606 501 606 501 584.5 457 c 128,-1,9
 563 413 563 413 528 385 c 1,10,11
 584 365 584 365 617 319.5 c 128,-1,12
 650 274 650 274 650 217 c 0,13,14
 650 152 650 152 614 102.5 c 128,-1,15
 578 53 578 53 512.5 26.5 c 128,-1,16
 447 0 447 0 359 0 c 2,17,-1
 312 0 l 1,18,-1
 312 158 l 1,19,-1
 335 158 l 2,20,21
 385 158 385 158 408.5 173.5 c 128,-1,22
 432 189 432 189 432 223 c 0,23,24
 432 255 432 255 408.5 269.5 c 128,-1,25
 385 284 385 284 335 284 c 2,26,-1
 312 284 l 1,27,-1
 312 441 l 1,28,29
 352 441 352 441 370 458 c 128,-1,30
 388 475 388 475 388 513 c 256,31,32
 388 551 388 551 374 568 c 128,-1,33
 360 585 360 585 329 585 c 0,34,35
 296 585 296 585 280.5 567.5 c 128,-1,36
 265 550 265 550 265 513 c 2,37,-1
 265 0 l 1,38,-1
 40 0 l 1,39,-1
 40 496 l 2,40,0
 40 573 40 573 75 631 c 128,-1,1
EndSplineSet
Substitution2: "<3,3> Small Caps in Latin lookup 11 subtable" germandbls.sc
EndChar

StartChar: ae
Encoding: 230 230 169
Width: 958
Flags: W
LayerCount: 2
Fore
SplineSet
620.5 173 m 128,-1,1
 644 158 644 158 676 158 c 0,2,3
 736 158 736 158 788 207 c 1,4,-1
 905 92 l 1,5,6
 861 43 861 43 798 17.5 c 128,-1,7
 735 -8 735 -8 656 -8 c 0,8,9
 581 -8 581 -8 525.5 18 c 128,-1,10
 470 44 470 44 436 93 c 1,11,12
 405 43 405 43 350 16 c 128,-1,13
 295 -11 295 -11 220 -11 c 0,14,15
 124 -11 124 -11 69.5 36 c 128,-1,16
 15 83 15 83 15 162 c 0,17,18
 15 243 15 243 69.5 285 c 128,-1,19
 124 327 124 327 228 329 c 2,20,-1
 355 329 l 1,21,-1
 354 338 l 2,22,23
 350 362 350 362 328.5 375.5 c 128,-1,24
 307 389 307 389 269 389 c 0,25,26
 236 389 236 389 191 380 c 128,-1,27
 146 371 146 371 101 354 c 1,28,-1
 51 504 l 1,29,30
 122 530 122 530 191.5 543.5 c 128,-1,31
 261 557 261 557 322 557 c 0,32,33
 433 557 433 557 497 512 c 1,34,35
 560 555 560 555 650 555 c 0,36,37
 741 555 741 555 807 518 c 128,-1,38
 873 481 873 481 908 412.5 c 128,-1,39
 943 344 943 344 943 252 c 0,40,41
 943 233 943 233 942 223 c 1,42,-1
 585 223 l 1,43,-1
 587 217 l 2,44,0
 597 188 597 188 620.5 173 c 128,-1,1
700.5 383 m 128,-1,46
 682 405 682 405 652 405 c 0,47,48
 624 405 624 405 605.5 384 c 128,-1,49
 587 363 587 363 580 327 c 1,50,-1
 717 327 l 1,51,45
 719 361 719 361 700.5 383 c 128,-1,46
239 214 m 128,-1,53
 226 203 226 203 226 181 c 0,54,55
 226 158 226 158 239.5 145.5 c 128,-1,56
 253 133 253 133 277 133 c 0,57,58
 299 133 299 133 320 144 c 128,-1,59
 341 155 341 155 355 175 c 1,60,-1
 355 225 l 1,61,-1
 275 225 l 2,62,52
 252 225 252 225 239 214 c 128,-1,53
EndSplineSet
Substitution2: "<3,3> Small Caps in Latin lookup 11 subtable" ae.sc
EndChar

StartChar: ccedilla
Encoding: 231 231 170
Width: 561
Flags: W
LayerCount: 2
Fore
SplineSet
381 229 m 1,1,-1
 563 145 l 1,2,3
 538 82 538 82 483 43.5 c 128,-1,4
 428 5 428 5 352 -5 c 1,5,-1
 332 -59 l 1,6,7
 415 -81 415 -81 415 -142 c 0,8,9
 415 -194 415 -194 375 -219 c 128,-1,10
 335 -244 335 -244 278 -244 c 0,11,12
 216 -244 216 -244 159 -225 c 1,13,-1
 189 -135 l 1,14,15
 209 -142 209 -142 234 -142 c 0,16,17
 252 -142 252 -142 263 -137 c 128,-1,18
 274 -132 274 -132 274 -123 c 0,19,20
 274 -111 274 -111 257.5 -105.5 c 128,-1,21
 241 -100 241 -100 217 -100 c 2,22,-1
 200 -100 l 1,23,-1
 232 -2 l 1,24,25
 131 18 131 18 73 90.5 c 128,-1,26
 15 163 15 163 15 271 c 0,27,28
 15 356 15 356 50.5 420.5 c 128,-1,29
 86 485 86 485 151.5 520 c 128,-1,30
 217 555 217 555 304 555 c 0,31,32
 393 555 393 555 461 513.5 c 128,-1,33
 529 472 529 472 563 397 c 1,34,-1
 384 321 l 1,35,36
 362 373 362 373 314 373 c 0,37,38
 281 373 281 373 261.5 345.5 c 128,-1,39
 242 318 242 318 242 272 c 0,40,41
 242 225 242 225 261.5 197.5 c 128,-1,42
 281 170 281 170 314 170 c 0,43,0
 364 170 364 170 381 229 c 1,1,-1
EndSplineSet
Substitution2: "<3,3> Small Caps in Latin lookup 11 subtable" ccedilla.sc
EndChar

StartChar: eth
Encoding: 240 240 179
Width: 617
Flags: W
LayerCount: 2
Fore
SplineSet
562.5 477.5 m 128,-1,1
 602 394 602 394 602 303 c 0,2,3
 602 209 602 209 563 138 c 128,-1,4
 524 67 524 67 452 28 c 128,-1,5
 380 -11 380 -11 284 -11 c 0,6,7
 201 -11 201 -11 139 18.5 c 128,-1,8
 77 48 77 48 43 102 c 128,-1,9
 9 156 9 156 9 227 c 0,10,11
 9 293 9 293 37 343 c 128,-1,12
 65 393 65 393 116.5 420.5 c 128,-1,13
 168 448 168 448 236 448 c 0,14,15
 278 448 278 448 317.5 437.5 c 128,-1,16
 357 427 357 427 381 409 c 1,17,18
 380 483 380 483 290 555 c 1,19,-1
 112 474 l 1,20,-1
 75 550 l 1,21,-1
 205 610 l 1,22,23
 149 640 149 640 84 663 c 1,24,-1
 235 752 l 1,25,26
 312 726 312 726 374 686 c 1,27,-1
 519 753 l 1,28,-1
 556 675 l 1,29,-1
 451 627 l 1,30,0
 523 561 523 561 562.5 477.5 c 128,-1,1
342 191 m 128,-1,32
 361 208 361 208 361 237 c 256,33,34
 361 266 361 266 342 283 c 128,-1,35
 323 300 323 300 291 300 c 0,36,37
 260 300 260 300 242 283 c 128,-1,38
 224 266 224 266 224 238 c 0,39,40
 224 209 224 209 242.5 191.5 c 128,-1,41
 261 174 261 174 292 174 c 256,42,31
 323 174 323 174 342 191 c 128,-1,32
EndSplineSet
Substitution2: "<3,3> Small Caps in Latin lookup 11 subtable" eth.sc
EndChar

StartChar: divide
Encoding: 247 247 186
Width: 520
Flags: W
LayerCount: 2
Fore
SplineSet
323.5 574.5 m 128,-1,1
 349 549 349 549 349 508 c 0,2,3
 349 468 349 468 323 442.5 c 128,-1,4
 297 417 297 417 257 417 c 256,5,6
 217 417 217 417 191.5 442.5 c 128,-1,7
 166 468 166 468 166 508 c 256,8,9
 166 548 166 548 191.5 574 c 128,-1,10
 217 600 217 600 257 600 c 0,11,0
 298 600 298 600 323.5 574.5 c 128,-1,1
30 399 m 1,12,-1
 490 399 l 1,13,-1
 490 259 l 1,14,-1
 30 259 l 1,15,-1
 30 399 l 1,12,-1
323.5 214.5 m 128,-1,17
 349 189 349 189 349 148 c 0,18,19
 349 108 349 108 323 82.5 c 128,-1,20
 297 57 297 57 257 57 c 256,21,22
 217 57 217 57 191.5 82.5 c 128,-1,23
 166 108 166 108 166 148 c 256,24,25
 166 188 166 188 191.5 214 c 128,-1,26
 217 240 217 240 257 240 c 0,27,16
 298 240 298 240 323.5 214.5 c 128,-1,17
EndSplineSet
EndChar

StartChar: oslash
Encoding: 248 248 187
Width: 648
Flags: W
LayerCount: 2
Fore
SplineSet
604.5 404.5 m 128,-1,1
 633 347 633 347 633 274 c 0,2,3
 633 189 633 189 595 125.5 c 128,-1,4
 557 62 557 62 487 27 c 128,-1,5
 417 -8 417 -8 324 -8 c 0,6,7
 252 -8 252 -8 195 13 c 1,8,-1
 132 -80 l 1,9,-1
 44 -80 l 1,10,-1
 129 45 l 1,11,12
 74 82 74 82 44.5 141 c 128,-1,13
 15 200 15 200 15 274 c 0,14,15
 15 359 15 359 53 422.5 c 128,-1,16
 91 486 91 486 161 520.5 c 128,-1,17
 231 555 231 555 324 555 c 0,18,19
 397 555 397 555 458 533 c 1,20,-1
 522 627 l 1,21,-1
 610 627 l 1,22,-1
 523 499 l 1,23,0
 576 462 576 462 604.5 404.5 c 128,-1,1
238 207 m 1,25,-1
 361 389 l 1,26,27
 342 396 342 396 324 396 c 0,28,29
 280 396 280 396 253.5 362 c 128,-1,30
 227 328 227 328 227 271 c 0,31,24
 227 235 227 235 238 207 c 1,25,-1
394.5 180 m 128,-1,33
 421 214 421 214 421 271 c 0,34,35
 421 304 421 304 411 332 c 1,36,-1
 289 153 l 1,37,38
 304 146 304 146 324 146 c 0,39,32
 368 146 368 146 394.5 180 c 128,-1,33
EndSplineSet
Substitution2: "<3,3> Small Caps in Latin lookup 11 subtable" oslash.sc
EndChar

StartChar: thorn
Encoding: 254 254 193
Width: 690
Flags: W
LayerCount: 2
Fore
SplineSet
424 555 m 0,1,2
 499 555 499 555 556 520 c 128,-1,3
 613 485 613 485 644 420.5 c 128,-1,4
 675 356 675 356 675 270 c 0,5,6
 675 186 675 186 645 123 c 128,-1,7
 615 60 615 60 559.5 26 c 128,-1,8
 504 -8 504 -8 430 -8 c 0,9,10
 386 -8 386 -8 349 8.5 c 128,-1,11
 312 25 312 25 285 56 c 1,12,-1
 285 -194 l 1,13,-1
 60 -194 l 1,14,-1
 60 742 l 1,15,-1
 285 742 l 1,16,-1
 285 492 l 1,17,0
 339 555 339 555 424 555 c 0,1,2
307 353 m 128,-1,19
 285 324 285 324 285 276 c 256,20,21
 285 228 285 228 307 199 c 128,-1,22
 329 170 329 170 366 170 c 256,23,24
 403 170 403 170 425.5 199 c 128,-1,25
 448 228 448 228 448 276 c 256,26,27
 448 324 448 324 425.5 353 c 128,-1,28
 403 382 403 382 366 382 c 256,29,18
 329 382 329 382 307 353 c 128,-1,19
EndSplineSet
Substitution2: "<3,3> Small Caps in Latin lookup 11 subtable" thorn.sc
EndChar

StartChar: Aogonek
Encoding: 260 260 199
Width: 799
Flags: W
LayerCount: 2
Fore
SplineSet
703 -108 m 1,1,-1
 734 -219 l 1,2,3
 678 -244 678 -244 627 -244 c 0,4,5
 570 -244 570 -244 540.5 -211 c 128,-1,6
 511 -178 511 -178 511 -127 c 0,7,8
 511 -62 511 -62 562 0 c 1,9,-1
 527 99 l 1,10,-1
 264 99 l 1,11,-1
 228 0 l 1,12,-1
 -10 0 l 1,13,-1
 286 701 l 1,14,-1
 524 701 l 1,15,-1
 809 0 l 1,16,-1
 727 0 l 1,17,18
 658 -48 658 -48 658 -90 c 0,19,20
 658 -116 658 -116 678 -116 c 0,21,0
 689 -116 689 -116 703 -108 c 1,1,-1
324 265 m 1,22,-1
 470 265 l 1,23,-1
 398 470 l 1,24,-1
 324 265 l 1,22,-1
EndSplineSet
EndChar

StartChar: aogonek
Encoding: 261 261 200
Width: 613
Flags: W
LayerCount: 2
Fore
SplineSet
447 -90 m 0,1,2
 447 -116 447 -116 467 -116 c 0,3,4
 478 -116 478 -116 492 -108 c 1,5,-1
 523 -219 l 1,6,7
 467 -244 467 -244 416 -244 c 0,8,9
 359 -244 359 -244 329.5 -211 c 128,-1,10
 300 -178 300 -178 300 -127 c 0,11,12
 300 -60 300 -60 352 1 c 1,13,-1
 352 59 l 1,14,15
 302 -10 302 -10 198 -10 c 0,16,17
 112 -10 112 -10 63.5 36.5 c 128,-1,18
 15 83 15 83 15 162 c 0,19,20
 15 243 15 243 69 285 c 128,-1,21
 123 327 123 327 227 329 c 2,22,-1
 352 329 l 1,23,24
 351 358 351 358 329.5 373.5 c 128,-1,25
 308 389 308 389 267 389 c 0,26,27
 235 389 235 389 190.5 380 c 128,-1,28
 146 371 146 371 101 354 c 1,29,-1
 51 504 l 1,30,31
 121 530 121 530 190.5 543.5 c 128,-1,32
 260 557 260 557 321 557 c 0,33,34
 440 557 440 557 506.5 503.5 c 128,-1,35
 573 450 573 450 573 354 c 2,36,-1
 573 0 l 1,37,-1
 516 0 l 1,38,0
 447 -48 447 -48 447 -90 c 0,1,2
318.5 144 m 128,-1,40
 339 155 339 155 352 175 c 1,41,-1
 352 225 l 1,42,-1
 274 225 l 2,43,44
 226 225 226 225 226 181 c 0,45,46
 226 158 226 158 239 145.5 c 128,-1,47
 252 133 252 133 276 133 c 0,48,39
 298 133 298 133 318.5 144 c 128,-1,40
EndSplineSet
Substitution2: "<3,3> Small Caps in Latin lookup 11 subtable" aogonek.sc
EndChar

StartChar: Dcroat
Encoding: 272 272 211
Width: 759
Flags: W
LayerCount: 2
Fore
SplineSet
564 658 m 128,-1,1
 650 615 650 615 697 535.5 c 128,-1,2
 744 456 744 456 744 351 c 0,3,4
 744 245 744 245 696 166 c 128,-1,5
 648 87 648 87 559.5 43.5 c 128,-1,6
 471 0 471 0 354 0 c 2,7,-1
 50 0 l 1,8,-1
 50 302 l 1,9,-1
 -12 302 l 1,10,-1
 -12 400 l 1,11,-1
 50 400 l 1,12,-1
 50 701 l 1,13,-1
 363 701 l 2,14,0
 478 701 478 701 564 658 c 128,-1,1
469.5 226 m 128,-1,16
 507 272 507 272 507 349 c 0,17,18
 507 427 507 427 466.5 474 c 128,-1,19
 426 521 426 521 358 521 c 2,20,-1
 282 521 l 1,21,-1
 282 400 l 1,22,-1
 415 400 l 1,23,-1
 415 302 l 1,24,-1
 282 302 l 1,25,-1
 282 180 l 1,26,-1
 369 180 l 2,27,15
 432 180 432 180 469.5 226 c 128,-1,16
EndSplineSet
EndChar

StartChar: dcroat
Encoding: 273 273 212
Width: 690
Flags: W
LayerCount: 2
Fore
SplineSet
690 567 m 1,0,-1
 630 567 l 1,1,-1
 630 -1 l 1,2,-1
 405 -1 l 1,3,-1
 405 50 l 1,4,5
 350 -8 350 -8 266 -8 c 0,6,7
 191 -8 191 -8 134 24.5 c 128,-1,8
 77 57 77 57 46 116.5 c 128,-1,9
 15 176 15 176 15 256 c 0,10,11
 15 333 15 333 45 391 c 128,-1,12
 75 449 75 449 130.5 480.5 c 128,-1,13
 186 512 186 512 260 512 c 0,14,15
 349 512 349 512 405 453 c 1,16,-1
 405 567 l 1,17,-1
 255 567 l 1,18,-1
 255 667 l 1,19,-1
 405 667 l 1,20,-1
 405 742 l 1,21,-1
 630 742 l 1,22,-1
 630 667 l 1,23,-1
 690 667 l 1,24,-1
 690 567 l 1,0,-1
383 188 m 128,-1,26
 405 211 405 211 405 250 c 0,27,28
 405 288 405 288 383 311 c 128,-1,29
 361 334 361 334 324 334 c 0,30,31
 286 334 286 334 264 311.5 c 128,-1,32
 242 289 242 289 242 250 c 256,33,34
 242 211 242 211 264 188 c 128,-1,35
 286 165 286 165 324 165 c 0,36,25
 361 165 361 165 383 188 c 128,-1,26
EndSplineSet
Substitution2: "<3,3> Small Caps in Latin lookup 11 subtable" dcroat.sc
EndChar

StartChar: Eogonek
Encoding: 280 280 219
Width: 690
Flags: W
LayerCount: 2
Fore
SplineSet
659 -219 m 1,0,1
 603 -244 603 -244 552 -244 c 0,2,3
 495 -244 495 -244 465.5 -211 c 128,-1,4
 436 -178 436 -178 436 -127 c 0,5,6
 436 -62 436 -62 487 0 c 1,7,-1
 50 0 l 1,8,-1
 50 701 l 1,9,-1
 643 701 l 1,10,-1
 643 525 l 1,11,-1
 282 525 l 1,12,-1
 282 439 l 1,13,-1
 610 439 l 1,14,-1
 610 263 l 1,15,-1
 282 263 l 1,16,-1
 282 176 l 1,17,-1
 652 176 l 1,18,-1
 652 0 l 1,19,20
 583 -48 583 -48 583 -90 c 0,21,22
 583 -116 583 -116 603 -116 c 0,23,24
 614 -116 614 -116 628 -108 c 1,25,-1
 659 -219 l 1,0,1
EndSplineSet
EndChar

StartChar: eogonek
Encoding: 281 281 220
Width: 614
Flags: W
LayerCount: 2
Fore
SplineSet
463 518 m 128,-1,1
 529 481 529 481 564 412.5 c 128,-1,2
 599 344 599 344 599 252 c 0,3,4
 599 233 599 233 598 223 c 1,5,-1
 242 223 l 1,6,7
 253 191 253 191 276.5 174.5 c 128,-1,8
 300 158 300 158 333 158 c 0,9,10
 392 158 392 158 444 207 c 1,11,-1
 561 92 l 1,12,13
 552 82 552 82 532 64 c 0,14,15
 491 25 491 25 467 -16 c 128,-1,16
 443 -57 443 -57 443 -88 c 0,17,18
 443 -116 443 -116 462 -116 c 0,19,20
 474 -116 474 -116 488 -108 c 1,21,-1
 519 -219 l 1,22,23
 492 -231 492 -231 468.5 -237.5 c 128,-1,24
 445 -244 445 -244 416 -244 c 0,25,26
 363 -244 363 -244 329.5 -216 c 128,-1,27
 296 -188 296 -188 296 -132 c 0,28,29
 296 -98 296 -98 310 -67.5 c 128,-1,30
 324 -37 324 -37 354 -6 c 1,31,32
 328 -8 328 -8 313 -8 c 0,33,34
 221 -8 221 -8 153.5 26.5 c 128,-1,35
 86 61 86 61 50.5 124 c 128,-1,36
 15 187 15 187 15 271 c 0,37,38
 15 357 15 357 51 421 c 128,-1,39
 87 485 87 485 153.5 520 c 128,-1,40
 220 555 220 555 307 555 c 0,41,0
 397 555 397 555 463 518 c 128,-1,1
356.5 383 m 128,-1,43
 338 405 338 405 309 405 c 0,44,45
 281 405 281 405 262.5 384 c 128,-1,46
 244 363 244 363 237 327 c 1,47,-1
 373 327 l 1,48,42
 375 361 375 361 356.5 383 c 128,-1,43
EndSplineSet
Substitution2: "<3,3> Small Caps in Latin lookup 11 subtable" eogonek.sc
EndChar

StartChar: Hbar
Encoding: 294 294 233
Width: 882
Flags: W
LayerCount: 2
Fore
SplineSet
871 611 m 1,0,-1
 871 513 l 1,1,-1
 780 513 l 1,2,-1
 780 0 l 1,3,-1
 548 0 l 1,4,-1
 548 253 l 1,5,-1
 331 253 l 1,6,-1
 331 0 l 1,7,-1
 99 0 l 1,8,-1
 99 513 l 1,9,-1
 6 513 l 1,10,-1
 6 611 l 1,11,-1
 99 611 l 1,12,-1
 99 701 l 1,13,-1
 331 701 l 1,14,-1
 331 611 l 1,15,-1
 548 611 l 1,16,-1
 548 701 l 1,17,-1
 780 701 l 1,18,-1
 780 611 l 1,19,-1
 871 611 l 1,0,-1
548 429 m 1,20,-1
 548 513 l 1,21,-1
 331 513 l 1,22,-1
 331 429 l 1,23,-1
 548 429 l 1,20,-1
EndSplineSet
EndChar

StartChar: hbar
Encoding: 295 295 234
Width: 687
Flags: W
LayerCount: 2
Fore
SplineSet
552.5 486 m 128,-1,1
 597 460 597 460 622 413 c 128,-1,2
 647 366 647 366 647 304 c 2,3,-1
 647 0 l 1,4,-1
 422 0 l 1,5,-1
 422 239 l 2,6,7
 422 273 422 273 404 293.5 c 128,-1,8
 386 314 386 314 357 314 c 0,9,10
 324 314 324 314 304.5 290 c 128,-1,11
 285 266 285 266 285 226 c 2,12,-1
 285 0 l 1,13,-1
 60 0 l 1,14,-1
 60 567 l 1,15,-1
 0 567 l 1,16,-1
 0 667 l 1,17,-1
 60 667 l 1,18,-1
 60 742 l 1,19,-1
 285 742 l 1,20,-1
 285 667 l 1,21,-1
 435 667 l 1,22,-1
 435 567 l 1,23,-1
 285 567 l 1,24,-1
 285 424 l 1,25,26
 313 467 313 467 355.5 489.5 c 128,-1,27
 398 512 398 512 451 512 c 0,28,0
 508 512 508 512 552.5 486 c 128,-1,1
EndSplineSet
Substitution2: "<3,3> Small Caps in Latin lookup 11 subtable" hbar.sc
EndChar

StartChar: Iogonek
Encoding: 302 302 241
Width: 332
Flags: W
LayerCount: 2
Fore
SplineSet
145 -90 m 0,1,2
 145 -116 145 -116 165 -116 c 0,3,4
 176 -116 176 -116 190 -108 c 1,5,-1
 221 -219 l 1,6,7
 165 -244 165 -244 114 -244 c 0,8,9
 57 -244 57 -244 27.5 -211 c 128,-1,10
 -2 -178 -2 -178 -2 -127 c 0,11,12
 -2 -60 -2 -60 50 1 c 1,13,-1
 50 701 l 1,14,-1
 282 701 l 1,15,-1
 282 0 l 1,16,-1
 214 0 l 1,17,0
 145 -48 145 -48 145 -90 c 0,1,2
EndSplineSet
EndChar

StartChar: iogonek
Encoding: 303 303 242
Width: 335
Flags: W
LayerCount: 2
Fore
SplineSet
83 621 m 128,-1,1
 51 653 51 653 51 703 c 256,2,3
 51 753 51 753 83 785 c 128,-1,4
 115 817 115 817 165 817 c 256,5,6
 215 817 215 817 247 785 c 128,-1,7
 279 753 279 753 279 703 c 256,8,9
 279 653 279 653 247 621 c 128,-1,10
 215 589 215 589 165 589 c 256,11,0
 115 589 115 589 83 621 c 128,-1,1
151 -90 m 0,13,14
 151 -116 151 -116 171 -116 c 0,15,16
 182 -116 182 -116 196 -108 c 1,17,-1
 227 -219 l 1,18,19
 171 -244 171 -244 120 -244 c 0,20,21
 63 -244 63 -244 33.5 -211 c 128,-1,22
 4 -178 4 -178 4 -127 c 0,23,24
 4 -62 4 -62 55 0 c 1,25,-1
 55 547 l 1,26,-1
 280 547 l 1,27,-1
 280 0 l 1,28,-1
 220 0 l 1,29,12
 151 -48 151 -48 151 -90 c 0,13,14
EndSplineSet
Substitution2: "<3,3> Small Caps in Latin lookup 11 subtable" iogonek.sc
EndChar

StartChar: dotlessi
Encoding: 305 305 244
Width: 335
Flags: W
LayerCount: 2
Fore
SplineSet
55 547 m 1,0,-1
 280 547 l 1,1,-1
 280 0 l 1,2,-1
 55 0 l 1,3,-1
 55 547 l 1,0,-1
EndSplineSet
Substitution2: "<3,3> Small Caps in Latin lookup 11 subtable" dotlessi.sc
EndChar

StartChar: kgreenlandic
Encoding: 312 312 251
Width: 655
Flags: W
LayerCount: 2
Fore
SplineSet
659 547 m 1,0,-1
 460 336 l 1,1,-1
 656 0 l 1,2,-1
 389 0 l 1,3,-1
 305 172 l 1,4,-1
 280 146 l 1,5,-1
 280 0 l 1,6,-1
 55 0 l 1,7,-1
 55 547 l 1,8,-1
 280 547 l 1,9,-1
 280 393 l 1,10,-1
 405 547 l 1,11,-1
 659 547 l 1,0,-1
EndSplineSet
Substitution2: "<3,3> Small Caps in Latin lookup 11 subtable" kgreenlandic.sc
EndChar

StartChar: Lslash
Encoding: 321 321 260
Width: 639
Flags: W
LayerCount: 2
Fore
SplineSet
337 193 m 1,0,-1
 629 193 l 1,1,-1
 629 0 l 1,2,-1
 105 0 l 1,3,-1
 105 290 l 1,4,-1
 15 244 l 1,5,-1
 15 362 l 1,6,-1
 105 408 l 1,7,-1
 105 701 l 1,8,-1
 337 701 l 1,9,-1
 337 525 l 1,10,-1
 440 577 l 1,11,-1
 440 459 l 1,12,-1
 337 407 l 1,13,-1
 337 193 l 1,0,-1
EndSplineSet
EndChar

StartChar: lslash
Encoding: 322 322 261
Width: 448
Flags: W
LayerCount: 2
Fore
SplineSet
433 567 m 1,0,-1
 433 449 l 1,1,-1
 333 398 l 1,2,-1
 333 0 l 1,3,-1
 108 0 l 1,4,-1
 108 285 l 1,5,-1
 8 234 l 1,6,-1
 8 352 l 1,7,-1
 108 403 l 1,8,-1
 108 742 l 1,9,-1
 333 742 l 1,10,-1
 333 516 l 1,11,-1
 433 567 l 1,0,-1
EndSplineSet
Substitution2: "<3,3> Small Caps in Latin lookup 11 subtable" lslash.sc
EndChar

StartChar: Eng
Encoding: 330 330 269
Width: 781
Flags: W
LayerCount: 2
Fore
SplineSet
731 701 m 1,0,-1
 731 0 l 1,1,2
 724 -106 724 -106 653.5 -165.5 c 128,-1,3
 583 -225 583 -225 467 -225 c 0,4,5
 375 -225 375 -225 298 -185 c 1,6,-1
 373 -10 l 1,7,8
 430 -32 430 -32 467 -32 c 0,9,10
 518 -32 518 -32 524 17 c 1,11,-1
 261 358 l 1,12,-1
 261 0 l 1,13,-1
 50 0 l 1,14,-1
 50 701 l 1,15,-1
 244 701 l 1,16,-1
 521 341 l 1,17,-1
 521 701 l 1,18,-1
 731 701 l 1,0,-1
EndSplineSet
EndChar

StartChar: eng
Encoding: 331 331 270
Width: 682
Flags: W
LayerCount: 2
Fore
SplineSet
547.5 531 m 128,-1,1
 592 505 592 505 617 458 c 128,-1,2
 642 411 642 411 642 349 c 2,3,-1
 642 -23 l 2,4,5
 642 -104 642 -104 583.5 -153.5 c 128,-1,6
 525 -203 525 -203 428 -203 c 0,7,8
 336 -203 336 -203 268 -169 c 1,9,-1
 318 -15 l 1,10,11
 348 -29 348 -29 373 -29 c 0,12,13
 394 -30 394 -30 405.5 -18 c 128,-1,14
 417 -6 417 -6 417 17 c 2,15,-1
 417 284 l 2,16,17
 417 318 417 318 399 338.5 c 128,-1,18
 381 359 381 359 352 359 c 0,19,20
 319 359 319 359 299.5 335 c 128,-1,21
 280 311 280 311 280 271 c 2,22,-1
 280 0 l 1,23,-1
 55 0 l 1,24,-1
 55 547 l 1,25,-1
 280 547 l 1,26,-1
 280 469 l 1,27,28
 308 512 308 512 350.5 534.5 c 128,-1,29
 393 557 393 557 446 557 c 0,30,0
 503 557 503 557 547.5 531 c 128,-1,1
EndSplineSet
Substitution2: "<3,3> Small Caps in Latin lookup 11 subtable" eng.sc
EndChar

StartChar: OE
Encoding: 338 338 277
Width: 1127
Flags: W
LayerCount: 2
Fore
SplineSet
1089 176 m 1,0,-1
 1089 0 l 1,1,-1
 399 0 l 2,2,3
 290 0 290 0 202.5 45 c 128,-1,4
 115 90 115 90 65 169.5 c 128,-1,5
 15 249 15 249 15 349 c 256,6,7
 15 449 15 449 64.5 529.5 c 128,-1,8
 114 610 114 610 201.5 655.5 c 128,-1,9
 289 701 289 701 399 701 c 2,10,-1
 1080 701 l 1,11,-1
 1080 525 l 1,12,-1
 719 525 l 1,13,-1
 719 439 l 1,14,-1
 1047 439 l 1,15,-1
 1047 263 l 1,16,-1
 719 263 l 1,17,-1
 719 176 l 1,18,-1
 1089 176 l 1,0,-1
487 184 m 1,19,-1
 487 514 l 1,20,-1
 399 514 l 2,21,22
 357 514 357 514 324 492.5 c 128,-1,23
 291 471 291 471 272 433 c 128,-1,24
 253 395 253 395 253 348 c 256,25,26
 253 301 253 301 272 263.5 c 128,-1,27
 291 226 291 226 324 204.5 c 128,-1,28
 357 183 357 183 399 183 c 2,29,-1
 487 184 l 1,19,-1
EndSplineSet
EndChar

StartChar: oe
Encoding: 339 339 278
Width: 999
Flags: W
LayerCount: 2
Fore
SplineSet
847 518 m 128,-1,1
 913 481 913 481 948.5 412.5 c 128,-1,2
 984 344 984 344 984 252 c 0,3,4
 984 233 984 233 983 223 c 1,5,-1
 623 223 l 1,6,7
 635 191 635 191 659 174.5 c 128,-1,8
 683 158 683 158 716 158 c 0,9,10
 775 158 775 158 829 207 c 1,11,-1
 946 92 l 1,12,13
 854 -8 854 -8 696 -8 c 0,14,15
 577 -8 577 -8 512 63 c 1,16,17
 443 -8 443 -8 324 -8 c 0,18,19
 231 -8 231 -8 161 27 c 128,-1,20
 91 62 91 62 53 125.5 c 128,-1,21
 15 189 15 189 15 274 c 256,22,23
 15 359 15 359 53 422.5 c 128,-1,24
 91 486 91 486 161 520.5 c 128,-1,25
 231 555 231 555 324 555 c 0,26,27
 446 555 446 555 513 483 c 1,28,29
 577 555 577 555 690 555 c 0,30,0
 781 555 781 555 847 518 c 128,-1,1
741 383 m 128,-1,32
 722 405 722 405 692 405 c 0,33,34
 663 405 663 405 644 384 c 128,-1,35
 625 363 625 363 618 327 c 1,36,-1
 758 327 l 1,37,31
 760 361 760 361 741 383 c 128,-1,32
383.5 194 m 128,-1,39
 406 223 406 223 406 271 c 256,40,41
 406 319 406 319 383.5 348 c 128,-1,42
 361 377 361 377 324 377 c 256,43,44
 287 377 287 377 264.5 348 c 128,-1,45
 242 319 242 319 242 271 c 256,46,47
 242 223 242 223 264.5 194 c 128,-1,48
 287 165 287 165 324 165 c 256,49,38
 361 165 361 165 383.5 194 c 128,-1,39
EndSplineSet
Substitution2: "<3,3> Small Caps in Latin lookup 11 subtable" oe.sc
EndChar

StartChar: Scedilla
Encoding: 350 350 289
Width: 664
Flags: W
LayerCount: 2
Fore
SplineSet
318.5 473 m 128,-1,1
 346 460 346 460 406 444 c 0,2,3
 481 423 481 423 530.5 402 c 128,-1,4
 580 381 580 381 617 335.5 c 128,-1,5
 654 290 654 290 654 216 c 0,6,7
 654 115 654 115 584.5 57 c 128,-1,8
 515 -1 515 -1 405 -11 c 1,9,-1
 387 -59 l 1,10,11
 470 -81 470 -81 470 -142 c 0,12,13
 470 -194 470 -194 430 -219 c 128,-1,14
 390 -244 390 -244 333 -244 c 0,15,16
 271 -244 271 -244 214 -225 c 1,17,-1
 244 -135 l 1,18,19
 264 -142 264 -142 289 -142 c 0,20,21
 307 -142 307 -142 318 -137 c 128,-1,22
 329 -132 329 -132 329 -123 c 0,23,24
 329 -111 329 -111 312.5 -105.5 c 128,-1,25
 296 -100 296 -100 272 -100 c 2,26,-1
 255 -100 l 1,27,-1
 285 -8 l 1,28,29
 208 2 208 2 135.5 30 c 128,-1,30
 63 58 63 58 8 101 c 1,31,-1
 94 276 l 1,32,33
 147 230 147 230 227 197.5 c 128,-1,34
 307 165 307 165 361 165 c 0,35,36
 387 165 387 165 402 174.5 c 128,-1,37
 417 184 417 184 417 204 c 0,38,39
 417 228 417 228 388.5 241.5 c 128,-1,40
 360 255 360 255 299 270 c 0,41,42
 225 289 225 289 175.5 309.5 c 128,-1,43
 126 330 126 330 90 373 c 128,-1,44
 54 416 54 416 54 488 c 0,45,46
 54 558 54 558 91 610.5 c 128,-1,47
 128 663 128 663 196 691 c 128,-1,48
 264 719 264 719 354 719 c 0,49,50
 436 719 436 719 517.5 696 c 128,-1,51
 599 673 599 673 659 635 c 1,52,-1
 575 458 l 1,53,54
 518 491 518 491 448 516 c 128,-1,55
 378 541 378 541 334 541 c 0,56,57
 291 541 291 541 291 510 c 0,58,0
 291 486 291 486 318.5 473 c 128,-1,1
EndSplineSet
EndChar

StartChar: scedilla
Encoding: 351 351 290
Width: 552
Flags: W
LayerCount: 2
Fore
SplineSet
261 371 m 128,-1,1
 279 363 279 363 321 352 c 0,2,3
 380 336 380 336 422 319 c 128,-1,4
 464 302 464 302 495.5 267 c 128,-1,5
 527 232 527 232 527 176 c 0,6,7
 527 103 527 103 476 54.5 c 128,-1,8
 425 6 425 6 337 -6 c 1,9,-1
 317 -59 l 1,10,11
 400 -81 400 -81 400 -142 c 0,12,13
 400 -194 400 -194 360 -219 c 128,-1,14
 320 -244 320 -244 263 -244 c 0,15,16
 201 -244 201 -244 144 -225 c 1,17,-1
 174 -135 l 1,18,19
 194 -142 194 -142 219 -142 c 0,20,21
 237 -142 237 -142 248 -137 c 128,-1,22
 259 -132 259 -132 259 -123 c 0,23,24
 259 -111 259 -111 242.5 -105.5 c 128,-1,25
 226 -100 226 -100 202 -100 c 2,26,-1
 185 -100 l 1,27,-1
 216 -6 l 1,28,29
 103 6 103 6 12 68 c 1,30,-1
 80 208 l 1,31,32
 190 140 190 140 282 140 c 0,33,34
 298 140 298 140 307 144.5 c 128,-1,35
 316 149 316 149 316 156 c 0,36,37
 316 167 316 167 298.5 174.5 c 128,-1,38
 281 182 281 182 242 192 c 0,39,40
 183 207 183 207 142 224 c 128,-1,41
 101 241 101 241 69.5 276 c 128,-1,42
 38 311 38 311 38 368 c 256,43,44
 38 425 38 425 68 467.5 c 128,-1,45
 98 510 98 510 152.5 533.5 c 128,-1,46
 207 557 207 557 279 557 c 0,47,48
 410 557 410 557 533 488 c 1,49,-1
 459 349 l 1,50,51
 337 409 337 409 274 409 c 0,52,53
 260 409 260 409 251.5 404 c 128,-1,54
 243 399 243 399 243 391 c 0,55,0
 243 379 243 379 261 371 c 128,-1,1
EndSplineSet
Substitution2: "<3,3> Small Caps in Latin lookup 11 subtable" scedilla.sc
EndChar

StartChar: uni0162
Encoding: 354 354 293
Width: 641
Flags: W
LayerCount: 2
Fore
SplineSet
384 0 m 1,0,-1
 362 -59 l 1,1,2
 445 -81 445 -81 445 -142 c 0,3,4
 445 -194 445 -194 405 -219 c 128,-1,5
 365 -244 365 -244 308 -244 c 0,6,7
 246 -244 246 -244 189 -225 c 1,8,-1
 219 -135 l 1,9,10
 239 -142 239 -142 264 -142 c 0,11,12
 282 -142 282 -142 293 -137 c 128,-1,13
 304 -132 304 -132 304 -123 c 0,14,15
 304 -111 304 -111 287.5 -105.5 c 128,-1,16
 271 -100 271 -100 247 -100 c 2,17,-1
 230 -100 l 1,18,-1
 263 0 l 1,19,-1
 204 0 l 1,20,-1
 204 518 l 1,21,-1
 5 518 l 1,22,-1
 5 701 l 1,23,-1
 636 701 l 1,24,-1
 636 518 l 1,25,-1
 436 518 l 1,26,-1
 436 0 l 1,27,-1
 384 0 l 1,0,-1
EndSplineSet
EndChar

StartChar: uni0163
Encoding: 355 355 294
Width: 460
Flags: W
LayerCount: 2
Fore
SplineSet
407 -142 m 0,1,2
 407 -194 407 -194 367 -219 c 128,-1,3
 327 -244 327 -244 270 -244 c 0,4,5
 208 -244 208 -244 151 -225 c 1,6,-1
 181 -135 l 1,7,8
 201 -142 201 -142 226 -142 c 0,9,10
 244 -142 244 -142 255 -137 c 128,-1,11
 266 -132 266 -132 266 -123 c 0,12,13
 266 -111 266 -111 249.5 -105.5 c 128,-1,14
 233 -100 233 -100 209 -100 c 2,15,-1
 192 -100 l 1,16,-1
 224 -3 l 1,17,18
 158 13 158 13 120.5 60 c 128,-1,19
 83 107 83 107 83 176 c 2,20,-1
 83 375 l 1,21,-1
 8 375 l 1,22,-1
 8 517 l 1,23,-1
 83 517 l 1,24,-1
 83 670 l 1,25,-1
 307 670 l 1,26,-1
 307 517 l 1,27,-1
 435 517 l 1,28,-1
 435 375 l 1,29,-1
 307 375 l 1,30,-1
 307 210 l 2,31,32
 307 188 307 188 319 175.5 c 128,-1,33
 331 163 331 163 351 164 c 0,34,35
 370 164 370 164 407 178 c 1,36,-1
 445 24 l 1,37,38
 406 2 406 2 344 -6 c 1,39,-1
 324 -59 l 1,40,0
 407 -81 407 -81 407 -142 c 0,1,2
EndSplineSet
Substitution2: "<3,3> Small Caps in Latin lookup 11 subtable" uni0163.sc
EndChar

StartChar: Tbar
Encoding: 358 358 297
Width: 641
Flags: W
LayerCount: 2
Fore
SplineSet
636 518 m 1,0,-1
 436 518 l 1,1,-1
 436 359 l 1,2,-1
 547 359 l 1,3,-1
 547 240 l 1,4,-1
 436 240 l 1,5,-1
 436 0 l 1,6,-1
 204 0 l 1,7,-1
 204 240 l 1,8,-1
 92 240 l 1,9,-1
 92 359 l 1,10,-1
 204 359 l 1,11,-1
 204 518 l 1,12,-1
 5 518 l 1,13,-1
 5 701 l 1,14,-1
 636 701 l 1,15,-1
 636 518 l 1,0,-1
EndSplineSet
EndChar

StartChar: tbar
Encoding: 359 359 298
Width: 460
Flags: W
LayerCount: 2
Fore
SplineSet
445 24 m 1,0,1
 418 8 418 8 374.5 -1 c 128,-1,2
 331 -10 331 -10 286 -10 c 0,3,4
 194 -10 194 -10 138.5 40.5 c 128,-1,5
 83 91 83 91 83 176 c 2,6,-1
 83 232 l 1,7,-1
 8 232 l 1,8,-1
 8 349 l 1,9,-1
 83 349 l 1,10,-1
 83 400 l 1,11,-1
 8 400 l 1,12,-1
 8 517 l 1,13,-1
 83 517 l 1,14,-1
 83 670 l 1,15,-1
 307 670 l 1,16,-1
 307 517 l 1,17,-1
 435 517 l 1,18,-1
 435 400 l 1,19,-1
 307 400 l 1,20,-1
 307 349 l 1,21,-1
 435 349 l 1,22,-1
 435 232 l 1,23,-1
 307 232 l 1,24,-1
 307 210 l 2,25,26
 307 188 307 188 319 175.5 c 128,-1,27
 331 163 331 163 351 164 c 0,28,29
 370 164 370 164 407 178 c 1,30,-1
 445 24 l 1,0,1
EndSplineSet
Substitution2: "<3,3> Small Caps in Latin lookup 11 subtable" tbar.sc
EndChar

StartChar: Uogonek
Encoding: 370 370 309
Width: 741
Flags: W
LayerCount: 2
Fore
SplineSet
701 701 m 1,0,-1
 701 291 l 2,1,2
 701 216 701 216 673.5 155 c 128,-1,3
 646 94 646 94 595 53 c 1,4,5
 559 17 559 17 538 -21 c 128,-1,6
 517 -59 517 -59 517 -88 c 0,7,8
 517 -116 517 -116 536 -116 c 0,9,10
 548 -116 548 -116 562 -108 c 1,11,-1
 593 -219 l 1,12,13
 566 -231 566 -231 542.5 -237.5 c 128,-1,14
 519 -244 519 -244 490 -244 c 0,15,16
 437 -244 437 -244 403.5 -216 c 128,-1,17
 370 -188 370 -188 370 -132 c 0,18,19
 370 -71 370 -71 421 -14 c 1,20,21
 391 -16 391 -16 373 -16 c 0,22,23
 274 -16 274 -16 198.5 22 c 128,-1,24
 123 60 123 60 81.5 129.5 c 128,-1,25
 40 199 40 199 40 291 c 2,26,-1
 40 701 l 1,27,-1
 272 701 l 1,28,-1
 272 291 l 2,29,30
 272 241 272 241 302 209 c 128,-1,31
 332 177 332 177 374 177 c 0,32,33
 415 177 415 177 442 208.5 c 128,-1,34
 469 240 469 240 469 291 c 2,35,-1
 469 701 l 1,36,-1
 701 701 l 1,0,-1
EndSplineSet
EndChar

StartChar: uogonek
Encoding: 371 371 310
Width: 672
Flags: W
LayerCount: 2
Fore
SplineSet
486 -90 m 0,1,2
 486 -116 486 -116 506 -116 c 0,3,4
 517 -116 517 -116 531 -108 c 1,5,-1
 562 -219 l 1,6,7
 506 -244 506 -244 455 -244 c 0,8,9
 398 -244 398 -244 368.5 -211 c 128,-1,10
 339 -178 339 -178 339 -127 c 0,11,12
 339 -62 339 -62 392 3 c 1,13,-1
 392 76 l 1,14,15
 365 34 365 34 324 12 c 128,-1,16
 283 -10 283 -10 231 -10 c 0,17,18
 175 -10 175 -10 132 16 c 128,-1,19
 89 42 89 42 64.5 89 c 128,-1,20
 40 136 40 136 40 198 c 2,21,-1
 40 547 l 1,22,-1
 265 547 l 1,23,-1
 265 263 l 2,24,25
 265 229 265 229 281.5 208.5 c 128,-1,26
 298 188 298 188 325 188 c 0,27,28
 356 188 356 188 374 212 c 128,-1,29
 392 236 392 236 392 276 c 2,30,-1
 392 547 l 1,31,-1
 617 547 l 1,32,-1
 617 0 l 1,33,-1
 555 0 l 1,34,0
 486 -48 486 -48 486 -90 c 0,1,2
EndSplineSet
Substitution2: "<3,3> Small Caps in Latin lookup 11 subtable" uogonek.sc
EndChar

StartChar: uni018F
Encoding: 399 399 322
Width: 800
Flags: W
LayerCount: 2
Fore
SplineSet
203 35 m 128,-1,1
 118 86 118 86 71.5 180 c 128,-1,2
 25 274 25 274 25 398 c 1,3,-1
 532 398 l 1,4,5
 521 455 521 455 486.5 489 c 128,-1,6
 452 523 452 523 403 523 c 0,7,8
 362 523 362 523 327.5 500 c 128,-1,9
 293 477 293 477 273 438 c 1,10,-1
 114 603 l 1,11,12
 166 657 166 657 239.5 686.5 c 128,-1,13
 313 716 313 716 400 716 c 0,14,15
 507 716 507 716 592.5 669 c 128,-1,16
 678 622 678 622 726.5 539 c 128,-1,17
 775 456 775 456 775 352 c 0,18,19
 775 247 775 247 726.5 163 c 128,-1,20
 678 79 678 79 592.5 31.5 c 128,-1,21
 507 -16 507 -16 400 -16 c 0,22,0
 288 -16 288 -16 203 35 c 128,-1,1
479 202 m 128,-1,24
 510 227 510 227 525 271 c 1,25,-1
 277 271 l 1,26,27
 294 227 294 227 327 202 c 128,-1,28
 360 177 360 177 403 177 c 0,29,23
 448 177 448 177 479 202 c 128,-1,24
EndSplineSet
EndChar

StartChar: florin
Encoding: 402 402 323
Width: 444
Flags: W
LayerCount: 2
Fore
SplineSet
352 565.5 m 128,-1,1
 337 553 337 553 334 532 c 2,2,-1
 326 467 l 1,3,-1
 432 467 l 1,4,-1
 415 325 l 1,5,-1
 309 325 l 1,6,-1
 267 -18 l 2,7,8
 256 -103 256 -103 191.5 -153.5 c 128,-1,9
 127 -204 127 -204 30 -204 c 0,10,11
 -7 -204 -7 -204 -45 -193.5 c 128,-1,12
 -83 -183 -83 -183 -107 -165 c 1,13,-1
 -53 -11 l 1,14,15
 -42 -20 -42 -20 -27.5 -25 c 128,-1,16
 -13 -30 -13 -30 -1 -30 c 0,17,18
 18 -31 18 -31 31 -18.5 c 128,-1,19
 44 -6 44 -6 47 16 c 2,20,-1
 85 325 l 1,21,-1
 10 325 l 1,22,-1
 27 467 l 1,23,-1
 103 467 l 1,24,-1
 115 566 l 2,25,26
 125 651 125 651 189.5 701.5 c 128,-1,27
 254 752 254 752 351 752 c 0,28,29
 397 752 397 752 443 741.5 c 128,-1,30
 489 731 489 731 519 713 c 1,31,-1
 445 559 l 1,32,33
 433 568 433 568 418 573 c 128,-1,34
 403 578 403 578 389 578 c 0,35,0
 367 578 367 578 352 565.5 c 128,-1,1
EndSplineSet
EndChar

StartChar: Ohorn
Encoding: 416 416 324
Width: 832
Flags: W
LayerCount: 2
Fore
SplineSet
826 743 m 0,1,2
 826 685 826 685 795 642 c 128,-1,3
 764 599 764 599 708 579 c 1,4,5
 745 533 745 533 765 475 c 128,-1,6
 785 417 785 417 785 352 c 0,7,8
 785 247 785 247 735.5 163 c 128,-1,9
 686 79 686 79 598 31.5 c 128,-1,10
 510 -16 510 -16 400 -16 c 256,11,12
 290 -16 290 -16 202 31.5 c 128,-1,13
 114 79 114 79 64.5 163 c 128,-1,14
 15 247 15 247 15 352 c 256,15,16
 15 457 15 457 64.5 540 c 128,-1,17
 114 623 114 623 202 669.5 c 128,-1,18
 290 716 290 716 400 716 c 0,19,20
 503 716 503 716 585 675 c 0,21,22
 590 674 590 674 599 674 c 0,23,24
 626 674 626 674 641 692.5 c 128,-1,25
 656 711 656 711 656 739 c 0,26,27
 656 772 656 772 636 801 c 1,28,-1
 796 859 l 1,29,0
 826 799 826 799 826 743 c 0,1,2
476 199.5 m 128,-1,31
 509 222 509 222 528 262 c 128,-1,32
 547 302 547 302 547 351 c 256,33,34
 547 400 547 400 528 439.5 c 128,-1,35
 509 479 509 479 476 501 c 128,-1,36
 443 523 443 523 403 523 c 256,37,38
 363 523 363 523 328.5 500.5 c 128,-1,39
 294 478 294 478 273.5 439 c 128,-1,40
 253 400 253 400 253 351 c 256,41,42
 253 302 253 302 273.5 262.5 c 128,-1,43
 294 223 294 223 328.5 200 c 128,-1,44
 363 177 363 177 403 177 c 256,45,30
 443 177 443 177 476 199.5 c 128,-1,31
EndSplineSet
EndChar

StartChar: ohorn
Encoding: 417 417 325
Width: 696
Flags: W
LayerCount: 2
Fore
SplineSet
727 588 m 0,1,2
 727 528 727 528 692.5 484 c 128,-1,3
 658 440 658 440 596 421 c 1,4,5
 633 358 633 358 633 274 c 0,6,7
 633 189 633 189 595 125.5 c 128,-1,8
 557 62 557 62 487 27 c 128,-1,9
 417 -8 417 -8 324 -8 c 256,10,11
 231 -8 231 -8 161 27 c 128,-1,12
 91 62 91 62 53 125.5 c 128,-1,13
 15 189 15 189 15 274 c 256,14,15
 15 359 15 359 53 422.5 c 128,-1,16
 91 486 91 486 161 520.5 c 128,-1,17
 231 555 231 555 324 555 c 0,18,19
 413 555 413 555 484 522 c 0,20,21
 494 520 494 520 500 520 c 0,22,23
 527 520 527 520 542 538.5 c 128,-1,24
 557 557 557 557 557 585 c 0,25,26
 557 618 557 618 537 647 c 1,27,-1
 697 705 l 1,28,0
 727 642 727 642 727 588 c 0,1,2
383.5 194 m 128,-1,30
 406 223 406 223 406 271 c 256,31,32
 406 319 406 319 383.5 348 c 128,-1,33
 361 377 361 377 324 377 c 256,34,35
 287 377 287 377 264.5 348 c 128,-1,36
 242 319 242 319 242 271 c 256,37,38
 242 223 242 223 264.5 194 c 128,-1,39
 287 165 287 165 324 165 c 256,40,29
 361 165 361 165 383.5 194 c 128,-1,30
EndSplineSet
Substitution2: "<3,3> Small Caps in Latin lookup 11 subtable" ohorn.sc
EndChar

StartChar: Uhorn
Encoding: 431 431 326
Width: 804
Flags: W
LayerCount: 2
Fore
SplineSet
831 750 m 0,1,2
 831 693 831 693 798 655.5 c 128,-1,3
 765 618 765 618 701 603 c 1,4,-1
 701 291 l 2,5,6
 701 199 701 199 660.5 129.5 c 128,-1,7
 620 60 620 60 546 22 c 128,-1,8
 472 -16 472 -16 373 -16 c 256,9,10
 274 -16 274 -16 198.5 22 c 128,-1,11
 123 60 123 60 81.5 129.5 c 128,-1,12
 40 199 40 199 40 291 c 2,13,-1
 40 701 l 1,14,-1
 272 701 l 1,15,-1
 272 291 l 2,16,17
 272 241 272 241 302 209 c 128,-1,18
 332 177 332 177 374 177 c 0,19,20
 415 177 415 177 442 208.5 c 128,-1,21
 469 240 469 240 469 291 c 2,22,-1
 469 701 l 1,23,-1
 621 701 l 2,24,25
 646 701 646 701 658.5 715.5 c 128,-1,26
 671 730 671 730 671 752 c 0,27,28
 671 766 671 766 666.5 779.5 c 128,-1,29
 662 793 662 793 654 802 c 1,30,-1
 807 859 l 1,31,0
 831 798 831 798 831 750 c 0,1,2
EndSplineSet
EndChar

StartChar: uhorn
Encoding: 432 432 327
Width: 708
Flags: W
LayerCount: 2
Fore
SplineSet
747 596 m 0,1,2
 747 539 747 539 714 501.5 c 128,-1,3
 681 464 681 464 617 449 c 1,4,-1
 617 0 l 1,5,-1
 392 0 l 1,6,-1
 392 76 l 1,7,8
 365 34 365 34 324 12 c 128,-1,9
 283 -10 283 -10 231 -10 c 0,10,11
 175 -10 175 -10 132 16 c 128,-1,12
 89 42 89 42 64.5 89 c 128,-1,13
 40 136 40 136 40 198 c 2,14,-1
 40 547 l 1,15,-1
 265 547 l 1,16,-1
 265 263 l 2,17,18
 265 229 265 229 281.5 208.5 c 128,-1,19
 298 188 298 188 325 188 c 0,20,21
 356 188 356 188 374 212 c 128,-1,22
 392 236 392 236 392 276 c 2,23,-1
 392 547 l 1,24,-1
 537 547 l 2,25,26
 562 547 562 547 574.5 561.5 c 128,-1,27
 587 576 587 576 587 598 c 0,28,29
 587 612 587 612 582.5 625.5 c 128,-1,30
 578 639 578 639 570 648 c 1,31,-1
 723 705 l 1,32,0
 747 644 747 644 747 596 c 0,1,2
EndSplineSet
Substitution2: "<3,3> Small Caps in Latin lookup 11 subtable" uhorn.sc
EndChar

StartChar: uni01EA
Encoding: 490 490 339
Width: 800
Flags: W
LayerCount: 2
Fore
SplineSet
743 177 m 128,-1,1
 701 98 701 98 627 49 c 1,2,3
 593 13 593 13 573 -23.5 c 128,-1,4
 553 -60 553 -60 553 -88 c 256,5,6
 553 -116 553 -116 572 -116 c 0,7,8
 584 -116 584 -116 598 -108 c 1,9,-1
 629 -219 l 1,10,11
 602 -231 602 -231 578.5 -237.5 c 128,-1,12
 555 -244 555 -244 526 -244 c 0,13,14
 473 -244 473 -244 439.5 -216 c 128,-1,15
 406 -188 406 -188 406 -132 c 0,16,17
 406 -70 406 -70 458 -12 c 1,18,19
 433 -16 433 -16 400 -16 c 0,20,21
 290 -16 290 -16 202 31.5 c 128,-1,22
 114 79 114 79 64.5 163 c 128,-1,23
 15 247 15 247 15 352 c 256,24,25
 15 457 15 457 64.5 540 c 128,-1,26
 114 623 114 623 202 669.5 c 128,-1,27
 290 716 290 716 400 716 c 256,28,29
 510 716 510 716 598 669 c 128,-1,30
 686 622 686 622 735.5 539 c 128,-1,31
 785 456 785 456 785 352 c 0,32,0
 785 256 785 256 743 177 c 128,-1,1
273.5 262.5 m 128,-1,34
 294 223 294 223 328.5 200 c 128,-1,35
 363 177 363 177 403 177 c 256,36,37
 443 177 443 177 476 199.5 c 128,-1,38
 509 222 509 222 528 262 c 128,-1,39
 547 302 547 302 547 351 c 256,40,41
 547 400 547 400 528 439.5 c 128,-1,42
 509 479 509 479 476 501 c 128,-1,43
 443 523 443 523 403 523 c 256,44,45
 363 523 363 523 328.5 500.5 c 128,-1,46
 294 478 294 478 273.5 439 c 128,-1,47
 253 400 253 400 253 351 c 256,48,33
 253 302 253 302 273.5 262.5 c 128,-1,34
EndSplineSet
EndChar

StartChar: uni01EB
Encoding: 491 491 340
Width: 648
Flags: W
LayerCount: 2
Fore
SplineSet
611 156.5 m 128,-1,1
 589 104 589 104 547 67 c 0,2,3
 504 27 504 27 479.5 -14.5 c 128,-1,4
 455 -56 455 -56 455 -88 c 0,5,6
 455 -116 455 -116 474 -116 c 0,7,8
 486 -116 486 -116 500 -108 c 1,9,-1
 531 -219 l 1,10,11
 504 -231 504 -231 480.5 -237.5 c 128,-1,12
 457 -244 457 -244 428 -244 c 0,13,14
 375 -244 375 -244 341.5 -216 c 128,-1,15
 308 -188 308 -188 308 -132 c 0,16,17
 308 -98 308 -98 322 -67.5 c 128,-1,18
 336 -37 336 -37 366 -6 c 1,19,20
 340 -8 340 -8 324 -8 c 0,21,22
 231 -8 231 -8 161 27 c 128,-1,23
 91 62 91 62 53 125.5 c 128,-1,24
 15 189 15 189 15 274 c 256,25,26
 15 359 15 359 53 422.5 c 128,-1,27
 91 486 91 486 161 520.5 c 128,-1,28
 231 555 231 555 324 555 c 256,29,30
 417 555 417 555 487 520.5 c 128,-1,31
 557 486 557 486 595 422.5 c 128,-1,32
 633 359 633 359 633 274 c 0,33,0
 633 209 633 209 611 156.5 c 128,-1,1
264.5 194 m 128,-1,35
 287 165 287 165 324 165 c 256,36,37
 361 165 361 165 383.5 194 c 128,-1,38
 406 223 406 223 406 271 c 256,39,40
 406 319 406 319 383.5 348 c 128,-1,41
 361 377 361 377 324 377 c 256,42,43
 287 377 287 377 264.5 348 c 128,-1,44
 242 319 242 319 242 271 c 256,45,34
 242 223 242 223 264.5 194 c 128,-1,35
EndSplineSet
Substitution2: "<3,3> Small Caps in Latin lookup 11 subtable" uni01EB.sc
EndChar

StartChar: uni0237
Encoding: 567 567 383
Width: 340
Flags: W
LayerCount: 2
Fore
SplineSet
16 -29 m 0,1,2
 37 -30 37 -30 48.5 -18 c 128,-1,3
 60 -6 60 -6 60 17 c 2,4,-1
 60 547 l 1,5,-1
 285 547 l 1,6,-1
 285 -17 l 2,7,8
 285 -102 285 -102 227 -152.5 c 128,-1,9
 169 -203 169 -203 71 -203 c 0,10,11
 -5 -203 -5 -203 -65 -180 c 1,12,-1
 -22 -23 l 1,13,0
 2 -29 2 -29 16 -29 c 0,1,2
EndSplineSet
EndChar

StartChar: uni0259
Encoding: 601 601 384
Width: 614
Flags: W
LayerCount: 2
Fore
SplineSet
460.5 520.5 m 128,-1,1
 528 486 528 486 563.5 423 c 128,-1,2
 599 360 599 360 599 276 c 0,3,4
 599 190 599 190 563 126 c 128,-1,5
 527 62 527 62 460.5 27 c 128,-1,6
 394 -8 394 -8 307 -8 c 0,7,8
 217 -8 217 -8 151 29 c 128,-1,9
 85 66 85 66 50 134.5 c 128,-1,10
 15 203 15 203 15 295 c 0,11,12
 15 314 15 314 16 324 c 1,13,-1
 372 324 l 1,14,15
 361 356 361 356 337.5 372.5 c 128,-1,16
 314 389 314 389 281 389 c 0,17,18
 222 389 222 389 170 340 c 1,19,-1
 53 455 l 1,20,21
 97 504 97 504 159.5 529.5 c 128,-1,22
 222 555 222 555 301 555 c 0,23,0
 393 555 393 555 460.5 520.5 c 128,-1,1
351.5 163 m 128,-1,25
 370 184 370 184 377 220 c 1,26,-1
 241 220 l 1,27,28
 239 186 239 186 257.5 164 c 128,-1,29
 276 142 276 142 305 142 c 0,30,24
 333 142 333 142 351.5 163 c 128,-1,25
EndSplineSet
Substitution2: "<3,3> Small Caps in Latin lookup 11 subtable" uni0259.sc
EndChar

StartChar: uni02BB
Encoding: 699 699 385
Width: 258
Flags: W
LayerCount: 2
Fore
SplineSet
208 470 m 1,0,-1
 50 506 l 1,1,-1
 80 700 l 1,2,-1
 208 700 l 1,3,-1
 208 470 l 1,0,-1
EndSplineSet
EndChar

StartChar: uni02BC
Encoding: 700 700 386
Width: 252
Flags: W
LayerCount: 2
Fore
SplineSet
50 701 m 1,0,-1
 195 701 l 1,1,-1
 165 437 l 1,2,-1
 50 437 l 1,3,-1
 50 701 l 1,0,-1
EndSplineSet
EndChar

StartChar: uni02BE
Encoding: 702 702 387
Width: 213
Flags: W
LayerCount: 2
Fore
SplineSet
53 664 m 1,0,1
 70 664 70 664 81 675.5 c 128,-1,2
 92 687 92 687 92 703 c 0,3,4
 92 720 92 720 81 731 c 128,-1,5
 70 742 70 742 53 742 c 1,6,-1
 53 827 l 1,7,8
 105 827 105 827 141 791 c 128,-1,9
 177 755 177 755 177 703 c 256,10,11
 177 651 177 651 141 615 c 128,-1,12
 105 579 105 579 53 579 c 1,13,-1
 53 664 l 1,0,1
EndSplineSet
EndChar

StartChar: uni02BF
Encoding: 703 703 388
Width: 212
Flags: W
LayerCount: 2
Fore
SplineSet
159 664 m 1,0,1
 143 664 143 664 131.5 675.5 c 128,-1,2
 120 687 120 687 120 703 c 0,3,4
 120 720 120 720 131.5 731 c 128,-1,5
 143 742 143 742 159 742 c 1,6,-1
 159 827 l 1,7,8
 107 827 107 827 71 791 c 128,-1,9
 35 755 35 755 35 703 c 256,10,11
 35 651 35 651 71 615 c 128,-1,12
 107 579 107 579 159 579 c 1,13,-1
 159 664 l 1,0,1
EndSplineSet
EndChar

StartChar: uni02C8
Encoding: 712 712 391
Width: 184
Flags: W
LayerCount: 2
Fore
SplineSet
20 497 m 1,0,-1
 20 701 l 1,1,-1
 164 701 l 1,2,-1
 164 497 l 1,3,-1
 20 497 l 1,0,-1
EndSplineSet
EndChar

StartChar: uni02CC
Encoding: 716 716 395
Width: 188
Flags: W
LayerCount: 2
Fore
SplineSet
20 -234 m 1,0,-1
 20 -30 l 1,1,-1
 168 -30 l 1,2,-1
 168 -234 l 1,3,-1
 20 -234 l 1,0,-1
EndSplineSet
EndChar

StartChar: gravecomb
Encoding: 768 768 402
Width: 0
Flags: W
LayerCount: 2
Fore
SplineSet
-167 780 m 1,0,-1
 -56 601 l 1,1,-1
 -199 591 l 1,2,-1
 -337 720 l 1,3,-1
 -167 780 l 1,0,-1
EndSplineSet
Substitution2: "<3,3> Small Caps in Latin lookup 11 subtable" gravecomb.sc
EndChar

StartChar: acutecomb
Encoding: 769 769 403
Width: 0
Flags: W
LayerCount: 2
Fore
SplineSet
-182 780 m 1,0,-1
 -13 720 l 1,1,-1
 -175 591 l 1,2,-1
 -317 601 l 1,3,-1
 -182 780 l 1,0,-1
EndSplineSet
Substitution2: "<3,3> Small Caps in Latin lookup 11 subtable" acutecomb.sc
EndChar

StartChar: uni0302
Encoding: 770 770 404
Width: 0
Flags: W
LayerCount: 2
Fore
SplineSet
-20 607 m 1,0,-1
 -160 607 l 1,1,-1
 -225 679 l 1,2,-1
 -290 607 l 1,3,-1
 -430 607 l 1,4,-1
 -319 769 l 1,5,-1
 -131 769 l 1,6,-1
 -20 607 l 1,0,-1
EndSplineSet
Substitution2: "<3,3> Small Caps in Latin lookup 11 subtable" uni0302.sc
EndChar

StartChar: tildecomb
Encoding: 771 771 405
Width: 0
Flags: W
LayerCount: 2
Fore
SplineSet
-35.5 636 m 128,-1,1
 -61 594 -61 594 -117 594 c 0,2,3
 -142 594 -142 594 -162.5 601 c 128,-1,4
 -183 608 -183 608 -209 621 c 0,5,6
 -212 622 -212 622 -226 628.5 c 128,-1,7
 -240 635 -240 635 -250 635 c 0,8,9
 -264 635 -264 635 -271 625.5 c 128,-1,10
 -278 616 -278 616 -279 596 c 1,11,-1
 -396 596 l 1,12,13
 -396 688 -396 688 -370 731 c 128,-1,14
 -344 774 -344 774 -288 774 c 0,15,16
 -263 774 -263 774 -242 766.5 c 128,-1,17
 -221 759 -221 759 -196 747 c 0,18,19
 -168 733 -168 733 -156 733 c 0,20,21
 -141 733 -141 733 -134 742 c 128,-1,22
 -127 751 -127 751 -126 771 c 1,23,-1
 -10 771 l 1,24,0
 -10 678 -10 678 -35.5 636 c 128,-1,1
EndSplineSet
Substitution2: "<3,3> Small Caps in Latin lookup 11 subtable" tildecomb.sc
EndChar

StartChar: uni0304
Encoding: 772 772 406
Width: 0
Flags: W
LayerCount: 2
Fore
SplineSet
-330 762 m 1,0,-1
 -10 762 l 1,1,-1
 -10 634 l 1,2,-1
 -330 634 l 1,3,-1
 -330 762 l 1,0,-1
EndSplineSet
Substitution2: "<3,3> Small Caps in Latin lookup 11 subtable" uni0304.sc
EndChar

StartChar: uni0306
Encoding: 774 774 407
Width: 0
Flags: W
LayerCount: 2
Fore
SplineSet
-227.5 732.5 m 128,-1,1
 -214 719 -214 719 -194 719 c 256,2,3
 -174 719 -174 719 -160.5 732.5 c 128,-1,4
 -147 746 -147 746 -145 769 c 1,5,-1
 -10 769 l 1,6,7
 -14 690 -14 690 -64 642.5 c 128,-1,8
 -114 595 -114 595 -194 595 c 256,9,10
 -274 595 -274 595 -324 642.5 c 128,-1,11
 -374 690 -374 690 -378 769 c 1,12,-1
 -243 769 l 1,13,0
 -241 746 -241 746 -227.5 732.5 c 128,-1,1
EndSplineSet
Substitution2: "<3,3> Small Caps in Latin lookup 11 subtable" uni0306.sc
EndChar

StartChar: uni0307
Encoding: 775 775 408
Width: 0
Flags: W
LayerCount: 2
Fore
SplineSet
-62 785 m 128,-1,1
 -30 753 -30 753 -30 703 c 256,2,3
 -30 653 -30 653 -62 621 c 128,-1,4
 -94 589 -94 589 -144 589 c 256,5,6
 -194 589 -194 589 -226 621 c 128,-1,7
 -258 653 -258 653 -258 703 c 256,8,9
 -258 753 -258 753 -226 785 c 128,-1,10
 -194 817 -194 817 -144 817 c 256,11,0
 -94 817 -94 817 -62 785 c 128,-1,1
EndSplineSet
Substitution2: "<3,3> Small Caps in Latin lookup 11 subtable" uni0307.sc
EndChar

StartChar: uni0308
Encoding: 776 776 409
Width: 0
Flags: W
LayerCount: 2
Fore
SplineSet
-292.5 757 m 128,-1,1
 -268 732 -268 732 -268 693 c 0,2,3
 -268 655 -268 655 -292.5 630 c 128,-1,4
 -317 605 -317 605 -356 605 c 256,5,6
 -395 605 -395 605 -419.5 630 c 128,-1,7
 -444 655 -444 655 -444 693 c 0,8,9
 -444 732 -444 732 -419.5 757 c 128,-1,10
 -395 782 -395 782 -356 782 c 256,11,0
 -317 782 -317 782 -292.5 757 c 128,-1,1
-90.5 757 m 128,-1,13
 -66 732 -66 732 -66 693 c 0,14,15
 -66 655 -66 655 -90.5 630 c 128,-1,16
 -115 605 -115 605 -154 605 c 256,17,18
 -193 605 -193 605 -217.5 630 c 128,-1,19
 -242 655 -242 655 -242 693 c 0,20,21
 -242 732 -242 732 -217.5 757 c 128,-1,22
 -193 782 -193 782 -154 782 c 256,23,12
 -115 782 -115 782 -90.5 757 c 128,-1,13
EndSplineSet
Substitution2: "<3,3> Small Caps in Latin lookup 11 subtable" uni0308.sc
EndChar

StartChar: hookabovecomb
Encoding: 777 777 410
Width: 0
Flags: W
LayerCount: 2
Fore
SplineSet
-65.5 808.5 m 128,-1,1
 -35 780 -35 780 -35 735 c 0,2,3
 -35 658 -35 658 -129 587 c 1,4,-1
 -221 624 l 1,5,6
 -199 643 -199 643 -186.5 662 c 128,-1,7
 -174 681 -174 681 -174 698 c 0,8,9
 -174 711 -174 711 -181.5 718 c 128,-1,10
 -189 725 -189 725 -202 725 c 0,11,12
 -223 725 -223 725 -241 710 c 1,13,-1
 -295 793 l 1,14,15
 -225 837 -225 837 -156 837 c 0,16,0
 -96 837 -96 837 -65.5 808.5 c 128,-1,1
EndSplineSet
Substitution2: "<3,3> Small Caps in Latin lookup 11 subtable" hookabovecomb.sc
EndChar

StartChar: uni030A
Encoding: 778 778 411
Width: 0
Flags: W
LayerCount: 2
Fore
SplineSet
-72 791 m 128,-1,1
 -36 755 -36 755 -36 703 c 256,2,3
 -36 651 -36 651 -72 615 c 128,-1,4
 -108 579 -108 579 -160 579 c 256,5,6
 -212 579 -212 579 -248 615 c 128,-1,7
 -284 651 -284 651 -284 703 c 256,8,9
 -284 755 -284 755 -248 791 c 128,-1,10
 -212 827 -212 827 -160 827 c 256,11,0
 -108 827 -108 827 -72 791 c 128,-1,1
-188 731 m 128,-1,13
 -199 720 -199 720 -199 703 c 0,14,15
 -199 687 -199 687 -188 675.5 c 128,-1,16
 -177 664 -177 664 -160 664 c 0,17,18
 -144 664 -144 664 -132.5 675.5 c 128,-1,19
 -121 687 -121 687 -121 703 c 0,20,21
 -121 720 -121 720 -132.5 731 c 128,-1,22
 -144 742 -144 742 -160 742 c 0,23,12
 -177 742 -177 742 -188 731 c 128,-1,13
EndSplineSet
EndChar

StartChar: uni030B
Encoding: 779 779 412
Width: 0
Flags: W
LayerCount: 2
Fore
SplineSet
-401 780 m 1,0,-1
 -239 727 l 1,1,-1
 -328 591 l 1,2,-1
 -484 601 l 1,3,-1
 -401 780 l 1,0,-1
-180 780 m 1,4,-1
 -18 727 l 1,5,-1
 -107 591 l 1,6,-1
 -263 601 l 1,7,-1
 -180 780 l 1,4,-1
EndSplineSet
Substitution2: "<3,3> Small Caps in Latin lookup 11 subtable" uni030B.sc
EndChar

StartChar: uni030C
Encoding: 780 780 413
Width: 0
Flags: W
LayerCount: 2
Fore
SplineSet
-190 769 m 1,0,-1
 -50 769 l 1,1,-1
 -161 607 l 1,2,-1
 -349 607 l 1,3,-1
 -460 769 l 1,4,-1
 -320 769 l 1,5,-1
 -255 698 l 1,6,-1
 -190 769 l 1,0,-1
EndSplineSet
Substitution2: "<3,3> Small Caps in Latin lookup 11 subtable" uni030C.sc
EndChar

StartChar: uni030F
Encoding: 783 783 414
Width: 0
Flags: W
LayerCount: 2
Fore
SplineSet
-358 780 m 1,0,-1
 -276 601 l 1,1,-1
 -431 591 l 1,2,-1
 -520 727 l 1,3,-1
 -358 780 l 1,0,-1
-137 780 m 1,4,-1
 -55 601 l 1,5,-1
 -210 591 l 1,6,-1
 -299 727 l 1,7,-1
 -137 780 l 1,4,-1
EndSplineSet
Substitution2: "<3,3> Small Caps in Latin lookup 11 subtable" uni030F.sc
EndChar

StartChar: uni0311
Encoding: 785 785 415
Width: 0
Flags: W
LayerCount: 2
Fore
SplineSet
-378 595 m 1,0,1
 -374 674 -374 674 -324 721.5 c 128,-1,2
 -274 769 -274 769 -194 769 c 256,3,4
 -114 769 -114 769 -64 721.5 c 128,-1,5
 -14 674 -14 674 -10 595 c 1,6,-1
 -145 595 l 1,7,8
 -147 618 -147 618 -160.5 631.5 c 128,-1,9
 -174 645 -174 645 -194 645 c 256,10,11
 -214 645 -214 645 -227.5 631.5 c 128,-1,12
 -241 618 -241 618 -243 595 c 1,13,-1
 -378 595 l 1,0,1
EndSplineSet
Substitution2: "<3,3> Small Caps in Latin lookup 11 subtable" uni0311.sc
EndChar

StartChar: uni0312
Encoding: 786 786 416
Width: 0
Flags: W
LayerCount: 2
Fore
SplineSet
-66 608 m 1,0,-1
 -241 608 l 1,1,-1
 -155 791 l 1,2,-1
 -35 791 l 1,3,-1
 -66 608 l 1,0,-1
EndSplineSet
EndChar

StartChar: uni031B
Encoding: 795 795 417
Width: 0
Flags: W
LayerCount: 2
Fore
SplineSet
-54 596 m 0,1,2
 -54 519 -54 519 -113 478.5 c 128,-1,3
 -172 438 -172 438 -284 438 c 1,4,-1
 -264 547 l 1,5,6
 -239 547 -239 547 -226.5 561.5 c 128,-1,7
 -214 576 -214 576 -214 598 c 0,8,9
 -214 612 -214 612 -218.5 625.5 c 128,-1,10
 -223 639 -223 639 -231 648 c 1,11,-1
 -78 705 l 1,12,0
 -54 644 -54 644 -54 596 c 0,1,2
EndSplineSet
EndChar

StartChar: dotbelowcomb
Encoding: 803 803 418
Width: 0
Flags: W
LayerCount: 2
Fore
SplineSet
-62 -97 m 128,-1,1
 -30 -129 -30 -129 -30 -179 c 256,2,3
 -30 -229 -30 -229 -62 -261 c 128,-1,4
 -94 -293 -94 -293 -144 -293 c 256,5,6
 -194 -293 -194 -293 -226 -261 c 128,-1,7
 -258 -229 -258 -229 -258 -179 c 256,8,9
 -258 -129 -258 -129 -226 -97 c 128,-1,10
 -194 -65 -194 -65 -144 -65 c 256,11,0
 -94 -65 -94 -65 -62 -97 c 128,-1,1
EndSplineSet
Substitution2: "<3,3> Small Caps in Latin lookup 11 subtable" dotbelowcomb.sc
EndChar

StartChar: uni0324
Encoding: 804 804 419
Width: 0
Flags: W
LayerCount: 2
Fore
SplineSet
-282.5 -89 m 128,-1,1
 -258 -114 -258 -114 -258 -153 c 0,2,3
 -258 -191 -258 -191 -282.5 -216 c 128,-1,4
 -307 -241 -307 -241 -346 -241 c 256,5,6
 -385 -241 -385 -241 -409.5 -216 c 128,-1,7
 -434 -191 -434 -191 -434 -153 c 0,8,9
 -434 -114 -434 -114 -409.5 -89 c 128,-1,10
 -385 -64 -385 -64 -346 -64 c 256,11,0
 -307 -64 -307 -64 -282.5 -89 c 128,-1,1
-80.5 -89 m 128,-1,13
 -56 -114 -56 -114 -56 -153 c 0,14,15
 -56 -191 -56 -191 -80.5 -216 c 128,-1,16
 -105 -241 -105 -241 -144 -241 c 256,17,18
 -183 -241 -183 -241 -207.5 -216 c 128,-1,19
 -232 -191 -232 -191 -232 -153 c 0,20,21
 -232 -114 -232 -114 -207.5 -89 c 128,-1,22
 -183 -64 -183 -64 -144 -64 c 256,23,12
 -105 -64 -105 -64 -80.5 -89 c 128,-1,13
EndSplineSet
Substitution2: "<3,3> Small Caps in Latin lookup 11 subtable" uni0324.sc
EndChar

StartChar: uni0326
Encoding: 806 806 420
Width: 0
Flags: W
LayerCount: 2
Fore
SplineSet
-227 -61 m 1,0,-1
 -52 -61 l 1,1,-1
 -138 -244 l 1,2,-1
 -258 -244 l 1,3,-1
 -227 -61 l 1,0,-1
EndSplineSet
EndChar

StartChar: uni0327
Encoding: 807 807 421
Width: 0
Flags: W
LayerCount: 2
Fore
SplineSet
-89 0 m 1,0,-1
 -111 -59 l 1,1,2
 -28 -81 -28 -81 -28 -142 c 0,3,4
 -28 -194 -28 -194 -68 -219 c 128,-1,5
 -108 -244 -108 -244 -165 -244 c 0,6,7
 -227 -244 -227 -244 -284 -225 c 1,8,-1
 -254 -135 l 1,9,10
 -234 -142 -234 -142 -209 -142 c 0,11,12
 -191 -142 -191 -142 -180 -137 c 128,-1,13
 -169 -132 -169 -132 -169 -123 c 0,14,15
 -169 -111 -169 -111 -185.5 -105.5 c 128,-1,16
 -202 -100 -202 -100 -226 -100 c 2,17,-1
 -243 -100 l 1,18,-1
 -207 10 l 1,19,-1
 -89 0 l 1,0,-1
EndSplineSet
Substitution2: "<3,3> Small Caps in Latin lookup 11 subtable" uni0327.sc
EndChar

StartChar: uni0328
Encoding: 808 808 422
Width: 0
Flags: W
LayerCount: 2
Fore
SplineSet
-60 0 m 1,0,1
 -129 -48 -129 -48 -129 -90 c 0,2,3
 -129 -116 -129 -116 -109 -116 c 0,4,5
 -98 -116 -98 -116 -84 -108 c 1,6,-1
 -53 -219 l 1,7,8
 -109 -244 -109 -244 -160 -244 c 0,9,10
 -217 -244 -217 -244 -246.5 -211 c 128,-1,11
 -276 -178 -276 -178 -276 -127 c 0,12,13
 -276 -83 -276 -83 -252 -39.5 c 128,-1,14
 -228 4 -228 4 -183 43 c 1,15,-1
 -60 0 l 1,0,1
EndSplineSet
EndChar

StartChar: uni032E
Encoding: 814 814 423
Width: 0
Flags: W
LayerCount: 2
Fore
SplineSet
-227.5 -101.5 m 128,-1,1
 -214 -115 -214 -115 -194 -115 c 256,2,3
 -174 -115 -174 -115 -160.5 -101.5 c 128,-1,4
 -147 -88 -147 -88 -145 -65 c 1,5,-1
 -10 -65 l 1,6,7
 -14 -144 -14 -144 -64 -191.5 c 128,-1,8
 -114 -239 -114 -239 -194 -239 c 256,9,10
 -274 -239 -274 -239 -324 -191.5 c 128,-1,11
 -374 -144 -374 -144 -378 -65 c 1,12,-1
 -243 -65 l 1,13,0
 -241 -88 -241 -88 -227.5 -101.5 c 128,-1,1
EndSplineSet
EndChar

StartChar: uni0331
Encoding: 817 817 424
Width: 0
Flags: W
LayerCount: 2
Fore
SplineSet
-360 -75 m 1,0,-1
 -40 -75 l 1,1,-1
 -40 -203 l 1,2,-1
 -360 -203 l 1,3,-1
 -360 -75 l 1,0,-1
EndSplineSet
EndChar

StartChar: uni0335
Encoding: 821 821 425
Width: 0
Flags: W
LayerCount: 2
Fore
SplineSet
-432 492 m 1,0,-1
 -5 492 l 1,1,-1
 -5 373 l 1,2,-1
 -432 373 l 1,3,-1
 -432 492 l 1,0,-1
EndSplineSet
EndChar

StartChar: uni0336
Encoding: 822 822 426
Width: 0
Flags: W
LayerCount: 2
Fore
SplineSet
-530 492 m 1,0,-1
 -75 492 l 1,1,-1
 -75 373 l 1,2,-1
 -530 373 l 1,3,-1
 -530 492 l 1,0,-1
EndSplineSet
EndChar

StartChar: uni0337
Encoding: 823 823 427
Width: 0
Flags: W
LayerCount: 2
Fore
SplineSet
9 570 m 1,0,-1
 -165 89 l 1,1,-1
 -353 89 l 1,2,-1
 -179 570 l 1,3,-1
 9 570 l 1,0,-1
EndSplineSet
EndChar

StartChar: uni0338
Encoding: 824 824 428
Width: 0
Flags: W
LayerCount: 2
Fore
SplineSet
-385 0 m 1,0,-1
 -117 742 l 1,1,-1
 71 742 l 1,2,-1
 -197 0 l 1,3,-1
 -385 0 l 1,0,-1
EndSplineSet
EndChar

StartChar: uni0394
Encoding: 916 916 429
Width: 799
Flags: W
LayerCount: 2
Fore
SplineSet
524 701 m 1,0,-1
 809 0 l 1,1,-1
 -10 0 l 1,2,-1
 286 701 l 1,3,-1
 524 701 l 1,0,-1
288 166 m 1,4,-1
 504 166 l 1,5,-1
 398 470 l 1,6,-1
 288 166 l 1,4,-1
EndSplineSet
EndChar

StartChar: uni03A9
Encoding: 937 937 430
Width: 833
Flags: W
LayerCount: 2
Fore
SplineSet
542.5 278.5 m 128,-1,1
 573 324 573 324 573 376 c 0,2,3
 573 441 573 441 529 482.5 c 128,-1,4
 485 524 485 524 416 524 c 256,5,6
 347 524 347 524 303.5 482.5 c 128,-1,7
 260 441 260 441 260 376 c 0,8,9
 260 323 260 323 291 277 c 128,-1,10
 322 231 322 231 375 206 c 1,11,-1
 375 0 l 1,12,-1
 5 0 l 1,13,-1
 5 180 l 1,14,-1
 170 180 l 1,15,16
 114 226 114 226 84.5 283 c 128,-1,17
 55 340 55 340 55 404 c 0,18,19
 55 489 55 489 103 559 c 128,-1,20
 151 629 151 629 234 670 c 128,-1,21
 317 711 317 711 416 711 c 0,22,23
 516 711 516 711 599 670 c 128,-1,24
 682 629 682 629 730 558.5 c 128,-1,25
 778 488 778 488 778 403 c 0,26,27
 778 340 778 340 749 283 c 128,-1,28
 720 226 720 226 664 180 c 1,29,-1
 828 180 l 1,30,-1
 828 0 l 1,31,-1
 458 0 l 1,32,-1
 458 206 l 1,33,0
 512 233 512 233 542.5 278.5 c 128,-1,1
EndSplineSet
EndChar

StartChar: uni03BC
Encoding: 956 956 431
Width: 692
Flags: W
LayerCount: 2
Fore
SplineSet
637 547 m 1,0,-1
 637 0 l 1,1,-1
 412 0 l 1,2,-1
 412 76 l 1,3,4
 365 5 365 5 285 -7 c 1,5,-1
 285 -194 l 1,6,-1
 60 -194 l 1,7,-1
 60 547 l 1,8,-1
 285 547 l 1,9,-1
 285 263 l 2,10,11
 285 229 285 229 301.5 208.5 c 128,-1,12
 318 188 318 188 345 188 c 0,13,14
 376 188 376 188 394 212 c 128,-1,15
 412 236 412 236 412 276 c 2,16,-1
 412 547 l 1,17,-1
 637 547 l 1,0,-1
EndSplineSet
EndChar

StartChar: pi
Encoding: 960 960 432
Width: 733
Flags: W
LayerCount: 2
Fore
SplineSet
614 391 m 1,0,-1
 614 0 l 1,1,-1
 429 0 l 1,2,-1
 429 391 l 1,3,-1
 392 391 l 1,4,-1
 352 0 l 1,5,-1
 167 0 l 1,6,-1
 207 391 l 1,7,-1
 194 391 l 2,8,9
 175 391 175 391 163 379.5 c 128,-1,10
 151 368 151 368 152 350 c 0,11,12
 152 339 152 339 157 321.5 c 128,-1,13
 162 304 162 304 170 288 c 1,14,-1
 16 236 l 1,15,16
 -1 272 -1 272 -11.5 314 c 128,-1,17
 -22 356 -22 356 -22 390 c 0,18,19
 -22 435 -22 435 2 471 c 128,-1,20
 26 507 26 507 68.5 527 c 128,-1,21
 111 547 111 547 164 547 c 2,22,-1
 719 547 l 1,23,-1
 720 391 l 1,24,-1
 614 391 l 1,0,-1
EndSplineSet
EndChar

StartChar: uni1E08
Encoding: 7688 7688 433
Width: 688
Flags: W
LayerCount: 2
Fore
SplineSet
537 874 m 1,0,-1
 375 745 l 1,1,-1
 233 755 l 1,2,-1
 368 934 l 1,3,-1
 537 874 l 1,0,-1
479.5 209.5 m 128,-1,5
 523 232 523 232 557 269 c 1,6,-1
 691 126 l 1,7,8
 640 70 640 70 569.5 32.5 c 128,-1,9
 499 -5 499 -5 427 -13 c 1,10,-1
 410 -59 l 1,11,12
 493 -81 493 -81 493 -142 c 0,13,14
 493 -194 493 -194 453 -219 c 128,-1,15
 413 -244 413 -244 356 -244 c 0,16,17
 294 -244 294 -244 237 -225 c 1,18,-1
 267 -135 l 1,19,20
 287 -142 287 -142 312 -142 c 0,21,22
 330 -142 330 -142 341 -137 c 128,-1,23
 352 -132 352 -132 352 -123 c 0,24,25
 352 -111 352 -111 335.5 -105.5 c 128,-1,26
 319 -100 319 -100 295 -100 c 2,27,-1
 278 -100 l 1,28,-1
 308 -9 l 1,29,30
 222 7 222 7 155.5 57.5 c 128,-1,31
 89 108 89 108 52 184.5 c 128,-1,32
 15 261 15 261 15 353 c 0,33,34
 15 457 15 457 64 539.5 c 128,-1,35
 113 622 113 622 199.5 669 c 128,-1,36
 286 716 286 716 395 716 c 0,37,38
 475 716 475 716 556 680.5 c 128,-1,39
 637 645 637 645 691 586 c 1,40,-1
 557 427 l 1,41,42
 526 470 526 470 482.5 496.5 c 128,-1,43
 439 523 439 523 398 523 c 256,44,45
 357 523 357 523 323.5 501.5 c 128,-1,46
 290 480 290 480 271.5 442 c 128,-1,47
 253 404 253 404 253 356 c 256,48,49
 253 308 253 308 271.5 269.5 c 128,-1,50
 290 231 290 231 323.5 209 c 128,-1,51
 357 187 357 187 398 187 c 0,52,4
 436 187 436 187 479.5 209.5 c 128,-1,5
EndSplineSet
EndChar

StartChar: uni1E09
Encoding: 7689 7689 434
Width: 561
Flags: W
LayerCount: 2
Fore
SplineSet
476 720 m 1,0,-1
 314 591 l 1,1,-1
 172 601 l 1,2,-1
 307 780 l 1,3,-1
 476 720 l 1,0,-1
381 229 m 1,5,-1
 563 145 l 1,6,7
 538 82 538 82 483 43.5 c 128,-1,8
 428 5 428 5 352 -5 c 1,9,-1
 332 -59 l 1,10,11
 415 -81 415 -81 415 -142 c 0,12,13
 415 -194 415 -194 375 -219 c 128,-1,14
 335 -244 335 -244 278 -244 c 0,15,16
 216 -244 216 -244 159 -225 c 1,17,-1
 189 -135 l 1,18,19
 209 -142 209 -142 234 -142 c 0,20,21
 252 -142 252 -142 263 -137 c 128,-1,22
 274 -132 274 -132 274 -123 c 0,23,24
 274 -111 274 -111 257.5 -105.5 c 128,-1,25
 241 -100 241 -100 217 -100 c 2,26,-1
 200 -100 l 1,27,-1
 232 -2 l 1,28,29
 131 18 131 18 73 90.5 c 128,-1,30
 15 163 15 163 15 271 c 0,31,32
 15 356 15 356 50.5 420.5 c 128,-1,33
 86 485 86 485 151.5 520 c 128,-1,34
 217 555 217 555 304 555 c 0,35,36
 393 555 393 555 461 513.5 c 128,-1,37
 529 472 529 472 563 397 c 1,38,-1
 384 321 l 1,39,40
 362 373 362 373 314 373 c 0,41,42
 281 373 281 373 261.5 345.5 c 128,-1,43
 242 318 242 318 242 272 c 0,44,45
 242 225 242 225 261.5 197.5 c 128,-1,46
 281 170 281 170 314 170 c 0,47,4
 364 170 364 170 381 229 c 1,5,-1
EndSplineSet
Substitution2: "<3,3> Small Caps in Latin lookup 11 subtable" uni1E09.sc
EndChar

StartChar: uni1E1C
Encoding: 7708 7708 443
Width: 690
Flags: W
LayerCount: 2
Fore
SplineSet
198 799.5 m 128,-1,1
 148 847 148 847 144 926 c 1,2,-1
 279 926 l 1,3,4
 281 903 281 903 294.5 889.5 c 128,-1,5
 308 876 308 876 328 876 c 256,6,7
 348 876 348 876 361.5 889.5 c 128,-1,8
 375 903 375 903 377 926 c 1,9,-1
 512 926 l 1,10,11
 508 847 508 847 458 799.5 c 128,-1,12
 408 752 408 752 328 752 c 256,13,0
 248 752 248 752 198 799.5 c 128,-1,1
415 0 m 1,14,-1
 393 -59 l 1,15,16
 476 -81 476 -81 476 -142 c 0,17,18
 476 -194 476 -194 436 -219 c 128,-1,19
 396 -244 396 -244 339 -244 c 0,20,21
 277 -244 277 -244 220 -225 c 1,22,-1
 250 -135 l 1,23,24
 270 -142 270 -142 295 -142 c 0,25,26
 313 -142 313 -142 324 -137 c 128,-1,27
 335 -132 335 -132 335 -123 c 0,28,29
 335 -111 335 -111 318.5 -105.5 c 128,-1,30
 302 -100 302 -100 278 -100 c 2,31,-1
 261 -100 l 1,32,-1
 294 0 l 1,33,-1
 50 0 l 1,34,-1
 50 701 l 1,35,-1
 643 701 l 1,36,-1
 643 525 l 1,37,-1
 282 525 l 1,38,-1
 282 439 l 1,39,-1
 610 439 l 1,40,-1
 610 263 l 1,41,-1
 282 263 l 1,42,-1
 282 176 l 1,43,-1
 652 176 l 1,44,-1
 652 0 l 1,45,-1
 415 0 l 1,14,-1
EndSplineSet
EndChar

StartChar: uni1E1D
Encoding: 7709 7709 444
Width: 614
Flags: W
LayerCount: 2
Fore
SplineSet
171 642.5 m 128,-1,1
 121 690 121 690 117 769 c 1,2,-1
 252 769 l 1,3,4
 254 746 254 746 267.5 732.5 c 128,-1,5
 281 719 281 719 301 719 c 256,6,7
 321 719 321 719 334.5 732.5 c 128,-1,8
 348 746 348 746 350 769 c 1,9,-1
 485 769 l 1,10,11
 481 690 481 690 431 642.5 c 128,-1,12
 381 595 381 595 301 595 c 256,13,0
 221 595 221 595 171 642.5 c 128,-1,1
463 518 m 128,-1,15
 529 481 529 481 564 412.5 c 128,-1,16
 599 344 599 344 599 252 c 0,17,18
 599 233 599 233 598 223 c 1,19,-1
 242 223 l 1,20,21
 253 191 253 191 276.5 174.5 c 128,-1,22
 300 158 300 158 333 158 c 0,23,24
 392 158 392 158 444 207 c 1,25,-1
 561 92 l 1,26,27
 488 11 488 11 369 -4 c 1,28,-1
 349 -59 l 1,29,30
 432 -81 432 -81 432 -142 c 0,31,32
 432 -194 432 -194 392 -219 c 128,-1,33
 352 -244 352 -244 295 -244 c 0,34,35
 233 -244 233 -244 176 -225 c 1,36,-1
 206 -135 l 1,37,38
 226 -142 226 -142 251 -142 c 0,39,40
 269 -142 269 -142 280 -137 c 128,-1,41
 291 -132 291 -132 291 -123 c 0,42,43
 291 -111 291 -111 274.5 -105.5 c 128,-1,44
 258 -100 258 -100 234 -100 c 2,45,-1
 217 -100 l 1,46,-1
 249 -3 l 1,47,48
 138 13 138 13 76.5 86 c 128,-1,49
 15 159 15 159 15 271 c 0,50,51
 15 357 15 357 51 421 c 128,-1,52
 87 485 87 485 153.5 520 c 128,-1,53
 220 555 220 555 307 555 c 0,54,14
 397 555 397 555 463 518 c 128,-1,15
356.5 383 m 128,-1,56
 338 405 338 405 309 405 c 0,57,58
 281 405 281 405 262.5 384 c 128,-1,59
 244 363 244 363 237 327 c 1,60,-1
 373 327 l 1,61,55
 375 361 375 361 356.5 383 c 128,-1,56
EndSplineSet
Substitution2: "<3,3> Small Caps in Latin lookup 11 subtable" uni1E1D.sc
EndChar

StartChar: uni1E9E
Encoding: 7838 7838 506
Width: 736
Flags: W
LayerCount: 2
Fore
SplineSet
681 322 m 128,-1,1
 716 274 716 274 716 208 c 0,2,3
 716 112 716 112 643 56 c 128,-1,4
 570 0 570 0 430 0 c 2,5,-1
 348 0 l 1,6,-1
 348 170 l 1,7,-1
 389 170 l 2,8,9
 430 170 430 170 453 186.5 c 128,-1,10
 476 203 476 203 476 231 c 256,11,12
 476 259 476 259 453 274.5 c 128,-1,13
 430 290 430 290 389 290 c 2,14,-1
 373 290 l 1,15,-1
 373 410 l 1,16,-1
 464 522 l 1,17,18
 437 527 437 527 413 527 c 0,19,20
 341 527 341 527 301 485 c 128,-1,21
 261 443 261 443 261 369 c 2,22,-1
 261 0 l 1,23,-1
 30 0 l 1,24,-1
 30 349 l 2,25,26
 30 462 30 462 73 543.5 c 128,-1,27
 116 625 116 625 197.5 668 c 128,-1,28
 279 711 279 711 392 711 c 0,29,30
 466 711 466 711 532.5 692.5 c 128,-1,31
 599 674 599 674 652 641 c 1,32,-1
 652 482 l 1,33,-1
 583 392 l 1,34,0
 646 370 646 370 681 322 c 128,-1,1
EndSplineSet
EndChar

StartChar: figuredash
Encoding: 8210 8210 603
Width: 617
Flags: W
LayerCount: 2
Fore
SplineSet
0 379 m 1,0,-1
 617 379 l 1,1,-1
 617 239 l 1,2,-1
 0 239 l 1,3,-1
 0 379 l 1,0,-1
EndSplineSet
EndChar

StartChar: endash
Encoding: 8211 8211 604
Width: 410
Flags: W
LayerCount: 2
Fore
SplineSet
0 379 m 1,0,-1
 410 379 l 1,1,-1
 410 239 l 1,2,-1
 0 239 l 1,3,-1
 0 379 l 1,0,-1
EndSplineSet
EndChar

StartChar: emdash
Encoding: 8212 8212 605
Width: 610
Flags: W
LayerCount: 2
Fore
SplineSet
0 379 m 1,0,-1
 610 379 l 1,1,-1
 610 239 l 1,2,-1
 0 239 l 1,3,-1
 0 379 l 1,0,-1
EndSplineSet
EndChar

StartChar: quoteleft
Encoding: 8216 8216 607
Width: 265
Flags: W
LayerCount: 2
Fore
SplineSet
213 517 m 0,1,2
 213 472 213 472 184 443.5 c 128,-1,3
 155 415 155 415 110 415 c 0,4,5
 67 415 67 415 37.5 442 c 128,-1,6
 8 469 8 469 8 516 c 0,7,8
 8 555 8 555 35 596 c 2,9,-1
 132 742 l 1,10,-1
 236 742 l 1,11,-1
 175 595 l 1,12,0
 213 567 213 567 213 517 c 0,1,2
EndSplineSet
Substitution2: "<3,3> Small Caps in Latin lookup 11 subtable" quoteleft.sc
EndChar

StartChar: quoteright
Encoding: 8217 8217 608
Width: 265
Flags: W
LayerCount: 2
Fore
SplineSet
206.5 715 m 128,-1,1
 236 688 236 688 236 641 c 0,2,3
 236 602 236 602 209 561 c 2,4,-1
 112 415 l 1,5,-1
 8 415 l 1,6,-1
 69 562 l 1,7,8
 31 590 31 590 31 640 c 0,9,10
 31 685 31 685 60 713.5 c 128,-1,11
 89 742 89 742 134 742 c 0,12,0
 177 742 177 742 206.5 715 c 128,-1,1
EndSplineSet
Substitution2: "<3,3> Small Caps in Latin lookup 11 subtable" quoteright.sc
EndChar

StartChar: quotesinglbase
Encoding: 8218 8218 609
Width: 265
Flags: W
LayerCount: 2
Fore
SplineSet
206.5 170 m 128,-1,1
 236 143 236 143 236 96 c 0,2,3
 236 57 236 57 209 16 c 2,4,-1
 112 -130 l 1,5,-1
 8 -130 l 1,6,-1
 69 17 l 1,7,8
 31 45 31 45 31 95 c 0,9,10
 31 140 31 140 60 168.5 c 128,-1,11
 89 197 89 197 134 197 c 0,12,0
 177 197 177 197 206.5 170 c 128,-1,1
EndSplineSet
EndChar

StartChar: dagger
Encoding: 8224 8224 613
Width: 608
Flags: W
LayerCount: 2
Fore
SplineSet
188 699 m 1,0,-1
 413 699 l 1,1,-1
 413 503 l 1,2,-1
 588 503 l 1,3,-1
 588 327 l 1,4,-1
 413 327 l 1,5,-1
 413 -185 l 1,6,-1
 188 -185 l 1,7,-1
 188 327 l 1,8,-1
 20 327 l 1,9,-1
 20 503 l 1,10,-1
 188 503 l 1,11,-1
 188 699 l 1,0,-1
EndSplineSet
EndChar

StartChar: daggerdbl
Encoding: 8225 8225 614
Width: 608
Flags: W
LayerCount: 2
Fore
SplineSet
588 327 m 1,0,-1
 413 327 l 1,1,-1
 413 193 l 1,2,-1
 588 193 l 1,3,-1
 588 17 l 1,4,-1
 413 17 l 1,5,-1
 413 -185 l 1,6,-1
 188 -185 l 1,7,-1
 188 17 l 1,8,-1
 20 17 l 1,9,-1
 20 193 l 1,10,-1
 188 193 l 1,11,-1
 188 327 l 1,12,-1
 20 327 l 1,13,-1
 20 503 l 1,14,-1
 188 503 l 1,15,-1
 188 699 l 1,16,-1
 413 699 l 1,17,-1
 413 503 l 1,18,-1
 588 503 l 1,19,-1
 588 327 l 1,0,-1
EndSplineSet
EndChar

StartChar: bullet
Encoding: 8226 8226 615
Width: 368
Flags: W
LayerCount: 2
Fore
SplineSet
295 394.5 m 128,-1,1
 338 352 338 352 338 284 c 0,2,3
 338 215 338 215 295 172 c 128,-1,4
 252 129 252 129 183 129 c 0,5,6
 115 129 115 129 72.5 172 c 128,-1,7
 30 215 30 215 30 284 c 0,8,9
 30 352 30 352 73 394.5 c 128,-1,10
 116 437 116 437 183 437 c 0,11,0
 252 437 252 437 295 394.5 c 128,-1,1
EndSplineSet
EndChar

StartChar: minute
Encoding: 8242 8242 618
Width: 253
Flags: W
LayerCount: 2
Fore
SplineSet
57 701 m 1,0,-1
 211 701 l 1,1,-1
 164 455 l 1,2,-1
 40 455 l 1,3,-1
 57 701 l 1,0,-1
EndSplineSet
EndChar

StartChar: guilsinglleft
Encoding: 8249 8249 620
Width: 285
Flags: W
LayerCount: 2
Fore
SplineSet
107 466 m 1,0,-1
 287 466 l 1,1,-1
 181 273 l 1,2,-1
 287 78 l 1,3,-1
 107 78 l 1,4,-1
 -17 273 l 1,5,-1
 107 466 l 1,0,-1
EndSplineSet
Substitution2: "<3,3> Small Caps in Latin lookup 11 subtable" guilsinglleft.sc
Substitution2: "'rtla' Right to Left Alternates in Latin lookup 0 subtable" guilsinglright
EndChar

StartChar: guilsinglright
Encoding: 8250 8250 621
Width: 285
Flags: W
LayerCount: 2
Fore
SplineSet
178 78 m 1,0,-1
 -2 78 l 1,1,-1
 104 271 l 1,2,-1
 -2 466 l 1,3,-1
 178 466 l 1,4,-1
 302 271 l 1,5,-1
 178 78 l 1,0,-1
EndSplineSet
Substitution2: "<3,3> Small Caps in Latin lookup 11 subtable" guilsinglright.sc
Substitution2: "'rtla' Right to Left Alternates in Latin lookup 0 subtable" guilsinglleft
EndChar

StartChar: fraction
Encoding: 8260 8260 622
Width: 150
Flags: W
LayerCount: 2
Fore
SplineSet
244 701 m 1,0,-1
 393 701 l 1,1,-1
 -94 0 l 1,2,-1
 -243 0 l 1,3,-1
 244 701 l 1,0,-1
EndSplineSet
EndChar

StartChar: colonmonetary
Encoding: 8353 8353 640
Width: 688
Flags: W
LayerCount: 2
Fore
SplineSet
479.5 209.5 m 128,-1,1
 523 232 523 232 557 269 c 1,2,-1
 691 126 l 1,3,4
 624 53 624 53 527 13 c 1,5,-1
 485 -165 l 1,6,-1
 349 -165 l 1,7,-1
 384 -16 l 1,8,9
 354 -16 354 -16 321 -11 c 1,10,-1
 285 -165 l 1,11,-1
 149 -165 l 1,12,-1
 195 32 l 1,13,14
 111 79 111 79 63 163.5 c 128,-1,15
 15 248 15 248 15 353 c 0,16,17
 15 465 15 465 72 552 c 128,-1,18
 129 639 129 639 226 682 c 1,19,-1
 269 864 l 1,20,-1
 405 864 l 1,21,-1
 370 715 l 1,22,23
 378 716 378 716 395 716 c 0,24,25
 408 716 408 716 434 714 c 1,26,-1
 469 864 l 1,27,-1
 605 864 l 1,28,-1
 561 678 l 1,29,30
 637 645 637 645 691 586 c 1,31,-1
 557 427 l 1,32,33
 526 470 526 470 482.5 496.5 c 128,-1,34
 439 523 439 523 398 523 c 256,35,36
 357 523 357 523 323.5 501.5 c 128,-1,37
 290 480 290 480 271.5 442 c 128,-1,38
 253 404 253 404 253 356 c 256,39,40
 253 308 253 308 271.5 269.5 c 128,-1,41
 290 231 290 231 323.5 209 c 128,-1,42
 357 187 357 187 398 187 c 0,43,0
 436 187 436 187 479.5 209.5 c 128,-1,1
EndSplineSet
EndChar

StartChar: franc
Encoding: 8355 8355 641
Width: 676
Flags: W
LayerCount: 2
Fore
SplineSet
659 525 m 1,0,-1
 327 525 l 1,1,-1
 327 404 l 1,2,-1
 638 404 l 1,3,-1
 638 238 l 1,4,-1
 327 238 l 1,5,-1
 327 154 l 1,6,-1
 526 154 l 1,7,-1
 526 84 l 1,8,-1
 327 84 l 1,9,-1
 327 0 l 1,10,-1
 95 0 l 1,11,-1
 95 84 l 1,12,-1
 25 84 l 1,13,-1
 25 154 l 1,14,-1
 95 154 l 1,15,-1
 95 701 l 1,16,-1
 659 701 l 1,17,-1
 659 525 l 1,0,-1
EndSplineSet
EndChar

StartChar: lira
Encoding: 8356 8356 642
Width: 576
Flags: W
LayerCount: 2
Fore
SplineSet
323 173 m 1,0,-1
 561 173 l 1,1,-1
 561 0 l 1,2,-1
 20 0 l 1,3,-1
 20 173 l 1,4,-1
 90 173 l 1,5,-1
 90 232 l 1,6,-1
 20 232 l 1,7,-1
 20 302 l 1,8,-1
 90 302 l 1,9,-1
 90 347 l 1,10,-1
 20 347 l 1,11,-1
 20 417 l 1,12,-1
 90 417 l 1,13,-1
 90 464 l 2,14,15
 90 582 90 582 158.5 646.5 c 128,-1,16
 227 711 227 711 351 711 c 0,17,18
 415 711 415 711 474 689.5 c 128,-1,19
 533 668 533 668 576 629 c 1,20,-1
 492 459 l 1,21,22
 427 518 427 518 376 518 c 0,23,24
 323 518 323 518 323 459 c 2,25,-1
 323 417 l 1,26,-1
 482 417 l 1,27,-1
 482 347 l 1,28,-1
 323 347 l 1,29,-1
 323 302 l 1,30,-1
 482 302 l 1,31,-1
 482 232 l 1,32,-1
 323 232 l 1,33,-1
 323 173 l 1,0,-1
EndSplineSet
EndChar

StartChar: uni20A6
Encoding: 8358 8358 643
Width: 821
Flags: W
LayerCount: 2
Fore
SplineSet
791 376 m 1,0,-1
 721 376 l 1,1,-1
 721 331 l 1,2,-1
 791 331 l 1,3,-1
 791 261 l 1,4,-1
 721 261 l 1,5,-1
 721 0 l 1,6,-1
 537 0 l 1,7,-1
 301 347 l 1,8,-1
 301 0 l 1,9,-1
 100 0 l 1,10,-1
 100 261 l 1,11,-1
 30 261 l 1,12,-1
 30 331 l 1,13,-1
 100 331 l 1,14,-1
 100 376 l 1,15,-1
 30 376 l 1,16,-1
 30 446 l 1,17,-1
 100 446 l 1,18,-1
 100 701 l 1,19,-1
 284 701 l 1,20,-1
 521 352 l 1,21,-1
 521 701 l 1,22,-1
 721 701 l 1,23,-1
 721 446 l 1,24,-1
 791 446 l 1,25,-1
 791 376 l 1,0,-1
EndSplineSet
EndChar

StartChar: peseta
Encoding: 8359 8359 644
Width: 1582
Flags: W
LayerCount: 2
Fore
SplineSet
534 633.5 m 128,-1,1
 606 566 606 566 606 443 c 0,2,3
 606 319 606 319 534 250.5 c 128,-1,4
 462 182 462 182 331 182 c 2,5,-1
 252 182 l 1,6,-1
 252 0 l 1,7,-1
 50 0 l 1,8,-1
 50 701 l 1,9,-1
 331 701 l 2,10,0
 462 701 462 701 534 633.5 c 128,-1,1
1029 178 m 1,12,-1
 1067 24 l 1,13,14
 1042 8 1042 8 1001.5 -1 c 128,-1,15
 961 -10 961 -10 919 -10 c 0,16,17
 835 -10 835 -10 785 40.5 c 128,-1,18
 735 91 735 91 735 176 c 2,19,-1
 735 381 l 1,20,-1
 660 381 l 1,21,-1
 660 517 l 1,22,-1
 735 517 l 1,23,-1
 735 670 l 1,24,-1
 929 670 l 1,25,-1
 929 517 l 1,26,-1
 1057 517 l 1,27,-1
 1057 381 l 1,28,-1
 929 381 l 1,29,-1
 929 214 l 2,30,31
 929 190 929 190 941.5 177 c 128,-1,32
 954 164 954 164 976 164 c 0,33,11
 999 164 999 164 1029 178 c 1,12,-1
1322 365 m 128,-1,35
 1341 354 1341 354 1385 337 c 0,36,37
 1437 318 1437 318 1471.5 300 c 128,-1,38
 1506 282 1506 282 1531.5 248 c 128,-1,39
 1557 214 1557 214 1557 162 c 0,40,41
 1557 84 1557 84 1498 37 c 128,-1,42
 1439 -10 1439 -10 1339 -10 c 0,43,44
 1208 -10 1208 -10 1102 50 c 1,45,-1
 1158 173 l 1,46,47
 1211 148 1211 148 1253.5 136.5 c 128,-1,48
 1296 125 1296 125 1335 125 c 0,49,50
 1376 125 1376 125 1376 154 c 0,51,52
 1376 170 1376 170 1357.5 181 c 128,-1,53
 1339 192 1339 192 1299 207 c 0,54,55
 1248 226 1248 226 1213.5 244.5 c 128,-1,56
 1179 263 1179 263 1153.5 298 c 128,-1,57
 1128 333 1128 333 1128 387 c 0,58,59
 1128 465 1128 465 1185.5 511 c 128,-1,60
 1243 557 1243 557 1339 557 c 0,61,62
 1403 557 1403 557 1455 544 c 128,-1,63
 1507 531 1507 531 1563 503 c 1,64,-1
 1501 376 l 1,65,66
 1448 402 1448 402 1414 413 c 128,-1,67
 1380 424 1380 424 1349 424 c 0,68,69
 1328 424 1328 424 1315.5 416 c 128,-1,70
 1303 408 1303 408 1303 393 c 0,71,34
 1303 376 1303 376 1322 365 c 128,-1,35
387.5 358 m 128,-1,73
 416 388 416 388 416 443 c 0,74,75
 416 496 416 496 387.5 525.5 c 128,-1,76
 359 555 359 555 307 555 c 2,77,-1
 252 555 l 1,78,-1
 252 328 l 1,79,-1
 307 328 l 2,80,72
 359 328 359 328 387.5 358 c 128,-1,73
EndSplineSet
EndChar

StartChar: uni20A9
Encoding: 8361 8361 645
Width: 1071
Flags: W
LayerCount: 2
Fore
SplineSet
1079 701 m 1,0,-1
 1000 446 l 1,1,-1
 1066 446 l 1,2,-1
 1066 376 l 1,3,-1
 978 376 l 1,4,-1
 964 331 l 1,5,-1
 1056 331 l 1,6,-1
 1056 261 l 1,7,-1
 943 261 l 1,8,-1
 862 0 l 1,9,-1
 624 0 l 1,10,-1
 539 401 l 1,11,-1
 451 0 l 1,12,-1
 213 0 l 1,13,-1
 133 261 l 1,14,-1
 15 261 l 1,15,-1
 15 331 l 1,16,-1
 111 331 l 1,17,-1
 98 376 l 1,18,-1
 5 376 l 1,19,-1
 5 446 l 1,20,-1
 76 446 l 1,21,-1
 -2 701 l 1,22,-1
 241 701 l 1,23,-1
 338 256 l 1,24,-1
 431 701 l 1,25,-1
 657 701 l 1,26,-1
 751 256 l 1,27,-1
 847 701 l 1,28,-1
 1079 701 l 1,0,-1
EndSplineSet
EndChar

StartChar: dong
Encoding: 8363 8363 646
Width: 693
Flags: W
LayerCount: 2
Fore
SplineSet
693 590 m 1,0,-1
 630 590 l 1,1,-1
 630 0 l 1,2,-1
 405 0 l 1,3,-1
 405 55 l 1,4,5
 351 -8 351 -8 266 -8 c 0,6,7
 191 -8 191 -8 134 27 c 128,-1,8
 77 62 77 62 46 126.5 c 128,-1,9
 15 191 15 191 15 277 c 0,10,11
 15 361 15 361 45 424 c 128,-1,12
 75 487 75 487 130.5 521 c 128,-1,13
 186 555 186 555 260 555 c 0,14,15
 304 555 304 555 341 538.5 c 128,-1,16
 378 522 378 522 405 491 c 1,17,-1
 405 590 l 1,18,-1
 298 590 l 1,19,-1
 298 670 l 1,20,-1
 405 670 l 1,21,-1
 405 742 l 1,22,-1
 630 742 l 1,23,-1
 630 670 l 1,24,-1
 693 670 l 1,25,-1
 693 590 l 1,0,-1
383 194 m 128,-1,27
 405 223 405 223 405 271 c 256,28,29
 405 319 405 319 383 348 c 128,-1,30
 361 377 361 377 324 377 c 256,31,32
 287 377 287 377 264.5 348 c 128,-1,33
 242 319 242 319 242 271 c 256,34,35
 242 223 242 223 264.5 194 c 128,-1,36
 287 165 287 165 324 165 c 256,37,26
 361 165 361 165 383 194 c 128,-1,27
110 -130 m 1,38,-1
 110 -50 l 1,39,-1
 570 -50 l 1,40,-1
 570 -130 l 1,41,-1
 110 -130 l 1,38,-1
EndSplineSet
EndChar

StartChar: Euro
Encoding: 8364 8364 647
Width: 763
Flags: W
LayerCount: 2
Fore
SplineSet
554.5 214.5 m 128,-1,1
 598 236 598 236 632 273 c 1,2,-1
 766 130 l 1,3,4
 707 66 707 66 624.5 28 c 128,-1,5
 542 -10 542 -10 461 -10 c 0,6,7
 371 -10 371 -10 296 24 c 128,-1,8
 221 58 221 58 170 119.5 c 128,-1,9
 119 181 119 181 100 261 c 1,10,-1
 20 261 l 1,11,-1
 20 331 l 1,12,-1
 91 331 l 1,13,14
 90 338 90 338 90 352 c 0,15,16
 90 368 90 368 91 376 c 1,17,-1
 20 376 l 1,18,-1
 20 446 l 1,19,-1
 102 446 l 1,20,21
 122 524 122 524 174 583 c 128,-1,22
 226 642 226 642 302.5 675 c 128,-1,23
 379 708 379 708 470 708 c 0,24,25
 550 708 550 708 631 673 c 128,-1,26
 712 638 712 638 766 580 c 1,27,-1
 632 421 l 1,28,29
 601 464 601 464 557.5 489.5 c 128,-1,30
 514 515 514 515 473 515 c 0,31,32
 434 515 434 515 402.5 497 c 128,-1,33
 371 479 371 479 351 446 c 1,34,-1
 541 446 l 1,35,-1
 541 376 l 1,36,-1
 329 376 l 1,37,38
 328 369 328 369 328 355 c 0,39,40
 328 339 328 339 329 331 c 1,41,-1
 541 331 l 1,42,-1
 541 261 l 1,43,-1
 353 261 l 1,44,45
 372 229 372 229 403.5 211 c 128,-1,46
 435 193 435 193 473 193 c 256,47,0
 511 193 511 193 554.5 214.5 c 128,-1,1
EndSplineSet
EndChar

StartChar: uni20AD
Encoding: 8365 8365 648
Width: 789
Flags: W
LayerCount: 2
Fore
SplineSet
789 0 m 1,0,-1
 517 0 l 1,1,-1
 303 303 l 1,2,-1
 303 0 l 1,3,-1
 71 0 l 1,4,-1
 71 332 l 1,5,-1
 1 332 l 1,6,-1
 1 402 l 1,7,-1
 71 402 l 1,8,-1
 71 701 l 1,9,-1
 303 701 l 1,10,-1
 303 426 l 1,11,-1
 512 701 l 1,12,-1
 774 701 l 1,13,-1
 539 402 l 1,14,-1
 703 402 l 1,15,-1
 703 332 l 1,16,-1
 546 332 l 1,17,-1
 789 0 l 1,0,-1
EndSplineSet
EndChar

StartChar: uni20B1
Encoding: 8369 8369 649
Width: 811
Flags: W
LayerCount: 2
Fore
SplineSet
786 463 m 1,0,-1
 716 463 l 1,1,-1
 716 450 l 2,2,3
 716 428 716 428 715 418 c 1,4,-1
 786 418 l 1,5,-1
 786 348 l 1,6,-1
 701 348 l 1,7,8
 675 268 675 268 605 225 c 128,-1,9
 535 182 535 182 429 182 c 2,10,-1
 332 182 l 1,11,-1
 332 0 l 1,12,-1
 100 0 l 1,13,-1
 100 348 l 1,14,-1
 30 348 l 1,15,-1
 30 418 l 1,16,-1
 100 418 l 1,17,-1
 100 463 l 1,18,-1
 30 463 l 1,19,-1
 30 533 l 1,20,-1
 100 533 l 1,21,-1
 100 701 l 1,22,-1
 429 701 l 2,23,24
 540 701 540 701 611 657.5 c 128,-1,25
 682 614 682 614 705 533 c 1,26,-1
 786 533 l 1,27,-1
 786 463 l 1,0,-1
475.5 380.5 m 128,-1,29
 496 403 496 403 496 443 c 0,30,31
 496 482 496 482 475.5 503.5 c 128,-1,32
 455 525 455 525 417 525 c 2,33,-1
 332 525 l 1,34,-1
 332 358 l 1,35,-1
 417 358 l 2,36,28
 455 358 455 358 475.5 380.5 c 128,-1,29
EndSplineSet
EndChar

StartChar: uni20B2
Encoding: 8370 8370 650
Width: 738
Flags: W
LayerCount: 2
Fore
SplineSet
503 369 m 1,0,-1
 702 369 l 1,1,-1
 702 76 l 1,2,3
 659 47 659 47 598.5 24.5 c 128,-1,4
 538 2 538 2 475 -9 c 1,5,-1
 475 -165 l 1,6,-1
 309 -165 l 1,7,-1
 309 -8 l 1,8,9
 222 9 222 9 155.5 59.5 c 128,-1,10
 89 110 89 110 52 185.5 c 128,-1,11
 15 261 15 261 15 351 c 0,12,13
 15 439 15 439 52 512.5 c 128,-1,14
 89 586 89 586 155.5 636 c 128,-1,15
 222 686 222 686 309 705 c 1,16,-1
 309 864 l 1,17,-1
 475 864 l 1,18,-1
 475 711 l 1,19,20
 543 701 543 701 605.5 673.5 c 128,-1,21
 668 646 668 646 713 606 c 1,22,-1
 582 447 l 1,23,24
 547 482 547 482 499.5 502.5 c 128,-1,25
 452 523 452 523 409 523 c 0,26,27
 365 523 365 523 329 500.5 c 128,-1,28
 293 478 293 478 273 439 c 128,-1,29
 253 400 253 400 253 351 c 0,30,31
 253 301 253 301 273.5 261.5 c 128,-1,32
 294 222 294 222 330 199.5 c 128,-1,33
 366 177 366 177 411 177 c 0,34,35
 449 177 449 177 503 201 c 1,36,-1
 503 369 l 1,0,-1
EndSplineSet
EndChar

StartChar: uni20B5
Encoding: 8373 8373 651
Width: 688
Flags: W
LayerCount: 2
Fore
SplineSet
479.5 209.5 m 128,-1,1
 523 232 523 232 557 269 c 1,2,-1
 691 126 l 1,3,4
 647 78 647 78 587.5 43 c 128,-1,5
 528 8 528 8 465 -7 c 1,6,-1
 465 -165 l 1,7,-1
 299 -165 l 1,8,-1
 299 -7 l 1,9,10
 215 11 215 11 150.5 61.5 c 128,-1,11
 86 112 86 112 50.5 187.5 c 128,-1,12
 15 263 15 263 15 353 c 0,13,14
 15 441 15 441 50.5 514.5 c 128,-1,15
 86 588 86 588 150.5 637.5 c 128,-1,16
 215 687 215 687 299 706 c 1,17,-1
 299 864 l 1,18,-1
 465 864 l 1,19,-1
 465 709 l 1,20,21
 529 697 529 697 589 664.5 c 128,-1,22
 649 632 649 632 691 586 c 1,23,-1
 557 427 l 1,24,25
 526 470 526 470 482.5 496.5 c 128,-1,26
 439 523 439 523 398 523 c 256,27,28
 357 523 357 523 323.5 501.5 c 128,-1,29
 290 480 290 480 271.5 442 c 128,-1,30
 253 404 253 404 253 356 c 256,31,32
 253 308 253 308 271.5 269.5 c 128,-1,33
 290 231 290 231 323.5 209 c 128,-1,34
 357 187 357 187 398 187 c 0,35,0
 436 187 436 187 479.5 209.5 c 128,-1,1
EndSplineSet
EndChar

StartChar: uni20B9
Encoding: 8377 8377 652
Width: 648
Flags: W
LayerCount: 2
Fore
SplineSet
490 545 m 1,0,1
 514 518 514 518 527 477 c 1,2,-1
 618 477 l 1,3,-1
 618 407 l 1,4,-1
 538 407 l 1,5,-1
 538 398 l 2,6,7
 538 284 538 284 446 228 c 1,8,-1
 618 0 l 1,9,-1
 356 0 l 1,10,-1
 217 182 l 1,11,-1
 40 182 l 1,12,-1
 40 338 l 1,13,-1
 222 338 l 2,14,15
 263 338 263 338 289.5 356 c 128,-1,16
 316 374 316 374 324 407 c 1,17,-1
 40 407 l 1,18,-1
 40 477 l 1,19,-1
 323 477 l 1,20,21
 314 510 314 510 288 527.5 c 128,-1,22
 262 545 262 545 222 545 c 2,23,-1
 40 545 l 1,24,-1
 40 701 l 1,25,-1
 618 701 l 1,26,-1
 618 545 l 1,27,-1
 490 545 l 1,0,1
EndSplineSet
EndChar

StartChar: uni20BA
Encoding: 8378 8378 653
Width: 763
Flags: W
LayerCount: 2
Fore
SplineSet
739 361 m 1,0,1
 739 252 739 252 691 170.5 c 128,-1,2
 643 89 643 89 554.5 44.5 c 128,-1,3
 466 0 466 0 349 0 c 2,4,-1
 90 0 l 1,5,-1
 90 319 l 1,6,-1
 20 299 l 1,7,-1
 20 380 l 1,8,-1
 90 400 l 1,9,-1
 90 463 l 1,10,-1
 20 443 l 1,11,-1
 20 524 l 1,12,-1
 90 544 l 1,13,-1
 90 701 l 1,14,-1
 322 701 l 1,15,-1
 322 609 l 1,16,-1
 532 668 l 1,17,-1
 532 587 l 1,18,-1
 322 528 l 1,19,-1
 322 465 l 1,20,-1
 532 524 l 1,21,-1
 532 443 l 1,22,-1
 322 384 l 1,23,-1
 322 180 l 1,24,-1
 364 180 l 2,25,26
 430 180 430 180 466 228 c 128,-1,27
 502 276 502 276 502 359 c 1,28,-1
 739 361 l 1,0,1
EndSplineSet
EndChar

StartChar: uni20BC
Encoding: 8380 8380 654
Width: 800
Flags: W
LayerCount: 2
Fore
SplineSet
630.5 541.5 m 128,-1,1
 699 493 699 493 737 418 c 128,-1,2
 775 343 775 343 775 252 c 2,3,-1
 775 0 l 1,4,-1
 557 0 l 1,5,-1
 557 251 l 2,6,7
 557 304 557 304 535 344 c 128,-1,8
 513 384 513 384 473 403 c 1,9,-1
 473 0 l 1,10,-1
 327 0 l 1,11,-1
 327 401 l 1,12,13
 288 381 288 381 265.5 341.5 c 128,-1,14
 243 302 243 302 243 251 c 2,15,-1
 243 0 l 1,16,-1
 25 0 l 1,17,-1
 25 252 l 2,18,19
 25 343 25 343 63 418 c 128,-1,20
 101 493 101 493 169.5 541.5 c 128,-1,21
 238 590 238 590 327 605 c 1,22,-1
 327 701 l 1,23,-1
 473 701 l 1,24,-1
 473 605 l 1,25,0
 562 590 562 590 630.5 541.5 c 128,-1,1
EndSplineSet
EndChar

StartChar: uni20BD
Encoding: 8381 8381 655
Width: 731
Flags: W
LayerCount: 2
Fore
SplineSet
332 214 m 1,0,-1
 332 155 l 1,1,-1
 531 155 l 1,2,-1
 531 85 l 1,3,-1
 332 85 l 1,4,-1
 332 0 l 1,5,-1
 100 0 l 1,6,-1
 100 85 l 1,7,-1
 20 85 l 1,8,-1
 20 155 l 1,9,-1
 100 155 l 1,10,-1
 100 701 l 1,11,-1
 429 701 l 2,12,13
 566 701 566 701 641 637.5 c 128,-1,14
 716 574 716 574 716 459 c 0,15,16
 716 343 716 343 640.5 278.5 c 128,-1,17
 565 214 565 214 429 214 c 2,18,-1
 332 214 l 1,0,-1
475.5 519.5 m 128,-1,20
 455 541 455 541 417 541 c 2,21,-1
 332 541 l 1,22,-1
 332 374 l 1,23,-1
 417 374 l 2,24,25
 455 374 455 374 475.5 396.5 c 128,-1,26
 496 419 496 419 496 459 c 0,27,19
 496 498 496 498 475.5 519.5 c 128,-1,20
EndSplineSet
EndChar

StartChar: uni2113
Encoding: 8467 8467 656
Width: 478
Flags: W
LayerCount: 2
Fore
SplineSet
191.5 650.5 m 128,-1,1
 247 711 247 711 324 711 c 0,2,3
 386 711 386 711 420 672.5 c 128,-1,4
 454 634 454 634 454 567 c 0,5,6
 454 492 454 492 415.5 426.5 c 128,-1,7
 377 361 377 361 334.5 320 c 128,-1,8
 292 279 292 279 220 220 c 1,9,10
 218 210 218 210 218 192 c 0,11,12
 218 133 218 133 268 133 c 0,13,14
 299 133 299 133 325 153.5 c 128,-1,15
 351 174 351 174 378 207 c 1,16,-1
 439 131 l 1,17,18
 354 -7 354 -7 220 -7 c 256,19,20
 86 -7 86 -7 65 131 c 1,21,-1
 22 107 l 1,22,-1
 -7 193 l 1,23,-1
 78 250 l 1,24,-1
 114 467 l 2,25,0
 136 590 136 590 191.5 650.5 c 128,-1,1
311 466.5 m 128,-1,27
 338 514 338 514 338 564 c 0,28,29
 338 602 338 602 318 602 c 0,30,31
 284 602 284 602 265 487 c 2,32,-1
 246 371 l 1,33,26
 284 419 284 419 311 466.5 c 128,-1,27
EndSplineSet
EndChar

StartChar: trademark
Encoding: 8482 8482 658
Width: 921
Flags: W
LayerCount: 2
Fore
SplineSet
-11 701 m 1,0,-1
 353 701 l 1,1,-1
 353 573 l 1,2,-1
 251 573 l 1,3,-1
 251 280 l 1,4,-1
 90 280 l 1,5,-1
 90 573 l 1,6,-1
 -11 573 l 1,7,-1
 -11 701 l 1,0,-1
383 701 m 1,8,-1
 557 701 l 1,9,-1
 636 509 l 1,10,-1
 716 701 l 1,11,-1
 890 701 l 1,12,-1
 890 280 l 1,13,-1
 746 280 l 1,14,-1
 746 472 l 1,15,-1
 692 320 l 1,16,-1
 581 320 l 1,17,-1
 527 472 l 1,18,-1
 527 280 l 1,19,-1
 383 280 l 1,20,-1
 383 701 l 1,8,-1
EndSplineSet
EndChar

StartChar: estimated
Encoding: 8494 8494 660
Width: 809
Flags: W
LayerCount: 2
Fore
SplineSet
192 308 m 2,1,-1
 192 144 l 2,2,3
 192 135 192 135 200 125 c 0,4,5
 239 83 239 83 292.5 59.5 c 128,-1,6
 346 36 346 36 406 36 c 0,7,8
 469 36 469 36 525.5 62.5 c 128,-1,9
 582 89 582 89 621 135 c 1,10,-1
 670 135 l 1,11,12
 624 81 624 81 554 49.5 c 128,-1,13
 484 18 484 18 405 18 c 0,14,15
 314 18 314 18 237 58.5 c 128,-1,16
 160 99 160 99 115 168 c 128,-1,17
 70 237 70 237 70 319 c 256,18,19
 70 401 70 401 115 470.5 c 128,-1,20
 160 540 160 540 237 580.5 c 128,-1,21
 314 621 314 621 405 621 c 256,22,23
 496 621 496 621 573 580.5 c 128,-1,24
 650 540 650 540 695 470.5 c 128,-1,25
 740 401 740 401 740 319 c 2,26,-1
 740 312 l 1,27,-1
 197 312 l 2,28,0
 192 312 192 312 192 308 c 2,1,-1
609 518 m 0,30,31
 569 558 569 558 516.5 580.5 c 128,-1,32
 464 603 464 603 406 603 c 0,33,34
 347 603 347 603 294 579.5 c 128,-1,35
 241 556 241 556 201 515 c 0,36,37
 192 506 192 506 192 495 c 2,38,-1
 192 333 l 2,39,40
 192 328 192 328 197 328 c 2,41,-1
 613 328 l 2,42,43
 618 328 618 328 618 333 c 2,44,-1
 618 498 l 2,45,29
 618 509 618 509 609 518 c 0,30,31
EndSplineSet
EndChar

StartChar: arrowleft
Encoding: 8592 8592 667
Width: 600
Flags: W
LayerCount: 2
Fore
SplineSet
570 353 m 1,0,-1
 570 204 l 1,1,-1
 298 204 l 1,2,-1
 397 31 l 1,3,-1
 208 31 l 1,4,-1
 48 279 l 1,5,-1
 208 527 l 1,6,-1
 397 527 l 1,7,-1
 297 353 l 1,8,-1
 570 353 l 1,0,-1
EndSplineSet
EndChar

StartChar: arrowup
Encoding: 8593 8593 668
Width: 600
Flags: W
LayerCount: 2
Fore
SplineSet
548 382 m 1,0,-1
 548 219 l 1,1,-1
 386 312 l 1,2,-1
 386 20 l 1,3,-1
 214 20 l 1,4,-1
 214 312 l 1,5,-1
 52 219 l 1,6,-1
 52 382 l 1,7,-1
 300 542 l 1,8,-1
 548 382 l 1,0,-1
EndSplineSet
EndChar

StartChar: arrowright
Encoding: 8594 8594 669
Width: 600
Flags: W
LayerCount: 2
Fore
SplineSet
392 526 m 1,0,-1
 552 278 l 1,1,-1
 392 30 l 1,2,-1
 203 30 l 1,3,-1
 303 204 l 1,4,-1
 30 204 l 1,5,-1
 30 353 l 1,6,-1
 302 353 l 1,7,-1
 203 526 l 1,8,-1
 392 526 l 1,0,-1
EndSplineSet
EndChar

StartChar: arrowdown
Encoding: 8595 8595 670
Width: 600
Flags: W
LayerCount: 2
Fore
SplineSet
386 245 m 1,0,-1
 548 338 l 1,1,-1
 548 175 l 1,2,-1
 300 15 l 1,3,-1
 52 175 l 1,4,-1
 52 338 l 1,5,-1
 214 245 l 1,6,-1
 214 537 l 1,7,-1
 386 537 l 1,8,-1
 386 245 l 1,0,-1
EndSplineSet
EndChar

StartChar: arrowboth
Encoding: 8596 8596 671
Width: 950
Flags: W
LayerCount: 2
Fore
SplineSet
740 527 m 1,0,-1
 900 279 l 1,1,-1
 740 31 l 1,2,-1
 551 31 l 1,3,-1
 650 204 l 1,4,-1
 300 204 l 1,5,-1
 399 31 l 1,6,-1
 210 31 l 1,7,-1
 50 279 l 1,8,-1
 210 527 l 1,9,-1
 399 527 l 1,10,-1
 299 353 l 1,11,-1
 651 353 l 1,12,-1
 551 527 l 1,13,-1
 740 527 l 1,0,-1
EndSplineSet
EndChar

StartChar: arrowupdn
Encoding: 8597 8597 672
Width: 600
Flags: W
LayerCount: 2
Fore
SplineSet
548 398 m 1,0,-1
 386 491 l 1,1,-1
 386 220 l 1,2,-1
 548 313 l 1,3,-1
 548 150 l 1,4,-1
 300 -10 l 1,5,-1
 52 150 l 1,6,-1
 52 313 l 1,7,-1
 214 220 l 1,8,-1
 214 491 l 1,9,-1
 52 398 l 1,10,-1
 52 561 l 1,11,-1
 300 721 l 1,12,-1
 548 561 l 1,13,-1
 548 398 l 1,0,-1
EndSplineSet
EndChar

StartChar: uni2196
Encoding: 8598 8598 673
Width: 600
Flags: W
LayerCount: 2
Fore
SplineSet
554 161 m 1,0,-1
 432 39 l 1,1,-1
 226 246 l 1,2,-1
 177 66 l 1,3,-1
 62 181 l 1,4,-1
 124 469 l 1,5,-1
 412 532 l 1,6,-1
 528 416 l 1,7,-1
 348 367 l 1,8,-1
 554 161 l 1,0,-1
EndSplineSet
EndChar

StartChar: uni2197
Encoding: 8599 8599 674
Width: 600
Flags: W
LayerCount: 2
Fore
SplineSet
553 175 m 1,0,-1
 437 59 l 1,1,-1
 388 239 l 1,2,-1
 182 33 l 1,3,-1
 60 155 l 1,4,-1
 267 361 l 1,5,-1
 87 410 l 1,6,-1
 202 525 l 1,7,-1
 490 463 l 1,8,-1
 553 175 l 1,0,-1
EndSplineSet
EndChar

StartChar: uni2198
Encoding: 8600 8600 675
Width: 600
Flags: W
LayerCount: 2
Fore
SplineSet
437 498 m 1,0,-1
 552 383 l 1,1,-1
 490 95 l 1,2,-1
 202 32 l 1,3,-1
 86 148 l 1,4,-1
 266 197 l 1,5,-1
 60 403 l 1,6,-1
 182 525 l 1,7,-1
 388 318 l 1,8,-1
 437 498 l 1,0,-1
EndSplineSet
EndChar

StartChar: uni2199
Encoding: 8601 8601 676
Width: 600
Flags: W
LayerCount: 2
Fore
SplineSet
554 409 m 1,0,-1
 347 203 l 1,1,-1
 527 154 l 1,2,-1
 412 39 l 1,3,-1
 124 101 l 1,4,-1
 61 389 l 1,5,-1
 177 505 l 1,6,-1
 226 325 l 1,7,-1
 432 531 l 1,8,-1
 554 409 l 1,0,-1
EndSplineSet
EndChar

StartChar: partialdiff
Encoding: 8706 8706 677
Width: 638
Flags: W
LayerCount: 2
Fore
SplineSet
144 691.5 m 128,-1,1
 212 711 212 711 280 711 c 0,2,3
 380 711 380 711 455.5 667 c 128,-1,4
 531 623 531 623 572 542 c 128,-1,5
 613 461 613 461 613 353 c 0,6,7
 613 243 613 243 574.5 161 c 128,-1,8
 536 79 536 79 464.5 34.5 c 128,-1,9
 393 -10 393 -10 295 -10 c 0,10,11
 213 -10 213 -10 150.5 20.5 c 128,-1,12
 88 51 88 51 54 106.5 c 128,-1,13
 20 162 20 162 20 237 c 0,14,15
 20 305 20 305 49.5 357.5 c 128,-1,16
 79 410 79 410 132.5 439 c 128,-1,17
 186 468 186 468 257 468 c 0,18,19
 342 468 342 468 392 416 c 1,20,21
 392 533 392 533 266 533 c 0,22,23
 176 533 176 533 116 477 c 1,24,-1
 28 639 l 1,25,0
 76 672 76 672 144 691.5 c 128,-1,1
235 238 m 0,27,28
 235 174 235 174 303 174 c 0,29,30
 372 174 372 174 372 237 c 256,31,32
 372 300 372 300 302 300 c 0,33,26
 235 300 235 300 235 238 c 0,27,28
EndSplineSet
EndChar

StartChar: emptyset
Encoding: 8709 8709 678
Width: 590
Flags: W
LayerCount: 2
Fore
SplineSet
510 472 m 1,0,1
 554 408 554 408 554 329 c 0,2,3
 554 260 554 260 519.5 201 c 128,-1,4
 485 142 485 142 426 107.5 c 128,-1,5
 367 73 367 73 298 73 c 0,6,7
 209 73 209 73 139 129 c 1,8,-1
 54 50 l 1,9,-1
 0 109 l 1,10,-1
 85 188 l 1,11,12
 43 253 43 253 43 329 c 0,13,14
 43 398 43 398 77.5 456.5 c 128,-1,15
 112 515 112 515 170.5 549.5 c 128,-1,16
 229 584 229 584 298 584 c 0,17,18
 384 584 384 584 455 531 c 1,19,-1
 535 605 l 1,20,-1
 590 546 l 1,21,-1
 510 472 l 1,0,1
194 289 m 1,23,-1
 346 429 l 1,24,25
 322 440 322 440 298 440 c 0,26,27
 252 440 252 440 219.5 407.5 c 128,-1,28
 187 375 187 375 187 329 c 0,29,22
 187 310 187 310 194 289 c 1,23,-1
401 372 m 1,31,-1
 247 229 l 1,32,33
 271 217 271 217 298 217 c 0,34,35
 345 217 345 217 377.5 250 c 128,-1,36
 410 283 410 283 410 329 c 0,37,30
 410 351 410 351 401 372 c 1,31,-1
EndSplineSet
EndChar

StartChar: uni2206
Encoding: 8710 8710 679
Width: 749
Flags: W
LayerCount: 2
Fore
SplineSet
0 0 m 1,0,-1
 0 132 l 1,1,-1
 260 701 l 1,2,-1
 498 701 l 1,3,-1
 749 132 l 1,4,-1
 749 0 l 1,5,-1
 0 0 l 1,0,-1
243 180 m 1,6,-1
 497 180 l 1,7,-1
 372 474 l 1,8,-1
 243 180 l 1,6,-1
EndSplineSet
EndChar

StartChar: product
Encoding: 8719 8719 680
Width: 734
Flags: W
LayerCount: 2
Fore
SplineSet
50 742 m 1,0,-1
 684 742 l 1,1,-1
 684 -194 l 1,2,-1
 459 -194 l 1,3,-1
 459 566 l 1,4,-1
 275 566 l 1,5,-1
 275 -194 l 1,6,-1
 50 -194 l 1,7,-1
 50 742 l 1,0,-1
EndSplineSet
EndChar

StartChar: summation
Encoding: 8721 8721 681
Width: 621
Flags: W
LayerCount: 2
Fore
SplineSet
36 745 m 1,0,-1
 603 745 l 1,1,-1
 603 552 l 1,2,-1
 304 552 l 1,3,-1
 504 300 l 1,4,-1
 304 55 l 1,5,-1
 613 55 l 1,6,-1
 613 -138 l 1,7,-1
 23 -138 l 1,8,-1
 23 20 l 1,9,-1
 259 299 l 1,10,-1
 36 583 l 1,11,-1
 36 745 l 1,0,-1
EndSplineSet
EndChar

StartChar: minus
Encoding: 8722 8722 682
Width: 520
Flags: W
LayerCount: 2
Fore
SplineSet
30 399 m 1,0,-1
 490 399 l 1,1,-1
 490 259 l 1,2,-1
 30 259 l 1,3,-1
 30 399 l 1,0,-1
EndSplineSet
EndChar

StartChar: uni2219
Encoding: 8729 8729 684
Width: 368
Flags: W
LayerCount: 2
Fore
SplineSet
295 394.5 m 128,-1,1
 338 352 338 352 338 284 c 0,2,3
 338 215 338 215 295 172 c 128,-1,4
 252 129 252 129 183 129 c 0,5,6
 115 129 115 129 72.5 172 c 128,-1,7
 30 215 30 215 30 284 c 0,8,9
 30 352 30 352 73 394.5 c 128,-1,10
 116 437 116 437 183 437 c 0,11,0
 252 437 252 437 295 394.5 c 128,-1,1
EndSplineSet
EndChar

StartChar: radical
Encoding: 8730 8730 685
Width: 725
Flags: W
LayerCount: 2
Fore
SplineSet
536 742 m 1,0,-1
 750 742 l 1,1,-1
 487 -161 l 1,2,-1
 247 -161 l 1,3,-1
 123 242 l 1,4,-1
 -6 242 l 1,5,-1
 -6 418 l 1,6,-1
 277 418 l 1,7,-1
 368 62 l 1,8,-1
 536 742 l 1,0,-1
EndSplineSet
EndChar

StartChar: infinity
Encoding: 8734 8734 686
Width: 835
Flags: W
LayerCount: 2
Fore
SplineSet
716 494.5 m 128,-1,1
 765 465 765 465 792.5 413.5 c 128,-1,2
 820 362 820 362 820 297 c 256,3,4
 820 232 820 232 792.5 180 c 128,-1,5
 765 128 765 128 716 98.5 c 128,-1,6
 667 69 667 69 606 69 c 0,7,8
 542 69 542 69 499 100.5 c 128,-1,9
 456 132 456 132 419 189 c 1,10,11
 383 133 383 133 339 101 c 128,-1,12
 295 69 295 69 228 69 c 0,13,14
 167 69 167 69 118.5 98.5 c 128,-1,15
 70 128 70 128 42.5 179.5 c 128,-1,16
 15 231 15 231 15 296 c 256,17,18
 15 361 15 361 42.5 413 c 128,-1,19
 70 465 70 465 118.5 494.5 c 128,-1,20
 167 524 167 524 228 524 c 0,21,22
 292 524 292 524 335 492.5 c 128,-1,23
 378 461 378 461 415 404 c 1,24,25
 451 460 451 460 495 492 c 128,-1,26
 539 524 539 524 606 524 c 0,27,0
 667 524 667 524 716 494.5 c 128,-1,1
300.5 239.5 m 128,-1,29
 327 260 327 260 352 298 c 1,30,31
 327 335 327 335 300.5 354.5 c 128,-1,32
 274 374 274 374 238 374 c 0,33,34
 206 374 206 374 185.5 352 c 128,-1,35
 165 330 165 330 165 296 c 256,36,37
 165 262 165 262 185.5 240.5 c 128,-1,38
 206 219 206 219 238 219 c 0,39,28
 274 219 274 219 300.5 239.5 c 128,-1,29
649 241 m 128,-1,41
 670 263 670 263 670 297 c 256,42,43
 670 331 670 331 649 352.5 c 128,-1,44
 628 374 628 374 596 374 c 0,45,46
 560 374 560 374 533.5 353.5 c 128,-1,47
 507 333 507 333 482 295 c 1,48,49
 507 258 507 258 533.5 238.5 c 128,-1,50
 560 219 560 219 596 219 c 0,51,40
 628 219 628 219 649 241 c 128,-1,41
EndSplineSet
EndChar

StartChar: integral
Encoding: 8747 8747 687
Width: 434
Flags: W
LayerCount: 2
Fore
SplineSet
373 705 m 0,1,2
 328 705 328 705 309 683.5 c 128,-1,3
 290 662 290 662 290 610 c 0,4,5
 290 567 290 567 303 383 c 0,6,7
 305 356 305 356 311.5 257.5 c 128,-1,8
 318 159 318 159 318 125 c 0,9,10
 318 26 318 26 296 -33.5 c 128,-1,11
 274 -93 274 -93 225.5 -120.5 c 128,-1,12
 177 -148 177 -148 96 -148 c 0,13,14
 54 -148 54 -148 24.5 -141 c 128,-1,15
 -5 -134 -5 -134 -30 -118 c 1,16,-1
 -5 25 l 1,17,18
 38 4 38 4 67 4 c 0,19,20
 114 4 114 4 134.5 28 c 128,-1,21
 155 52 155 52 155 109 c 0,22,23
 155 151 155 151 139 359 c 0,24,25
 125 555 125 555 125 589 c 0,26,27
 125 688 125 688 147 747 c 128,-1,28
 169 806 169 806 217 833 c 128,-1,29
 265 860 265 860 345 860 c 0,30,31
 373 860 373 860 398 854.5 c 128,-1,32
 423 849 423 849 454 835 c 1,33,-1
 434 693 l 1,34,0
 401 705 401 705 373 705 c 0,1,2
EndSplineSet
EndChar

StartChar: approxequal
Encoding: 8776 8776 688
Width: 520
Flags: W
LayerCount: 2
Fore
SplineSet
442 391 m 128,-1,1
 411 342 411 342 346 342 c 0,2,3
 318 342 318 342 298 350 c 128,-1,4
 278 358 278 358 255 372 c 256,5,6
 232 386 232 386 222 386 c 0,7,8
 196 386 196 386 196 345 c 1,9,-1
 47 345 l 1,10,11
 47 448 47 448 78.5 497 c 128,-1,12
 110 546 110 546 175 546 c 0,13,14
 203 546 203 546 223 538 c 128,-1,15
 243 530 243 530 266 516 c 256,16,17
 289 502 289 502 299 502 c 0,18,19
 325 502 325 502 325 543 c 1,20,-1
 473 543 l 1,21,0
 473 440 473 440 442 391 c 128,-1,1
442 151 m 128,-1,23
 411 102 411 102 346 102 c 0,24,25
 318 102 318 102 298 110 c 128,-1,26
 278 118 278 118 255 132 c 256,27,28
 232 146 232 146 222 146 c 0,29,30
 196 146 196 146 196 105 c 1,31,-1
 47 105 l 1,32,33
 47 208 47 208 78.5 257 c 128,-1,34
 110 306 110 306 175 306 c 0,35,36
 203 306 203 306 223 298 c 128,-1,37
 243 290 243 290 266 276 c 256,38,39
 289 262 289 262 299 262 c 0,40,41
 325 262 325 262 325 303 c 1,42,-1
 473 303 l 1,43,22
 473 200 473 200 442 151 c 128,-1,23
EndSplineSet
EndChar

StartChar: notequal
Encoding: 8800 8800 689
Width: 520
Flags: W
LayerCount: 2
Fore
SplineSet
490 369 m 1,0,-1
 353 369 l 1,1,-1
 328 289 l 1,2,-1
 490 289 l 1,3,-1
 490 149 l 1,4,-1
 284 149 l 1,5,-1
 241 13 l 1,6,-1
 73 13 l 1,7,-1
 116 149 l 1,8,-1
 30 149 l 1,9,-1
 30 289 l 1,10,-1
 160 289 l 1,11,-1
 185 369 l 1,12,-1
 30 369 l 1,13,-1
 30 509 l 1,14,-1
 229 509 l 1,15,-1
 270 640 l 1,16,-1
 438 640 l 1,17,-1
 397 509 l 1,18,-1
 490 509 l 1,19,-1
 490 369 l 1,0,-1
EndSplineSet
EndChar

StartChar: lessequal
Encoding: 8804 8804 690
Width: 520
Flags: W
LayerCount: 2
Fore
SplineSet
490 666 m 1,0,-1
 490 518 l 1,1,-1
 174 406 l 1,2,-1
 490 294 l 1,3,-1
 490 146 l 1,4,-1
 30 321 l 1,5,-1
 30 490 l 1,6,-1
 490 666 l 1,0,-1
30 124 m 1,7,-1
 490 124 l 1,8,-1
 490 -16 l 1,9,-1
 30 -16 l 1,10,-1
 30 124 l 1,7,-1
EndSplineSet
EndChar

StartChar: greaterequal
Encoding: 8805 8805 691
Width: 520
Flags: W
LayerCount: 2
Fore
SplineSet
30 155 m 1,0,-1
 30 303 l 1,1,-1
 346 415 l 1,2,-1
 30 527 l 1,3,-1
 30 676 l 1,4,-1
 490 500 l 1,5,-1
 490 331 l 1,6,-1
 30 155 l 1,0,-1
30 124 m 1,7,-1
 490 124 l 1,8,-1
 490 -16 l 1,9,-1
 30 -16 l 1,10,-1
 30 124 l 1,7,-1
EndSplineSet
EndChar

StartChar: filledbox
Encoding: 9632 9632 692
Width: 600
Flags: W
LayerCount: 2
Fore
SplineSet
106 459 m 1,0,-1
 494 459 l 1,1,-1
 494 71 l 1,2,-1
 106 71 l 1,3,-1
 106 459 l 1,0,-1
EndSplineSet
EndChar

StartChar: uni25A1
Encoding: 9633 9633 693
Width: 600
Flags: W
LayerCount: 2
Fore
SplineSet
106 459 m 1,0,-1
 494 459 l 1,1,-1
 494 71 l 1,2,-1
 106 71 l 1,3,-1
 106 459 l 1,0,-1
218 347 m 1,4,-1
 218 183 l 1,5,-1
 382 183 l 1,6,-1
 382 347 l 1,7,-1
 218 347 l 1,4,-1
EndSplineSet
EndChar

StartChar: triagup
Encoding: 9650 9650 694
Width: 600
Flags: W
LayerCount: 2
Fore
SplineSet
300 478 m 1,0,-1
 513 52 l 1,1,-1
 87 52 l 1,2,-1
 300 478 l 1,0,-1
EndSplineSet
EndChar

StartChar: uni25B3
Encoding: 9651 9651 695
Width: 600
Flags: W
LayerCount: 2
Fore
SplineSet
300 478 m 1,0,-1
 513 52 l 1,1,-1
 87 52 l 1,2,-1
 300 478 l 1,0,-1
300 282 m 1,3,-1
 229 140 l 1,4,-1
 371 140 l 1,5,-1
 300 282 l 1,3,-1
EndSplineSet
EndChar

StartChar: uni25B6
Encoding: 9654 9654 696
Width: 600
Flags: W
LayerCount: 2
Fore
SplineSet
541 266 m 1,0,-1
 115 53 l 1,1,-1
 115 479 l 1,2,-1
 541 266 l 1,0,-1
EndSplineSet
EndChar

StartChar: uni25B7
Encoding: 9655 9655 697
Width: 600
Flags: W
LayerCount: 2
Fore
SplineSet
541 266 m 1,0,-1
 115 53 l 1,1,-1
 115 479 l 1,2,-1
 541 266 l 1,0,-1
345 266 m 1,3,-1
 203 337 l 1,4,-1
 203 195 l 1,5,-1
 345 266 l 1,3,-1
EndSplineSet
EndChar

StartChar: triagdn
Encoding: 9660 9660 698
Width: 600
Flags: W
LayerCount: 2
Fore
SplineSet
300 52 m 1,0,-1
 87 478 l 1,1,-1
 513 478 l 1,2,-1
 300 52 l 1,0,-1
EndSplineSet
EndChar

StartChar: uni25BD
Encoding: 9661 9661 699
Width: 600
Flags: W
LayerCount: 2
Fore
SplineSet
300 52 m 1,0,-1
 87 478 l 1,1,-1
 513 478 l 1,2,-1
 300 52 l 1,0,-1
300 248 m 1,3,-1
 371 390 l 1,4,-1
 229 390 l 1,5,-1
 300 248 l 1,3,-1
EndSplineSet
EndChar

StartChar: uni25C0
Encoding: 9664 9664 700
Width: 600
Flags: W
LayerCount: 2
Fore
SplineSet
58 265 m 1,0,-1
 484 478 l 1,1,-1
 484 52 l 1,2,-1
 58 265 l 1,0,-1
EndSplineSet
EndChar

StartChar: uni25C1
Encoding: 9665 9665 701
Width: 600
Flags: W
LayerCount: 2
Fore
SplineSet
58 265 m 1,0,-1
 484 478 l 1,1,-1
 484 52 l 1,2,-1
 58 265 l 1,0,-1
254 265 m 1,3,-1
 396 194 l 1,4,-1
 396 336 l 1,5,-1
 254 265 l 1,3,-1
EndSplineSet
EndChar

StartChar: uni25C6
Encoding: 9670 9670 702
Width: 600
Flags: W
LayerCount: 2
Fore
SplineSet
300 540 m 1,0,-1
 574 265 l 1,1,-1
 300 -9 l 1,2,-1
 25 265 l 1,3,-1
 300 540 l 1,0,-1
EndSplineSet
EndChar

StartChar: uni25C7
Encoding: 9671 9671 703
Width: 600
Flags: W
LayerCount: 2
Fore
SplineSet
300 540 m 1,0,-1
 574 265 l 1,1,-1
 300 -9 l 1,2,-1
 25 265 l 1,3,-1
 300 540 l 1,0,-1
300 381 m 1,4,-1
 184 265 l 1,5,-1
 300 149 l 1,6,-1
 415 265 l 1,7,-1
 300 381 l 1,4,-1
EndSplineSet
EndChar

StartChar: lozenge
Encoding: 9674 9674 704
Width: 482
Flags: W
LayerCount: 2
Fore
SplineSet
242 666 m 1,0,-1
 467 330 l 1,1,-1
 240 -9 l 1,2,-1
 15 330 l 1,3,-1
 242 666 l 1,0,-1
241 453 m 1,4,-1
 158 330 l 1,5,-1
 241 205 l 1,6,-1
 324 330 l 1,7,-1
 241 453 l 1,4,-1
EndSplineSet
EndChar

StartChar: uniA78B
Encoding: 42891 42891 705
Width: 342
Flags: W
LayerCount: 2
Fore
SplineSet
55 701 m 1,0,-1
 287 701 l 1,1,-1
 257 296 l 1,2,-1
 55 296 l 1,3,-1
 55 701 l 1,0,-1
EndSplineSet
EndChar

StartChar: uniA78C
Encoding: 42892 42892 706
Width: 334
Flags: W
LayerCount: 2
Fore
SplineSet
55 701 m 1,0,-1
 279 701 l 1,1,-1
 249 296 l 1,2,-1
 55 296 l 1,3,-1
 55 701 l 1,0,-1
EndSplineSet
Substitution2: "<3,3> Small Caps in Latin lookup 11 subtable" uniA78C.sc
EndChar

StartChar: A.ss01
Encoding: 65538 -1 709
Width: 747
Flags: W
LayerCount: 2
Fore
SplineSet
81 570 m 128,-1,1
 122 640 122 640 197 678 c 128,-1,2
 272 716 272 716 371 716 c 0,3,4
 472 716 472 716 548 678 c 128,-1,5
 624 640 624 640 665.5 570 c 128,-1,6
 707 500 707 500 707 408 c 2,7,-1
 707 0 l 1,8,-1
 475 0 l 1,9,-1
 475 149 l 1,10,-1
 272 149 l 1,11,-1
 272 0 l 1,12,-1
 40 0 l 1,13,-1
 40 408 l 2,14,0
 40 500 40 500 81 570 c 128,-1,1
447 491.5 m 128,-1,16
 419 523 419 523 373 523 c 256,17,18
 327 523 327 523 299.5 491.5 c 128,-1,19
 272 460 272 460 272 408 c 2,20,-1
 272 315 l 1,21,-1
 475 315 l 1,22,-1
 475 408 l 2,23,15
 475 460 475 460 447 491.5 c 128,-1,16
EndSplineSet
EndChar

StartChar: Adieresis.alt
Encoding: 65553 -1 724
Width: 799
Flags: W
LayerCount: 2
Fore
SplineSet
94.5 589.5 m 128,-1,1
 76 608 76 608 76 637 c 256,2,3
 76 666 76 666 94.5 685 c 128,-1,4
 113 704 113 704 142 704 c 256,5,6
 171 704 171 704 189.5 685 c 128,-1,7
 208 666 208 666 208 637 c 256,8,9
 208 608 208 608 190 589.5 c 128,-1,10
 172 571 172 571 142 571 c 0,11,0
 113 571 113 571 94.5 589.5 c 128,-1,1
621.5 589.5 m 128,-1,13
 603 608 603 608 603 637 c 256,14,15
 603 666 603 666 621.5 685 c 128,-1,16
 640 704 640 704 669 704 c 256,17,18
 698 704 698 704 716.5 685 c 128,-1,19
 735 666 735 666 735 637 c 256,20,21
 735 608 735 608 716.5 589.5 c 128,-1,22
 698 571 698 571 669 571 c 256,23,12
 640 571 640 571 621.5 589.5 c 128,-1,13
562 0 m 1,24,-1
 527 99 l 1,25,-1
 264 99 l 1,26,-1
 228 0 l 1,27,-1
 -10 0 l 1,28,-1
 286 701 l 1,29,-1
 524 701 l 1,30,-1
 809 0 l 1,31,-1
 562 0 l 1,24,-1
324 265 m 1,32,-1
 470 265 l 1,33,-1
 398 470 l 1,34,-1
 324 265 l 1,32,-1
EndSplineSet
EndChar

StartChar: Aogonek.ss01
Encoding: 65560 -1 731
Width: 747
Flags: W
LayerCount: 2
Fore
SplineSet
570 -90 m 0,1,2
 570 -116 570 -116 590 -116 c 0,3,4
 601 -116 601 -116 615 -108 c 1,5,-1
 646 -219 l 1,6,7
 590 -244 590 -244 539 -244 c 0,8,9
 482 -244 482 -244 452.5 -211 c 128,-1,10
 423 -178 423 -178 423 -127 c 0,11,12
 423 -60 423 -60 475 1 c 1,13,-1
 475 149 l 1,14,-1
 272 149 l 1,15,-1
 272 0 l 1,16,-1
 40 0 l 1,17,-1
 40 408 l 2,18,19
 40 500 40 500 81 570 c 128,-1,20
 122 640 122 640 197 678 c 128,-1,21
 272 716 272 716 371 716 c 0,22,23
 472 716 472 716 548 678 c 128,-1,24
 624 640 624 640 665.5 570 c 128,-1,25
 707 500 707 500 707 408 c 2,26,-1
 707 0 l 1,27,-1
 639 0 l 1,28,0
 570 -48 570 -48 570 -90 c 0,1,2
475 315 m 1,29,-1
 475 408 l 2,30,31
 475 460 475 460 447 491.5 c 128,-1,32
 419 523 419 523 373 523 c 256,33,34
 327 523 327 523 299.5 491.5 c 128,-1,35
 272 460 272 460 272 408 c 2,36,-1
 272 315 l 1,37,-1
 475 315 l 1,29,-1
EndSplineSet
EndChar

StartChar: E.ss01
Encoding: 65566 -1 737
Width: 675
Flags: W
LayerCount: 2
Fore
SplineSet
279 260 m 128,-1,1
 255 248 255 248 255 226 c 0,2,3
 255 201 255 201 284.5 185.5 c 128,-1,4
 314 170 314 170 359 170 c 0,5,6
 410 170 410 170 474 187.5 c 128,-1,7
 538 205 538 205 578 229 c 1,8,-1
 665 62 l 1,9,10
 605 26 605 26 517 5 c 128,-1,11
 429 -16 429 -16 337 -16 c 0,12,13
 239 -16 239 -16 166.5 9 c 128,-1,14
 94 34 94 34 54.5 80.5 c 128,-1,15
 15 127 15 127 15 191 c 0,16,17
 15 254 15 254 52.5 300.5 c 128,-1,18
 90 347 90 347 159 370 c 1,19,20
 112 393 112 393 85 435 c 128,-1,21
 58 477 58 477 58 529 c 0,22,23
 58 618 58 618 138 668.5 c 128,-1,24
 218 719 218 719 358 719 c 0,25,26
 437 719 437 719 513 703.5 c 128,-1,27
 589 688 589 688 638 663 c 1,28,-1
 565 494 l 1,29,30
 522 512 522 512 472.5 522.5 c 128,-1,31
 423 533 423 533 378 533 c 0,32,33
 329 533 329 533 303 520 c 128,-1,34
 277 507 277 507 277 484 c 0,35,36
 277 463 277 463 297 451.5 c 128,-1,37
 317 440 317 440 344 440 c 2,38,-1
 537 440 l 1,39,-1
 537 272 l 1,40,-1
 344 272 l 2,41,0
 303 272 303 272 279 260 c 128,-1,1
EndSplineSet
EndChar

StartChar: uni1E1C.ss01
Encoding: 65570 -1 741
Width: 675
Flags: W
LayerCount: 2
Fore
SplineSet
203 799.5 m 128,-1,1
 153 847 153 847 149 926 c 1,2,-1
 284 926 l 1,3,4
 286 903 286 903 299.5 889.5 c 128,-1,5
 313 876 313 876 333 876 c 256,6,7
 353 876 353 876 366.5 889.5 c 128,-1,8
 380 903 380 903 382 926 c 1,9,-1
 517 926 l 1,10,11
 513 847 513 847 463 799.5 c 128,-1,12
 413 752 413 752 333 752 c 256,13,0
 253 752 253 752 203 799.5 c 128,-1,1
481 -142 m 0,15,16
 481 -194 481 -194 441 -219 c 128,-1,17
 401 -244 401 -244 344 -244 c 0,18,19
 282 -244 282 -244 225 -225 c 1,20,-1
 255 -135 l 1,21,22
 275 -142 275 -142 300 -142 c 0,23,24
 318 -142 318 -142 329 -137 c 128,-1,25
 340 -132 340 -132 340 -123 c 0,26,27
 340 -111 340 -111 323.5 -105.5 c 128,-1,28
 307 -100 307 -100 283 -100 c 2,29,-1
 266 -100 l 1,30,-1
 294 -15 l 1,31,32
 164 -7 164 -7 89.5 47.5 c 128,-1,33
 15 102 15 102 15 191 c 0,34,35
 15 254 15 254 52.5 300.5 c 128,-1,36
 90 347 90 347 159 370 c 1,37,38
 112 393 112 393 85 435 c 128,-1,39
 58 477 58 477 58 529 c 0,40,41
 58 618 58 618 138 668.5 c 128,-1,42
 218 719 218 719 358 719 c 0,43,44
 437 719 437 719 513 703.5 c 128,-1,45
 589 688 589 688 638 663 c 1,46,-1
 565 494 l 1,47,48
 522 512 522 512 472.5 522.5 c 128,-1,49
 423 533 423 533 378 533 c 0,50,51
 329 533 329 533 303 520 c 128,-1,52
 277 507 277 507 277 484 c 0,53,54
 277 463 277 463 297 451.5 c 128,-1,55
 317 440 317 440 344 440 c 2,56,-1
 537 440 l 1,57,-1
 537 272 l 1,58,-1
 344 272 l 2,59,60
 303 272 303 272 279 260 c 128,-1,61
 255 248 255 248 255 226 c 0,62,63
 255 201 255 201 284.5 185.5 c 128,-1,64
 314 170 314 170 359 170 c 0,65,66
 410 170 410 170 474 187.5 c 128,-1,67
 538 205 538 205 578 229 c 1,68,-1
 665 62 l 1,69,70
 618 34 618 34 553 15 c 128,-1,71
 488 -4 488 -4 416 -12 c 1,72,-1
 398 -59 l 1,73,14
 481 -81 481 -81 481 -142 c 0,15,16
EndSplineSet
EndChar

StartChar: Eogonek.ss01
Encoding: 65587 -1 758
Width: 675
Flags: W
LayerCount: 2
Fore
SplineSet
614 -108 m 1,1,-1
 645 -219 l 1,2,3
 618 -231 618 -231 594.5 -237.5 c 128,-1,4
 571 -244 571 -244 542 -244 c 0,5,6
 489 -244 489 -244 455.5 -216 c 128,-1,7
 422 -188 422 -188 422 -132 c 0,8,9
 422 -97 422 -97 437 -65.5 c 128,-1,10
 452 -34 452 -34 484 -2 c 1,11,12
 411 -16 411 -16 337 -16 c 0,13,14
 239 -16 239 -16 166.5 9 c 128,-1,15
 94 34 94 34 54.5 80.5 c 128,-1,16
 15 127 15 127 15 191 c 0,17,18
 15 254 15 254 52.5 300.5 c 128,-1,19
 90 347 90 347 159 370 c 1,20,21
 112 393 112 393 85 435 c 128,-1,22
 58 477 58 477 58 529 c 0,23,24
 58 618 58 618 138 668.5 c 128,-1,25
 218 719 218 719 358 719 c 0,26,27
 437 719 437 719 513 703.5 c 128,-1,28
 589 688 589 688 638 663 c 1,29,-1
 565 494 l 1,30,31
 522 512 522 512 472.5 522.5 c 128,-1,32
 423 533 423 533 378 533 c 0,33,34
 329 533 329 533 303 520 c 128,-1,35
 277 507 277 507 277 484 c 0,36,37
 277 463 277 463 297 451.5 c 128,-1,38
 317 440 317 440 344 440 c 2,39,-1
 537 440 l 1,40,-1
 537 272 l 1,41,-1
 344 272 l 2,42,43
 303 272 303 272 279 260 c 128,-1,44
 255 248 255 248 255 226 c 0,45,46
 255 201 255 201 284.5 185.5 c 128,-1,47
 314 170 314 170 359 170 c 0,48,49
 410 170 410 170 474 187.5 c 128,-1,50
 538 205 538 205 578 229 c 1,51,-1
 665 62 l 1,52,-1
 644 50 l 1,53,54
 609 14 609 14 589 -22.5 c 128,-1,55
 569 -59 569 -59 569 -88 c 0,56,57
 569 -116 569 -116 588 -116 c 0,58,0
 600 -116 600 -116 614 -108 c 1,1,-1
EndSplineSet
EndChar

StartChar: F.ss01
Encoding: 65589 -1 760
Width: 580
Flags: W
LayerCount: 2
Fore
SplineSet
292 499 m 128,-1,1
 273 480 273 480 273 449 c 2,2,-1
 273 405 l 1,3,-1
 524 405 l 1,4,-1
 524 229 l 1,5,-1
 273 229 l 1,6,-1
 273 0 l 1,7,-1
 40 0 l 1,8,-1
 40 454 l 2,9,10
 40 531 40 531 74.5 589.5 c 128,-1,11
 109 648 109 648 172.5 679.5 c 128,-1,12
 236 711 236 711 321 711 c 0,13,14
 396 711 396 711 469.5 698 c 128,-1,15
 543 685 543 685 590 663 c 1,16,-1
 538 473 l 1,17,18
 490 492 490 492 436.5 505 c 128,-1,19
 383 518 383 518 343 518 c 0,20,0
 311 518 311 518 292 499 c 128,-1,1
EndSplineSet
EndChar

StartChar: G.ss01
Encoding: 65590 -1 761
Width: 738
Flags: W
LayerCount: 2
Fore
SplineSet
503 370 m 1,0,-1
 702 370 l 1,1,-1
 702 0 l 1,2,-1
 533 0 l 1,3,-1
 533 36 l 1,4,5
 495 11 495 11 452.5 -2.5 c 128,-1,6
 410 -16 410 -16 369 -16 c 0,7,8
 268 -16 268 -16 187 31.5 c 128,-1,9
 106 79 106 79 60.5 162.5 c 128,-1,10
 15 246 15 246 15 351 c 0,11,12
 15 455 15 455 65.5 538.5 c 128,-1,13
 116 622 116 622 205 669 c 128,-1,14
 294 716 294 716 406 716 c 0,15,16
 489 716 489 716 572.5 686 c 128,-1,17
 656 656 656 656 713 606 c 1,18,-1
 582 447 l 1,19,20
 547 482 547 482 499.5 502.5 c 128,-1,21
 452 523 452 523 409 523 c 0,22,23
 365 523 365 523 329 500.5 c 128,-1,24
 293 478 293 478 273 439 c 128,-1,25
 253 400 253 400 253 351 c 0,26,27
 253 301 253 301 271.5 261.5 c 128,-1,28
 290 222 290 222 322.5 199.5 c 128,-1,29
 355 177 355 177 396 177 c 0,30,31
 426 177 426 177 454 190 c 128,-1,32
 482 203 482 203 503 226 c 1,33,-1
 503 370 l 1,0,-1
EndSplineSet
EndChar

StartChar: I.ss01
Encoding: 65597 -1 768
Width: 524
Flags: W
LayerCount: 2
Fore
SplineSet
484 525 m 1,0,-1
 378 525 l 1,1,-1
 378 176 l 1,2,-1
 484 176 l 1,3,-1
 484 0 l 1,4,-1
 40 0 l 1,5,-1
 40 176 l 1,6,-1
 146 176 l 1,7,-1
 146 525 l 1,8,-1
 40 525 l 1,9,-1
 40 701 l 1,10,-1
 484 701 l 1,11,-1
 484 525 l 1,0,-1
EndSplineSet
EndChar

StartChar: Iogonek.ss01
Encoding: 65613 -1 784
Width: 524
Flags: W
LayerCount: 2
Fore
SplineSet
378 525 m 1,0,-1
 378 176 l 1,1,-1
 484 176 l 1,2,-1
 484 0 l 1,3,-1
 310 0 l 1,4,5
 241 -48 241 -48 241 -90 c 0,6,7
 241 -116 241 -116 261 -116 c 0,8,9
 272 -116 272 -116 286 -108 c 1,10,-1
 317 -219 l 1,11,12
 261 -244 261 -244 210 -244 c 0,13,14
 153 -244 153 -244 123.5 -211 c 128,-1,15
 94 -178 94 -178 94 -127 c 0,16,17
 94 -62 94 -62 145 0 c 1,18,-1
 40 0 l 1,19,-1
 40 176 l 1,20,-1
 146 176 l 1,21,-1
 146 525 l 1,22,-1
 40 525 l 1,23,-1
 40 701 l 1,24,-1
 484 701 l 1,25,-1
 484 525 l 1,26,-1
 378 525 l 1,0,-1
EndSplineSet
EndChar

StartChar: J.ss01
Encoding: 65615 -1 786
Width: 569
Flags: W
LayerCount: 2
Fore
SplineSet
458 -45 m 128,-1,1
 387 -110 387 -110 265 -110 c 0,2,3
 103 -110 103 -110 -8 12 c 1,4,-1
 97 162 l 1,5,6
 136 123 136 123 175.5 103 c 128,-1,7
 215 83 215 83 243 83 c 0,8,9
 268 83 268 83 282.5 98 c 128,-1,10
 297 113 297 113 297 142 c 2,11,-1
 297 518 l 1,12,-1
 58 518 l 1,13,-1
 58 701 l 1,14,-1
 529 701 l 1,15,-1
 529 137 l 2,16,0
 529 20 529 20 458 -45 c 128,-1,1
EndSplineSet
EndChar

StartChar: M.ss01
Encoding: 65620 -1 791
Width: 1160
Flags: W
LayerCount: 2
Fore
SplineSet
1013.5 684 m 128,-1,1
 1064 652 1064 652 1092 594 c 128,-1,2
 1120 536 1120 536 1120 458 c 2,3,-1
 1120 0 l 1,4,-1
 885 0 l 1,5,-1
 885 402 l 2,6,7
 885 451 885 451 862.5 479.5 c 128,-1,8
 840 508 840 508 798 508 c 0,9,10
 754 508 754 508 727.5 477 c 128,-1,11
 701 446 701 446 701 395 c 2,12,-1
 701 0 l 1,13,-1
 466 0 l 1,14,-1
 466 402 l 2,15,16
 466 451 466 451 443.5 479.5 c 128,-1,17
 421 508 421 508 379 508 c 0,18,19
 335 508 335 508 308.5 477 c 128,-1,20
 282 446 282 446 282 395 c 2,21,-1
 282 0 l 1,22,-1
 50 0 l 1,23,-1
 50 701 l 1,24,-1
 282 701 l 1,25,-1
 282 606 l 1,26,27
 314 659 314 659 364 687.5 c 128,-1,28
 414 716 414 716 477 716 c 0,29,30
 551 716 551 716 604.5 678 c 128,-1,31
 658 640 658 640 683 571 c 1,32,33
 713 640 713 640 768 678 c 128,-1,34
 823 716 823 716 896 716 c 0,35,0
 963 716 963 716 1013.5 684 c 128,-1,1
EndSplineSet
EndChar

StartChar: N.ss01
Encoding: 65622 -1 793
Width: 761
Flags: W
LayerCount: 2
Fore
SplineSet
610 684.5 m 128,-1,1
 663 653 663 653 692 594.5 c 128,-1,2
 721 536 721 536 721 458 c 2,3,-1
 721 0 l 1,4,-1
 486 0 l 1,5,-1
 486 402 l 2,6,7
 486 450 486 450 461 479 c 128,-1,8
 436 508 436 508 393 508 c 0,9,10
 342 508 342 508 312 477.5 c 128,-1,11
 282 447 282 447 282 395 c 2,12,-1
 282 0 l 1,13,-1
 50 0 l 1,14,-1
 50 701 l 1,15,-1
 282 701 l 1,16,-1
 282 603 l 1,17,18
 315 657 315 657 367.5 686.5 c 128,-1,19
 420 716 420 716 486 716 c 0,20,0
 557 716 557 716 610 684.5 c 128,-1,1
EndSplineSet
EndChar

StartChar: Eng.ss01
Encoding: 65629 -1 800
Width: 761
Flags: W
LayerCount: 2
Fore
SplineSet
610 669.5 m 128,-1,1
 663 638 663 638 692 579.5 c 128,-1,2
 721 521 721 521 721 443 c 2,3,-1
 721 0 l 1,4,5
 714 -106 714 -106 643.5 -165.5 c 128,-1,6
 573 -225 573 -225 457 -225 c 0,7,8
 365 -225 365 -225 288 -185 c 1,9,-1
 359 -10 l 1,10,11
 409 -32 409 -32 442 -32 c 0,12,13
 486 -32 486 -32 486 12 c 2,14,-1
 486 387 l 2,15,16
 486 435 486 435 461 464 c 128,-1,17
 436 493 436 493 393 493 c 0,18,19
 342 493 342 493 312 462.5 c 128,-1,20
 282 432 282 432 282 380 c 2,21,-1
 282 0 l 1,22,-1
 50 0 l 1,23,-1
 50 701 l 1,24,-1
 282 701 l 1,25,-1
 282 588 l 1,26,27
 315 642 315 642 367.5 671.5 c 128,-1,28
 420 701 420 701 486 701 c 0,29,0
 557 701 557 701 610 669.5 c 128,-1,1
EndSplineSet
EndChar

StartChar: Q.ss01
Encoding: 65633 -1 804
Width: 800
Flags: W
LayerCount: 2
Fore
SplineSet
750 191.5 m 128,-1,1
 715 118 715 118 651.5 67 c 128,-1,2
 588 16 588 16 505 -4 c 1,3,-1
 505 -150 l 1,4,-1
 295 -150 l 1,5,-1
 295 -4 l 1,6,7
 212 16 212 16 148.5 66.5 c 128,-1,8
 85 117 85 117 50 190.5 c 128,-1,9
 15 264 15 264 15 352 c 0,10,11
 15 457 15 457 64.5 540 c 128,-1,12
 114 623 114 623 202 669.5 c 128,-1,13
 290 716 290 716 400 716 c 256,14,15
 510 716 510 716 598 669 c 128,-1,16
 686 622 686 622 735.5 539 c 128,-1,17
 785 456 785 456 785 352 c 0,18,0
 785 265 785 265 750 191.5 c 128,-1,1
476 199.5 m 128,-1,20
 509 222 509 222 528 262 c 128,-1,21
 547 302 547 302 547 351 c 256,22,23
 547 400 547 400 528 439.5 c 128,-1,24
 509 479 509 479 476 501 c 128,-1,25
 443 523 443 523 403 523 c 256,26,27
 363 523 363 523 328.5 500.5 c 128,-1,28
 294 478 294 478 273.5 439 c 128,-1,29
 253 400 253 400 253 351 c 256,30,31
 253 302 253 302 273.5 262.5 c 128,-1,32
 294 223 294 223 328.5 200 c 128,-1,33
 363 177 363 177 403 177 c 256,34,19
 443 177 443 177 476 199.5 c 128,-1,20
EndSplineSet
EndChar

StartChar: uni018F.ss01
Encoding: 65634 -1 805
Width: 781
Flags: W
LayerCount: 2
Fore
SplineSet
573.5 669 m 128,-1,1
 659 622 659 622 707.5 539 c 128,-1,2
 756 456 756 456 756 352 c 0,3,4
 756 247 756 247 707.5 163 c 128,-1,5
 659 79 659 79 574 31.5 c 128,-1,6
 489 -16 489 -16 382 -16 c 0,7,8
 279 -16 279 -16 204 23.5 c 128,-1,9
 129 63 129 63 84.5 126 c 128,-1,10
 40 189 40 189 22 264 c 1,11,-1
 494 455 l 1,12,13
 475 488 475 488 446.5 505.5 c 128,-1,14
 418 523 418 523 385 523 c 0,15,16
 343 523 343 523 308.5 500 c 128,-1,17
 274 477 274 477 254 438 c 1,18,-1
 95 603 l 1,19,20
 147 657 147 657 220.5 686.5 c 128,-1,21
 294 716 294 716 381 716 c 0,22,0
 488 716 488 716 573.5 669 c 128,-1,1
477.5 218 m 128,-1,24
 512 259 512 259 517 326 c 1,25,-1
 282 229 l 1,26,27
 300 205 300 205 326.5 191 c 128,-1,28
 353 177 353 177 384 177 c 0,29,23
 443 177 443 177 477.5 218 c 128,-1,24
EndSplineSet
EndChar

StartChar: T.ss01
Encoding: 65635 -1 806
Width: 712
Flags: W
LayerCount: 2
Fore
SplineSet
634 461 m 1,0,1
 555 500 555 500 467 516 c 1,2,-1
 467 0 l 1,3,-1
 235 0 l 1,4,-1
 235 516 l 1,5,6
 146 500 146 500 68 461 c 1,7,-1
 10 632 l 1,8,9
 84 673 84 673 171 694.5 c 128,-1,10
 258 716 258 716 350 716 c 256,11,12
 442 716 442 716 529.5 694 c 128,-1,13
 617 672 617 672 692 631 c 1,14,-1
 634 461 l 1,0,1
EndSplineSet
EndChar

StartChar: Tbar.ss01
Encoding: 65636 -1 807
Width: 712
Flags: W
LayerCount: 2
Fore
SplineSet
467 516 m 1,1,-1
 467 359 l 1,2,-1
 577 359 l 1,3,-1
 577 240 l 1,4,-1
 467 240 l 1,5,-1
 467 0 l 1,6,-1
 235 0 l 1,7,-1
 235 240 l 1,8,-1
 122 240 l 1,9,-1
 122 359 l 1,10,-1
 235 359 l 1,11,-1
 235 516 l 1,12,13
 146 500 146 500 68 461 c 1,14,-1
 10 632 l 1,15,16
 84 673 84 673 171 694.5 c 128,-1,17
 258 716 258 716 350 716 c 256,18,19
 442 716 442 716 529.5 694 c 128,-1,20
 617 672 617 672 692 631 c 1,21,-1
 634 461 l 1,22,0
 555 500 555 500 467 516 c 1,1,-1
EndSplineSet
EndChar

StartChar: uni0162.ss01
Encoding: 65638 -1 809
Width: 712
Flags: W
LayerCount: 2
Fore
SplineSet
415 0 m 1,0,-1
 393 -59 l 1,1,2
 476 -81 476 -81 476 -142 c 0,3,4
 476 -194 476 -194 436 -219 c 128,-1,5
 396 -244 396 -244 339 -244 c 0,6,7
 277 -244 277 -244 220 -225 c 1,8,-1
 250 -135 l 1,9,10
 270 -142 270 -142 295 -142 c 0,11,12
 313 -142 313 -142 324 -137 c 128,-1,13
 335 -132 335 -132 335 -123 c 0,14,15
 335 -111 335 -111 318.5 -105.5 c 128,-1,16
 302 -100 302 -100 278 -100 c 2,17,-1
 261 -100 l 1,18,-1
 294 0 l 1,19,-1
 235 0 l 1,20,-1
 235 516 l 1,21,22
 146 500 146 500 68 461 c 1,23,-1
 10 632 l 1,24,25
 84 673 84 673 171 694.5 c 128,-1,26
 258 716 258 716 350 716 c 256,27,28
 442 716 442 716 529.5 694 c 128,-1,29
 617 672 617 672 692 631 c 1,30,-1
 634 461 l 1,31,32
 555 500 555 500 467 516 c 1,33,-1
 467 0 l 1,34,-1
 415 0 l 1,0,-1
EndSplineSet
EndChar

StartChar: U.ss01
Encoding: 65642 -1 813
Width: 761
Flags: W
LayerCount: 2
Fore
SplineSet
711 701 m 1,0,-1
 711 0 l 1,1,-1
 479 0 l 1,2,-1
 479 101 l 1,3,4
 446 45 446 45 393.5 14.5 c 128,-1,5
 341 -16 341 -16 275 -16 c 0,6,7
 204 -16 204 -16 151 16.5 c 128,-1,8
 98 49 98 49 69 109.5 c 128,-1,9
 40 170 40 170 40 250 c 2,10,-1
 40 701 l 1,11,-1
 275 701 l 1,12,-1
 275 305 l 2,13,14
 275 254 275 254 300 223 c 128,-1,15
 325 192 325 192 368 192 c 0,16,17
 419 192 419 192 449 225.5 c 128,-1,18
 479 259 479 259 479 315 c 2,19,-1
 479 701 l 1,20,-1
 711 701 l 1,0,-1
EndSplineSet
EndChar

StartChar: Udieresis.alt
Encoding: 65647 -1 818
Width: 741
Flags: W
LayerCount: 2
Fore
SplineSet
414 685 m 128,-1,1
 432 666 432 666 432 636 c 0,2,3
 432 607 432 607 414 588.5 c 128,-1,4
 396 570 396 570 367 570 c 256,5,6
 338 570 338 570 319.5 588.5 c 128,-1,7
 301 607 301 607 301 636 c 0,8,9
 301 666 301 666 319.5 685 c 128,-1,10
 338 704 338 704 367 704 c 256,11,0
 396 704 396 704 414 685 c 128,-1,1
302 209 m 128,-1,13
 332 177 332 177 374 177 c 0,14,15
 415 177 415 177 442 208.5 c 128,-1,16
 469 240 469 240 469 291 c 2,17,-1
 469 701 l 1,18,-1
 701 701 l 1,19,-1
 701 291 l 2,20,21
 701 199 701 199 660.5 129.5 c 128,-1,22
 620 60 620 60 546 22 c 128,-1,23
 472 -16 472 -16 373 -16 c 256,24,25
 274 -16 274 -16 198.5 22 c 128,-1,26
 123 60 123 60 81.5 129.5 c 128,-1,27
 40 199 40 199 40 291 c 2,28,-1
 40 701 l 1,29,-1
 272 701 l 1,30,-1
 272 291 l 2,31,12
 272 241 272 241 302 209 c 128,-1,13
413.5 500 m 128,-1,33
 432 481 432 481 432 452 c 256,34,35
 432 423 432 423 413.5 404 c 128,-1,36
 395 385 395 385 366 385 c 256,37,38
 337 385 337 385 319 404 c 128,-1,39
 301 423 301 423 301 452 c 256,40,41
 301 481 301 481 319 500 c 128,-1,42
 337 519 337 519 366 519 c 256,43,32
 395 519 395 519 413.5 500 c 128,-1,33
EndSplineSet
EndChar

StartChar: Udieresis.ss01.alt
Encoding: 65649 -1 820
Width: 761
Flags: W
LayerCount: 2
Fore
SplineSet
329.5 588.5 m 128,-1,1
 311 607 311 607 311 636 c 0,2,3
 311 666 311 666 329.5 685 c 128,-1,4
 348 704 348 704 377 704 c 256,5,6
 406 704 406 704 424 685 c 128,-1,7
 442 666 442 666 442 636 c 0,8,9
 442 607 442 607 424 588.5 c 128,-1,10
 406 570 406 570 377 570 c 256,11,0
 348 570 348 570 329.5 588.5 c 128,-1,1
711 701 m 1,12,-1
 711 0 l 1,13,-1
 479 0 l 1,14,-1
 479 101 l 1,15,16
 446 45 446 45 393.5 14.5 c 128,-1,17
 341 -16 341 -16 275 -16 c 0,18,19
 204 -16 204 -16 151 16.5 c 128,-1,20
 98 49 98 49 69 109.5 c 128,-1,21
 40 170 40 170 40 250 c 2,22,-1
 40 701 l 1,23,-1
 275 701 l 1,24,-1
 275 305 l 2,25,26
 275 254 275 254 300 223 c 128,-1,27
 325 192 325 192 368 192 c 0,28,29
 419 192 419 192 449 225.5 c 128,-1,30
 479 259 479 259 479 315 c 2,31,-1
 479 701 l 1,32,-1
 711 701 l 1,12,-1
329 404 m 128,-1,34
 311 423 311 423 311 452 c 256,35,36
 311 481 311 481 329 500 c 128,-1,37
 347 519 347 519 376 519 c 256,38,39
 405 519 405 519 423.5 500 c 128,-1,40
 442 481 442 481 442 452 c 256,41,42
 442 423 442 423 423.5 404 c 128,-1,43
 405 385 405 385 376 385 c 256,44,33
 347 385 347 385 329 404 c 128,-1,34
EndSplineSet
EndChar

StartChar: Uhorn.ss01
Encoding: 65653 -1 824
Width: 814
Flags: W
LayerCount: 2
Fore
SplineSet
841 750 m 0,1,2
 841 693 841 693 808 655.5 c 128,-1,3
 775 618 775 618 711 603 c 1,4,-1
 711 0 l 1,5,-1
 479 0 l 1,6,-1
 479 101 l 1,7,8
 446 45 446 45 393.5 14.5 c 128,-1,9
 341 -16 341 -16 275 -16 c 0,10,11
 204 -16 204 -16 151 16.5 c 128,-1,12
 98 49 98 49 69 109.5 c 128,-1,13
 40 170 40 170 40 250 c 2,14,-1
 40 701 l 1,15,-1
 275 701 l 1,16,-1
 275 305 l 2,17,18
 275 254 275 254 300 223 c 128,-1,19
 325 192 325 192 368 192 c 0,20,21
 419 192 419 192 449 225.5 c 128,-1,22
 479 259 479 259 479 315 c 2,23,-1
 479 701 l 1,24,-1
 631 701 l 2,25,26
 656 701 656 701 668.5 715.5 c 128,-1,27
 681 730 681 730 681 752 c 0,28,29
 681 766 681 766 676.5 779.5 c 128,-1,30
 672 793 672 793 664 802 c 1,31,-1
 817 859 l 1,32,0
 841 798 841 798 841 750 c 0,1,2
EndSplineSet
EndChar

StartChar: Uogonek.ss01
Encoding: 65663 -1 834
Width: 761
Flags: W
LayerCount: 2
Fore
SplineSet
573 -90 m 0,1,2
 573 -116 573 -116 593 -116 c 0,3,4
 604 -116 604 -116 618 -108 c 1,5,-1
 649 -219 l 1,6,7
 593 -244 593 -244 542 -244 c 0,8,9
 485 -244 485 -244 455.5 -211 c 128,-1,10
 426 -178 426 -178 426 -127 c 0,11,12
 426 -62 426 -62 479 3 c 1,13,-1
 479 101 l 1,14,15
 446 45 446 45 393.5 14.5 c 128,-1,16
 341 -16 341 -16 275 -16 c 0,17,18
 204 -16 204 -16 151 16.5 c 128,-1,19
 98 49 98 49 69 109.5 c 128,-1,20
 40 170 40 170 40 250 c 2,21,-1
 40 701 l 1,22,-1
 275 701 l 1,23,-1
 275 305 l 2,24,25
 275 254 275 254 300 223 c 128,-1,26
 325 192 325 192 368 192 c 0,27,28
 419 192 419 192 449 225.5 c 128,-1,29
 479 259 479 259 479 315 c 2,30,-1
 479 701 l 1,31,-1
 711 701 l 1,32,-1
 711 0 l 1,33,-1
 642 0 l 1,34,0
 573 -48 573 -48 573 -90 c 0,1,2
EndSplineSet
EndChar

StartChar: W.ss01
Encoding: 65667 -1 838
Width: 1134
Flags: W
LayerCount: 2
Fore
SplineSet
1057.5 129.5 m 128,-1,1
 1021 62 1021 62 957 23.5 c 128,-1,2
 893 -15 893 -15 813 -15 c 0,3,4
 739 -15 739 -15 672.5 18 c 128,-1,5
 606 51 606 51 568 103 c 1,6,7
 531 51 531 51 465.5 18 c 128,-1,8
 400 -15 400 -15 325 -15 c 0,9,10
 244 -15 244 -15 179 23.5 c 128,-1,11
 114 62 114 62 77 129.5 c 128,-1,12
 40 197 40 197 40 282 c 2,13,-1
 40 701 l 1,14,-1
 272 701 l 1,15,-1
 272 282 l 2,16,17
 272 237 272 237 298 207.5 c 128,-1,18
 324 178 324 178 363 178 c 0,19,20
 401 178 401 178 426 207.5 c 128,-1,21
 451 237 451 237 451 282 c 2,22,-1
 451 701 l 1,23,-1
 683 701 l 1,24,-1
 683 282 l 2,25,26
 683 238 683 238 710 208 c 128,-1,27
 737 178 737 178 776 178 c 0,28,29
 814 178 814 178 838 207.5 c 128,-1,30
 862 237 862 237 862 282 c 2,31,-1
 862 701 l 1,32,-1
 1094 701 l 1,33,-1
 1094 282 l 2,34,0
 1094 197 1094 197 1057.5 129.5 c 128,-1,1
EndSplineSet
EndChar

StartChar: Y.ss01
Encoding: 65672 -1 843
Width: 746
Flags: W
LayerCount: 2
Fore
SplineSet
706 701 m 1,0,-1
 706 197 l 2,1,2
 706 105 706 105 663 35.5 c 128,-1,3
 620 -34 620 -34 542 -72 c 128,-1,4
 464 -110 464 -110 361 -110 c 0,5,6
 275 -110 275 -110 191 -84.5 c 128,-1,7
 107 -59 107 -59 50 -17 c 1,8,-1
 136 139 l 1,9,10
 179 113 179 113 231.5 98 c 128,-1,11
 284 83 284 83 330 83 c 0,12,13
 395 83 395 83 434.5 115.5 c 128,-1,14
 474 148 474 148 474 202 c 2,15,-1
 474 254 l 1,16,17
 442 205 442 205 392.5 178.5 c 128,-1,18
 343 152 343 152 280 152 c 0,19,20
 209 152 209 152 154.5 185.5 c 128,-1,21
 100 219 100 219 70 280.5 c 128,-1,22
 40 342 40 342 40 423 c 2,23,-1
 40 701 l 1,24,-1
 272 701 l 1,25,-1
 272 445 l 2,26,27
 272 401 272 401 298.5 375.5 c 128,-1,28
 325 350 325 350 371 350 c 0,29,30
 418 350 418 350 446 376.5 c 128,-1,31
 474 403 474 403 474 448 c 2,32,-1
 474 701 l 1,33,-1
 706 701 l 1,0,-1
EndSplineSet
EndChar

StartChar: Z.ss01
Encoding: 65682 -1 853
Width: 683
Flags: W
LayerCount: 2
Fore
SplineSet
329 178 m 1,0,-1
 663 178 l 1,1,-1
 663 0 l 1,2,-1
 20 0 l 1,3,-1
 20 145 l 1,4,-1
 151 297 l 1,5,-1
 68 297 l 1,6,-1
 68 436 l 1,7,-1
 272 436 l 1,8,-1
 347 523 l 1,9,-1
 32 523 l 1,10,-1
 32 701 l 1,11,-1
 656 701 l 1,12,-1
 656 556 l 1,13,-1
 535 416 l 1,14,-1
 605 416 l 1,15,-1
 605 277 l 1,16,-1
 415 277 l 1,17,-1
 329 178 l 1,0,-1
EndSplineSet
EndChar

StartChar: a.ss01
Encoding: 65687 -1 858
Width: 685
Flags: W
LayerCount: 2
Fore
SplineSet
630 547 m 1,0,-1
 630 0 l 1,1,-1
 405 0 l 1,2,-1
 405 55 l 1,3,4
 351 -8 351 -8 266 -8 c 0,5,6
 191 -8 191 -8 134 27 c 128,-1,7
 77 62 77 62 46 126.5 c 128,-1,8
 15 191 15 191 15 277 c 0,9,10
 15 361 15 361 45 424 c 128,-1,11
 75 487 75 487 130.5 521 c 128,-1,12
 186 555 186 555 260 555 c 0,13,14
 304 555 304 555 341 538.5 c 128,-1,15
 378 522 378 522 405 491 c 1,16,-1
 405 547 l 1,17,-1
 630 547 l 1,0,-1
383 194 m 128,-1,19
 405 223 405 223 405 271 c 256,20,21
 405 319 405 319 383 348 c 128,-1,22
 361 377 361 377 324 377 c 256,23,24
 287 377 287 377 264.5 348 c 128,-1,25
 242 319 242 319 242 271 c 256,26,27
 242 223 242 223 264.5 194 c 128,-1,28
 287 165 287 165 324 165 c 256,29,18
 361 165 361 165 383 194 c 128,-1,19
EndSplineSet
EndChar

